<svg width="331" height="330" viewBox="0 0 331 330" fill="none" xmlns="http://www.w3.org/2000/svg">
<g clip-path="url(#clip0_219_268)">
<path d="M165.5 324.773C254.008 324.773 325.758 253.24 325.758 165C325.758 76.7594 254.008 5.22632 165.5 5.22632C76.992 5.22632 5.24219 76.7594 5.24219 165C5.24219 253.24 76.992 324.773 165.5 324.773Z" fill="white" stroke="#F48128" stroke-width="5.21611" stroke-linecap="round" stroke-linejoin="round"/>
<path d="M165.5 284.558C231.73 284.558 285.42 231.03 285.42 165C285.42 98.9699 231.73 45.442 165.5 45.442C99.2701 45.442 45.5801 98.9699 45.5801 165C45.5801 231.03 99.2701 284.558 165.5 284.558Z" fill="#F48128"/>
<path d="M276.131 287.718L269.507 293.285L262.658 298.575L255.487 303.421L248.121 307.968L240.481 312.04L232.679 315.795L224.654 319.049L216.501 321.97L208.179 324.37L199.764 326.425L191.236 327.944L182.652 329.112L174.011 329.733L165.351 330L156.693 329.718L148.053 329.081L139.471 327.898L130.945 326.364L122.534 324.293L114.216 321.879L106.069 318.943L98.0493 315.675L90.2541 311.906L82.6213 307.82L75.264 303.26L68.1013 298.401L61.2624 293.098L54.6484 287.52L48.4029 281.534L42.4101 275.296L36.8264 268.692L31.5203 261.865L26.6596 254.715L22.0985 247.372L18.014 239.755L14.2478 231.976L10.9843 223.975L8.05423 215.847L5.64749 207.55L3.58567 199.161L2.06206 190.658L0.891093 182.1L0.267276 173.485L0 164.852L0.282831 156.219L0.922157 147.605L2.10853 139.05L3.64747 130.55L5.72439 122.164L8.14606 113.871L11.0908 105.748L14.3687 97.7531L18.1489 89.9815L22.2471 82.3717L26.8214 75.0366L31.695 67.8956L37.0134 61.0773L42.609 54.4833L48.613 48.2567L54.8693 42.282L61.4933 36.7151L68.3417 31.4251L75.5131 26.5791L82.8787 22.0317L90.5189 17.9596L98.3208 14.2047L106.346 10.9511L114.499 8.02989L122.821 5.63043L131.236 3.57484L139.764 2.05583L148.348 0.888401L156.989 0.26648L165.649 0L174.307 0.281976L182.947 0.919371L191.529 2.10216L200.055 3.63645L208.466 5.70709L216.784 8.12145L224.931 11.0573L232.951 14.3253L240.746 18.0941L248.379 22.1799L255.736 26.7404L262.899 31.5993L269.738 36.9015L276.352 42.4802L282.597 48.4662L288.59 54.7035L294.174 61.3075L299.48 68.1353L304.34 75.285L308.901 82.6283L312.986 90.2454L316.752 98.0238L320.016 106.025L322.946 114.153L325.352 122.45L327.414 130.839L328.938 139.342L330.109 147.9L330.733 156.515L331 165.148L330.717 173.781L330.078 182.395L328.891 190.95L327.353 199.45L325.276 207.836L322.854 216.129L319.909 224.252L316.631 232.247L312.851 240.018L308.753 247.628L304.179 254.963L299.305 262.104L293.987 268.923L288.391 275.517L282.387 281.743L276.131 287.718Z" fill="#F48128"/>
<path d="M165.501 15.4547C82.8551 15.4547 15.502 82.6043 15.502 165.001C15.502 247.397 82.8551 314.545 165.501 314.545C248.147 314.545 315.498 247.397 315.498 165.001C315.498 82.6043 248.147 15.4547 165.501 15.4547ZM165.501 48.3672C230.307 48.3672 282.488 100.391 282.488 165.001C282.488 229.61 230.307 281.634 165.501 281.634C100.696 281.634 48.5142 229.61 48.5142 165.001C48.5142 100.391 100.696 48.3672 165.501 48.3672Z" fill="white"/>
<path d="M99.8795 288.024L100.805 286.163C101.122 287.01 101.548 287.738 102.085 288.347C102.616 288.952 103.259 289.442 104.013 289.817C105.498 290.556 106.863 290.664 108.107 290.142C109.348 289.625 110.397 288.505 111.255 286.78C112.109 285.062 112.369 283.549 112.035 282.242C111.698 280.941 110.787 279.922 109.302 279.183C108.548 278.808 107.769 278.592 106.965 278.534C106.156 278.473 105.318 278.572 104.451 278.831L105.368 276.988C106.192 276.874 107.001 276.884 107.795 277.017C108.584 277.148 109.362 277.404 110.128 277.785C112.094 278.762 113.344 280.135 113.875 281.904C114.404 283.678 114.148 285.611 113.108 287.702C112.065 289.799 110.678 291.169 108.947 291.813C107.213 292.462 105.363 292.298 103.396 291.32C102.619 290.933 101.94 290.465 101.36 289.915C100.771 289.368 100.277 288.737 99.8795 288.024Z" fill="#4D4D4D"/>
<path d="M90.2501 282.13C91.4401 282.916 92.6811 283.097 93.9731 282.672C95.2597 282.244 96.411 281.262 97.4271 279.728C98.4396 278.199 98.8914 276.759 98.7825 275.409C98.6681 274.055 98.016 272.985 96.826 272.199C95.636 271.413 94.4004 271.236 93.1192 271.668C91.8326 272.096 90.6831 273.075 89.6706 274.604C88.6545 276.139 88.2009 277.581 88.3099 278.931C88.4134 280.278 89.0601 281.344 90.2501 282.13ZM89.3669 283.464C87.6684 282.342 86.6896 280.873 86.4302 279.058C86.1673 277.247 86.6714 275.382 87.9424 273.462C89.2098 271.548 90.7308 270.355 92.5052 269.883C94.2761 269.416 96.0108 269.743 97.7092 270.865C99.4131 271.991 100.399 273.46 100.667 275.274C100.93 277.085 100.426 278.95 99.1553 280.869C97.8843 282.789 96.3634 283.982 94.5925 284.449C92.8126 284.918 91.0707 284.59 89.3669 283.464Z" fill="#4D4D4D"/>
<path d="M79.5792 276.408L78.0763 275.146L86.3063 265.196L80.8975 260.656L81.955 259.377L88.8667 265.179L79.5792 276.408Z" fill="#4D4D4D"/>
<path d="M69.5752 267.943L68.1968 266.545L77.3093 257.41L72.3484 252.377L73.5193 251.203L79.8586 257.634L69.5752 267.943Z" fill="#4D4D4D"/>
<path d="M60.2534 258.527L54.4818 251.388L55.7695 250.343L60.3061 255.954L63.6542 253.238L59.3071 247.861L60.5948 246.817L64.9419 252.193L69.0399 248.868L64.3932 243.121L65.681 242.077L71.5627 249.351L60.2534 258.527Z" fill="#4D4D4D"/>
<path d="M56.0839 231.817L52.7772 233.909L54.4915 236.621L53.1226 237.487L50.3695 233.131L55.6552 229.788C56.5167 230.14 57.3098 230.628 58.0345 231.251C58.7536 231.877 59.3903 232.629 59.9444 233.505C61.1564 235.423 61.5446 237.279 61.1088 239.073C60.664 240.865 59.4384 242.396 57.4318 243.665C55.4198 244.938 53.5119 245.389 51.7082 245.019C49.8955 244.647 48.3832 243.503 47.1711 241.585C46.6655 240.785 46.2848 239.964 46.0291 239.121C45.7698 238.272 45.6404 237.422 45.6409 236.571L47.4138 235.449C47.2794 236.393 47.2984 237.294 47.4709 238.151C47.6434 239.008 47.9703 239.818 48.4516 240.579C49.4005 242.081 50.5345 242.943 51.8535 243.167C53.169 243.386 54.6597 242.968 56.3254 241.915C57.9856 240.865 58.999 239.698 59.3657 238.416C59.7289 237.127 59.4361 235.733 58.4872 234.232C58.1166 233.645 57.7364 233.153 57.3466 232.756C56.9512 232.362 56.5304 232.049 56.0839 231.817Z" fill="#4D4D4D"/>
<path d="M41.4599 231.716L37.4921 223.438L38.9867 222.719L42.1054 229.226L45.9913 227.357L43.0029 221.122L44.4974 220.403L47.4859 226.638L52.2421 224.35L49.0477 217.686L50.5423 216.967L54.5857 225.403L41.4599 231.716Z" fill="#4D4D4D"/>
<path d="M31.9302 204.911C32.3173 206.283 33.1383 207.229 34.3932 207.749C35.6465 208.262 37.1585 208.268 38.9294 207.765C40.694 207.264 41.976 206.465 42.7753 205.369C43.5728 204.267 43.778 203.029 43.391 201.657C43.0039 200.284 42.1847 199.344 40.9332 198.837C39.68 198.324 38.1711 198.318 36.4064 198.819C34.6356 199.322 33.3505 200.121 32.5512 201.217C31.7502 202.307 31.5432 203.538 31.9302 204.911ZM30.3908 205.348C29.8384 203.389 30.057 201.636 31.0466 200.088C32.0299 198.542 33.6291 197.454 35.8443 196.826C38.0532 196.198 39.9833 196.284 41.6344 197.082C43.2792 197.881 44.3779 199.261 44.9303 201.22C45.4845 203.185 45.2708 204.943 44.2893 206.496C43.3059 208.042 41.7067 209.129 39.4915 209.758C37.2763 210.387 35.3463 210.302 33.7015 209.502C32.0486 208.698 30.945 207.313 30.3908 205.348Z" fill="#4D4D4D"/>
<path d="M27.5564 193.605L26.2055 185.402L27.8482 185.131L28.881 191.403L33.1326 190.703L32.2005 185.043L33.8432 184.773L34.7753 190.433L41.6647 189.298L41.9828 191.23L27.5564 193.605Z" fill="#4D4D4D"/>
<path d="M24.8846 172.851L24.8203 170.896L39.4418 170.378L39.506 172.333L24.8846 172.851Z" fill="#4D4D4D"/>
<path d="M24.5118 165.061L24.6607 162.421L37.195 156.635L25.0234 155.995L25.1307 154.092L39.6801 154.858L39.5311 157.498L26.9969 163.284L39.1685 163.924L39.0612 165.827L24.5118 165.061Z" fill="#4D4D4D"/>
<path d="M25.6345 147.943L27.0275 139.743L28.67 140.011L27.605 146.28L31.8562 146.972L32.8174 141.314L34.4599 141.582L33.4988 147.239L40.3877 148.361L40.0598 150.291L25.6345 147.943Z" fill="#4D4D4D"/>
<path d="M30.8415 129.028C30.4454 130.399 30.6429 131.635 31.4341 132.737C32.227 133.832 33.5082 134.63 35.2774 135.132C37.0403 135.632 38.5506 135.625 39.8081 135.112C41.0675 134.592 41.8952 133.646 42.2914 132.275C42.6875 130.903 42.4882 129.673 41.6934 128.584C40.9004 127.489 39.6224 126.692 37.8595 126.192C36.0903 125.69 34.5769 125.696 33.3193 126.209C32.0636 126.717 31.2376 127.656 30.8415 129.028ZM29.3036 128.591C29.869 126.634 30.9805 125.256 32.6381 124.458C34.2895 123.658 36.2217 123.572 38.4348 124.2C40.6416 124.826 42.2353 125.912 43.2159 127.458C44.1902 129.002 44.3947 130.753 43.8293 132.711C43.2621 134.675 42.1519 136.059 40.4987 136.865C38.8474 137.665 36.9151 137.751 34.7021 137.124C32.489 136.496 30.8953 135.41 29.921 133.866C28.9422 132.313 28.7364 130.555 29.3036 128.591Z" fill="#4D4D4D"/>
<path d="M42.9119 113.609C43.2094 113.276 43.6517 113.018 44.2388 112.835C44.8285 112.646 45.58 112.525 46.4933 112.472L50.9459 112.175L50.1164 114.117L45.9421 114.383C44.8543 114.447 44.0743 114.627 43.6022 114.921C43.1326 115.21 42.7449 115.712 42.4391 116.428L41.5981 118.397L47.2723 120.775L46.5002 122.583L33.0744 116.956L34.8175 112.875C35.4699 111.348 36.2774 110.343 37.2399 109.86C38.2025 109.377 39.3312 109.407 40.6261 109.95C41.4714 110.304 42.0888 110.795 42.4781 111.422C42.87 112.044 43.0146 112.772 42.9119 113.609ZM35.3393 115.774L40.1054 117.771L41.0763 115.498C41.4483 114.627 41.5278 113.887 41.3148 113.277C41.0982 112.659 40.5973 112.185 39.812 111.856C39.0267 111.526 38.3406 111.503 37.7537 111.784C37.1635 112.058 36.6823 112.63 36.3102 113.501L35.3393 115.774Z" fill="#4D4D4D"/>
<path d="M39.5242 101.887L41.0068 99.3552L51.4383 101.111L44.7698 92.9288L46.2523 90.397L58.8236 97.6863L57.8533 99.3433L46.8145 92.9426L53.5405 101.181L52.5406 102.888L42.0221 101.127L53.0609 107.528L52.0956 109.176L39.5242 101.887Z" fill="#4D4D4D"/>
<path d="M54.1973 82.3728L58.3476 88.8501L61.5982 84.5979L54.1973 82.3728ZM51.9763 82.0893L53.3322 80.3156L68.3008 84.6598L67.0574 86.2863L63.2765 85.0947L59.2917 90.3073L61.462 93.6056L60.2009 95.2553L51.9763 82.0893Z" fill="#4D4D4D"/>
<path d="M56.9231 75.2685L65.3686 66.2979L66.5807 67.4227L63.0367 71.1871L72.4694 79.9408L71.1119 81.3826L61.6792 72.6289L58.1352 76.3933L56.9231 75.2685Z" fill="#4D4D4D"/>
<path d="M67.9999 63.7868L69.4608 62.462L79.337 73.0954L77.8761 74.4203L67.9999 63.7868Z" fill="#4D4D4D"/>
<path d="M79.2413 55.8355C78.1019 56.7019 77.5179 57.8135 77.4894 59.1704C77.4661 60.5233 78.0108 61.9288 79.1234 63.3867C80.2321 64.8396 81.4429 65.7344 82.7558 66.0712C84.0738 66.4042 85.3025 66.1374 86.4419 65.271C87.5814 64.4046 88.1601 63.2969 88.1783 61.9479C88.2016 60.5949 87.6589 59.1921 86.5502 57.7392C85.4376 56.2813 84.2248 55.3839 82.912 55.047C81.6042 54.7062 80.3807 54.969 79.2413 55.8355ZM78.2741 54.5681C79.9004 53.3315 81.6151 52.8865 83.4183 53.2331C85.2176 53.5746 86.8132 54.6572 88.205 56.481C89.5928 58.2995 90.2147 60.1226 90.0706 61.95C89.9225 63.7723 89.0354 65.3017 87.4091 66.5383C85.7777 67.7789 84.0598 68.2304 82.2553 67.8928C80.456 67.5514 78.8604 66.4688 77.4687 64.645C76.0769 62.8213 75.455 60.9983 75.6031 59.176C75.7524 57.3446 76.6427 55.8087 78.2741 54.5681Z" fill="#4D4D4D"/>
<path d="M88.3432 47.4573L90.6417 46.1287L102.316 53.4027L96.2356 42.8949L97.8918 41.9375L105.16 54.4981L102.862 55.8267L91.1873 48.5527L97.2679 59.0605L95.6116 60.0179L88.3432 47.4573Z" fill="#4D4D4D"/>
<path d="M115.787 35.8494L115.761 43.5573L120.788 41.7083L115.787 35.8494ZM114.078 34.4161L116.175 33.6448L126.374 45.3625L124.451 46.0698L121.926 43.0303L115.764 45.2969L115.799 49.2526L113.849 49.9699L114.078 34.4161Z" fill="#4D4D4D"/>
<path d="M125.595 30.2761L128.174 29.6584L137.251 39.9791L134.452 28.1551L136.311 27.71L139.657 41.8439L137.077 42.4616L128 32.1409L130.799 43.9649L128.941 44.41L125.595 30.2761Z" fill="#4D4D4D"/>
<path d="M144.729 27.7702L145.936 39.0054L148.3 38.744C150.295 38.5234 151.706 37.9105 152.533 36.9052C153.366 35.8992 153.678 34.422 153.469 32.4737C153.261 30.5382 152.644 29.1735 151.618 28.3796C150.597 27.5785 149.089 27.2882 147.093 27.5088L144.729 27.7702ZM142.6 26.3801L146.62 25.9356C149.423 25.6258 151.543 25.9822 152.98 27.005C154.415 28.0213 155.266 29.7682 155.532 32.2455C155.8 34.7358 155.337 36.6376 154.145 37.951C152.953 39.2643 150.962 40.0752 148.172 40.3837L144.151 40.8281L142.6 26.3801Z" fill="#4D4D4D"/>
<path d="M178.907 26.3579L178.761 28.4281C178.144 27.768 177.47 27.2604 176.741 26.9053C176.017 26.5506 175.235 26.3449 174.393 26.2882C172.735 26.1765 171.43 26.5996 170.477 27.5576C169.525 28.509 168.981 29.9437 168.846 31.8616C168.711 33.773 169.048 35.267 169.856 36.3436C170.666 37.4137 171.899 38.0046 173.557 38.1162C174.399 38.173 175.203 38.0741 175.969 37.8198C176.742 37.5658 177.48 37.1534 178.184 36.5823L178.039 38.633C177.32 39.0533 176.567 39.3541 175.78 39.5355C174.999 39.7172 174.181 39.7793 173.326 39.7218C171.131 39.5739 169.449 38.7868 168.281 37.3605C167.114 35.9277 166.612 34.0483 166.777 31.7222C166.942 29.3896 167.703 27.5953 169.06 26.3391C170.418 25.0765 172.195 24.5191 174.39 24.667C175.258 24.7254 176.066 24.897 176.814 25.1817C177.568 25.4604 178.266 25.8525 178.907 26.3579Z" fill="#4D4D4D"/>
<path d="M190.06 28.1613C188.659 27.8901 187.441 28.1971 186.408 29.0825C185.38 29.969 184.689 31.3144 184.334 33.1187C183.98 34.9166 184.112 36.4179 184.728 37.6225C185.35 38.8284 186.362 39.5669 187.764 39.8382C189.165 40.1094 190.376 39.8011 191.397 38.9134C192.425 38.0268 193.115 36.6846 193.469 34.8867C193.824 33.0824 193.693 31.5779 193.077 30.3733C192.467 29.1699 191.462 28.4326 190.06 28.1613ZM190.369 26.593C192.369 26.9801 193.836 27.9622 194.769 29.5392C195.703 31.1098 195.948 33.0236 195.504 35.2806C195.061 37.5312 194.109 39.2132 192.647 40.3266C191.186 41.4337 189.455 41.7937 187.455 41.4066C185.448 41.0182 183.975 40.0381 183.034 38.4662C182.1 36.8956 181.855 34.9818 182.299 32.7248C182.743 30.4679 183.695 28.7858 185.156 27.6788C186.625 26.5665 188.362 26.2046 190.369 26.593Z" fill="#4D4D4D"/>
<path d="M202.567 29.3533L205.34 30.2949L205.64 40.8566L212.38 32.6851L215.153 33.6267L210.435 47.3955L208.62 46.7792L212.763 34.6889L205.979 42.928L204.109 42.2929L203.798 31.6449L199.654 43.7352L197.848 43.122L202.567 29.3533Z" fill="#4D4D4D"/>
<path d="M221.432 35.941L224.045 37.2615L222.865 47.7666L230.678 40.6131L233.291 41.9335L226.696 54.9145L224.986 54.0503L230.777 42.6517L222.911 49.866L221.149 48.9755L222.33 38.3833L216.539 49.7818L214.837 48.922L221.432 35.941Z" fill="#4D4D4D"/>
<path d="M238.84 44.9391L240.468 46.0538L235.473 53.3601C234.592 54.6489 234.189 55.7373 234.265 56.625C234.345 57.5074 234.906 58.3055 235.948 59.0194C236.986 59.7297 237.93 59.9621 238.78 59.7167C239.635 59.466 240.502 58.6962 241.384 57.4073L246.379 50.101L248.007 51.2158L242.874 58.7235C241.802 60.2916 240.605 61.2103 239.282 61.4796C237.965 61.7526 236.553 61.3729 235.045 60.3405C233.532 59.3045 232.661 58.1209 232.433 56.7899C232.21 55.4626 232.635 54.0148 233.707 52.4467L238.84 44.9391Z" fill="#4D4D4D"/>
<path d="M253.065 54.8107L255.046 56.5618L251.805 69.9589L259.869 60.8238L261.297 62.0856L251.658 73.0054L249.676 71.2543L252.917 57.8571L244.853 66.9923L243.425 65.7305L253.065 54.8107Z" fill="#4D4D4D"/>
<path d="M265.475 66.1109L266.824 67.5388L256.326 77.6252L254.977 76.1972L265.475 66.1109Z" fill="#4D4D4D"/>
<path d="M276.868 80.8689L275.246 82.1676C275.315 81.2652 275.234 80.4249 275.003 79.6468C274.776 78.8737 274.399 78.1581 273.873 77.5002C272.836 76.2045 271.643 75.5316 270.295 75.4814C268.953 75.4271 267.53 76.0016 266.027 77.2047C264.529 78.4038 263.656 79.6666 263.41 80.9931C263.169 82.3155 263.566 83.6246 264.603 84.9202C265.13 85.5782 265.745 86.1027 266.449 86.4937C267.158 86.8898 267.96 87.1529 268.855 87.283L267.248 88.5694C266.453 88.3256 265.723 87.9757 265.059 87.5197C264.398 87.0688 263.8 86.5093 263.266 85.8412C261.893 84.1255 261.337 82.3534 261.599 80.5251C261.865 78.6927 262.91 77.0469 264.733 75.5877C266.561 74.1244 268.395 73.4655 270.236 73.6111C272.082 73.7526 273.691 74.6812 275.064 76.397C275.607 77.0752 276.026 77.7861 276.321 78.5296C276.625 79.2742 276.807 80.0539 276.868 80.8689Z" fill="#4D4D4D"/>
<path d="M281.896 89.5679L274.357 91.2137L277.219 95.7213L281.896 89.5679ZM282.939 87.5886L284.133 89.4688L274.82 101.968L273.725 100.244L276.166 97.1193L272.658 91.5936L268.799 92.485L267.688 90.7361L282.939 87.5886Z" fill="#4D4D4D"/>
<path d="M287.594 94.5619L293.098 105.542L291.617 106.288L289.307 101.68L277.779 107.481L276.895 105.716L288.423 99.915L286.113 95.3073L287.594 94.5619Z" fill="#4D4D4D"/>
<path d="M294.592 108.905L295.336 110.723L281.862 116.259L281.119 114.441L294.592 108.905Z" fill="#4D4D4D"/>
<path d="M298.176 122.123C297.757 120.76 296.914 119.833 295.647 119.342C294.382 118.858 292.871 118.888 291.112 119.432C289.359 119.973 288.096 120.801 287.323 121.916C286.551 123.036 286.374 124.278 286.793 125.641C287.212 127.004 288.053 127.925 289.316 128.403C290.581 128.887 292.09 128.858 293.842 128.317C295.601 127.773 296.867 126.944 297.641 125.83C298.416 124.721 298.595 123.486 298.176 122.123ZM299.705 121.65C300.302 123.596 300.125 125.354 299.171 126.924C298.224 128.492 296.65 129.616 294.45 130.296C292.257 130.974 290.325 130.934 288.656 130.174C286.993 129.413 285.862 128.059 285.264 126.114C284.665 124.162 284.837 122.399 285.783 120.824C286.73 119.256 288.303 118.132 290.504 117.452C292.704 116.772 294.635 116.813 296.298 117.574C297.969 118.34 299.105 119.698 299.705 121.65Z" fill="#4D4D4D"/>
<path d="M302.945 133.527L303.396 136.132L292.489 144.58L304.494 142.474L304.819 144.351L290.469 146.869L290.018 144.264L300.924 135.816L288.919 137.922L288.594 136.045L302.945 133.527Z" fill="#4D4D4D"/>
<path d="M305.759 159.242L303.837 159.356C304.153 158.591 304.38 157.874 304.518 157.204C304.656 156.535 304.708 155.893 304.674 155.279C304.613 154.212 304.359 153.4 303.91 152.843C303.461 152.292 302.853 152.04 302.086 152.085C301.442 152.123 300.966 152.343 300.656 152.744C300.352 153.151 300.13 153.897 299.989 154.982L299.812 156.179C299.615 157.657 299.182 158.762 298.512 159.496C297.849 160.235 296.926 160.64 295.743 160.71C294.332 160.794 293.236 160.385 292.454 159.484C291.673 158.59 291.231 157.235 291.129 155.418C291.09 154.733 291.127 153.998 291.239 153.213C291.352 152.435 291.538 151.623 291.796 150.777L293.825 150.657C293.421 151.479 293.127 152.278 292.943 153.054C292.758 153.83 292.687 154.587 292.728 155.324C292.791 156.442 293.061 157.292 293.538 157.873C294.014 158.455 294.662 158.721 295.481 158.673C296.196 158.631 296.743 158.378 297.121 157.914C297.5 157.457 297.762 156.725 297.907 155.718L298.074 154.511C298.284 153.033 298.683 151.949 299.27 151.259C299.858 150.57 300.707 150.192 301.819 150.126C303.106 150.05 304.146 150.439 304.938 151.294C305.73 152.155 306.171 153.377 306.26 154.961C306.299 155.64 306.276 156.335 306.192 157.047C306.109 157.759 305.964 158.491 305.759 159.242Z" fill="#4D4D4D"/>
<path d="M306.462 171.047L305.183 183.246L303.53 183.081L304.067 177.961L291.206 176.673L291.412 174.712L304.273 176.001L304.81 170.881L306.462 171.047Z" fill="#4D4D4D"/>
<path d="M304.728 187.344L302.822 196.315L301.196 195.98L302.694 188.928L298.467 188.055L297.031 194.813L295.405 194.477L296.841 187.72L291.667 186.652L290.132 193.875L288.506 193.539L290.449 184.397L304.728 187.344Z" fill="#4D4D4D"/>
<path d="M297.108 211.86L295.132 211.218C295.928 210.781 296.589 210.252 297.117 209.633C297.642 209.019 298.037 208.312 298.303 207.512C298.825 205.936 298.74 204.571 298.047 203.419C297.36 202.268 296.101 201.395 294.27 200.801C292.446 200.208 290.91 200.173 289.661 200.694C288.419 201.218 287.537 202.268 287.014 203.844C286.749 204.644 286.644 205.446 286.7 206.248C286.754 207.057 286.97 207.87 287.35 208.689L285.393 208.053C285.164 207.256 285.059 206.455 285.08 205.65C285.098 204.851 285.242 204.046 285.511 203.233C286.203 201.146 287.388 199.71 289.066 198.926C290.751 198.143 292.703 198.113 294.923 198.834C297.149 199.557 298.703 200.727 299.585 202.343C300.473 203.962 300.571 205.814 299.879 207.901C299.606 208.726 299.237 209.466 298.774 210.12C298.314 210.782 297.759 211.362 297.108 211.86Z" fill="#4D4D4D"/>
<path d="M296.409 217.36L295.572 219.14L290.155 216.641L287.116 223.107L292.534 225.606L291.698 227.385L278.481 221.29L279.317 219.51L285.611 222.413L288.65 215.947L282.356 213.044L283.192 211.265L296.409 217.36Z" fill="#4D4D4D"/>
<path d="M288.907 233.118L287.494 235.361L273.723 234.402L284.056 240.819L283.038 242.434L270.687 234.765L272.1 232.522L285.87 233.481L275.538 227.064L276.556 225.449L288.907 233.118Z" fill="#4D4D4D"/>
<path d="M274.742 251.559C275.65 250.454 275.961 249.239 275.674 247.914C275.383 246.594 274.526 245.354 273.104 244.194C271.687 243.038 270.3 242.447 268.943 242.423C267.582 242.403 266.447 242.946 265.539 244.05C264.63 245.155 264.323 246.365 264.619 247.68C264.91 249 265.764 250.238 267.181 251.394C268.603 252.555 269.992 253.147 271.349 253.172C272.702 253.201 273.833 252.664 274.742 251.559ZM275.978 252.568C274.681 254.144 273.114 254.972 271.277 255.051C269.445 255.134 267.64 254.45 265.861 252.999C264.087 251.552 263.059 249.924 262.775 248.114C262.496 246.309 263.006 244.619 264.303 243.042C265.604 241.46 267.172 240.625 269.008 240.537C270.84 240.454 272.645 241.138 274.424 242.589C276.203 244.041 277.232 245.669 277.51 247.474C277.79 249.288 277.279 250.986 275.978 252.568Z" fill="#4D4D4D"/>
<path d="M267.956 261.51L266.54 262.881L257.475 253.752L252.377 258.688L251.212 257.515L257.726 251.208L267.956 261.51Z" fill="#4D4D4D"/>
<path d="M253.433 273.015C254.559 272.132 255.127 271.012 255.135 269.655C255.139 268.302 254.573 266.905 253.439 265.464C252.309 264.027 251.085 263.15 249.767 262.833C248.444 262.519 247.22 262.804 246.093 263.687C244.967 264.57 244.404 265.686 244.406 267.035C244.402 268.388 244.966 269.783 246.096 271.219C247.23 272.66 248.456 273.54 249.774 273.857C251.086 274.179 252.306 273.898 253.433 273.015ZM254.419 274.268C252.811 275.528 251.102 275.998 249.294 275.678C247.49 275.363 245.878 274.304 244.46 272.501C243.045 270.703 242.396 268.89 242.514 267.061C242.635 265.237 243.499 263.694 245.107 262.434C246.72 261.17 248.432 260.693 250.241 261.004C252.045 261.319 253.657 262.378 255.075 264.181C256.494 265.984 257.143 267.798 257.022 269.622C256.899 271.455 256.032 273.004 254.419 274.268Z" fill="#4D4D4D"/>
<path d="M229.547 275.969L231.554 279.31L234.315 277.653L235.146 279.036L230.711 281.698L227.503 276.357C227.879 275.504 228.388 274.722 229.031 274.011C229.678 273.305 230.447 272.685 231.34 272.149C233.292 270.977 235.161 270.626 236.946 271.097C238.729 271.576 240.23 272.829 241.448 274.857C242.669 276.89 243.07 278.804 242.652 280.596C242.231 282.398 241.045 283.885 239.093 285.057C238.278 285.546 237.445 285.91 236.594 286.148C235.738 286.39 234.883 286.503 234.031 286.486L232.954 284.694C233.896 284.847 234.799 284.846 235.662 284.69C236.525 284.535 237.344 284.225 238.119 283.759C239.648 282.842 240.542 281.727 240.801 280.415C241.055 279.106 240.676 277.61 239.665 275.927C238.658 274.249 237.516 273.215 236.242 272.823C234.961 272.435 233.557 272.7 232.028 273.618C231.431 273.976 230.929 274.346 230.52 274.727C230.115 275.114 229.791 275.528 229.547 275.969Z" fill="#4D4D4D"/>
<path d="M231.861 289.144L229.936 290.028L223.776 286.289L222.618 293.387L220.693 294.271L222.208 285.212L219.327 278.929L221.128 278.103L224.009 284.385L231.861 289.144Z" fill="#4D4D4D"/>
<path d="M138.706 288.198L140.533 288.572L140.937 300.464L146.149 289.719L148.182 290.134L148.586 302.026L153.798 291.282L155.634 291.657L149.426 304.36L147.151 303.895L146.803 291.696L141.482 302.736L139.206 302.272L138.706 288.198Z" fill="#4D4D4D"/>
<path d="M162.155 305.516L157.709 291.592L159.632 291.682L163.312 303.402L168.26 292.084L170.174 292.173L164.241 305.613L162.155 305.516Z" fill="#4D4D4D"/>
<path d="M180.615 291.413L180.736 293.214C180.015 292.932 179.339 292.733 178.709 292.616C178.078 292.499 177.474 292.462 176.897 292.506C175.895 292.583 175.134 292.837 174.614 293.269C174.1 293.701 173.867 294.276 173.915 294.995C173.956 295.599 174.166 296.042 174.545 296.326C174.93 296.603 175.633 296.797 176.654 296.909L177.78 297.053C179.171 297.21 180.213 297.595 180.908 298.21C181.608 298.818 181.995 299.677 182.07 300.787C182.159 302.11 181.783 303.146 180.943 303.897C180.108 304.647 178.837 305.087 177.131 305.218C176.487 305.267 175.796 305.247 175.057 305.156C174.325 305.065 173.56 304.906 172.764 304.679L172.636 302.777C173.411 303.141 174.164 303.402 174.895 303.56C175.626 303.719 176.338 303.771 177.03 303.718C178.081 303.638 178.877 303.369 179.42 302.91C179.963 302.452 180.209 301.839 180.157 301.071C180.112 300.4 179.87 299.892 179.432 299.546C178.999 299.199 178.309 298.967 177.361 298.849L176.226 298.716C174.835 298.546 173.813 298.193 173.16 297.654C172.508 297.116 172.146 296.326 172.076 295.283C171.995 294.076 172.353 293.093 173.15 292.333C173.953 291.573 175.099 291.136 176.587 291.023C177.225 290.974 177.878 290.982 178.548 291.047C179.218 291.112 179.907 291.234 180.615 291.413Z" fill="#4D4D4D"/>
<path d="M184.085 291.135L185.924 290.866L187.055 299.088C187.254 300.539 187.661 301.546 188.274 302.109C188.887 302.667 189.782 302.86 190.959 302.687C192.131 302.515 192.936 302.074 193.374 301.362C193.811 300.645 193.93 299.56 193.73 298.11L192.6 289.887L194.438 289.618L195.6 298.067C195.843 299.832 195.588 301.229 194.837 302.258C194.091 303.286 192.867 303.924 191.164 304.174C189.455 304.424 188.101 304.163 187.101 303.391C186.108 302.618 185.49 301.349 185.247 299.584L184.085 291.135Z" fill="#4D4D4D"/>
<path d="M126.917 295.766L124.003 292.492L119.617 293.362L121.84 289.587L119.655 285.697L123.943 286.639L126.978 283.365L127.405 287.722L131.466 289.588L127.442 291.339L126.917 295.766Z" fill="#4D4D4D"/>
<path d="M165.5 318.14C250.334 318.14 319.104 249.577 319.104 165C319.104 80.4233 250.334 11.8601 165.5 11.8601C80.6672 11.8601 11.8965 80.4233 11.8965 165C11.8965 249.577 80.6672 318.14 165.5 318.14Z" stroke="white" stroke-width="2.60806"/>
<path d="M212.534 292.694L208.284 291.789L205.3 295.048L204.85 290.738L200.818 288.916L204.79 287.158L205.283 282.772L208.188 285.995L212.524 285.106L210.347 288.857L212.534 292.694Z" fill="#4D4D4D"/>
<path d="M164.947 212.149C164.723 212.059 164.275 211.846 163.952 211.675C163.628 211.504 163.241 211.299 163.092 211.22C162.942 211.141 162.357 210.847 161.79 210.567C161.224 210.287 160.674 209.977 160.568 209.878C160.357 209.681 159.32 208.959 158.838 208.675C158.67 208.575 158.096 208.23 157.563 207.908C157.03 207.585 156.475 207.254 156.33 207.171C156.184 207.089 155.916 206.923 155.732 206.802C155.549 206.68 155.177 206.444 154.905 206.276C154.634 206.108 154.064 205.672 153.638 205.306C153.213 204.941 152.702 204.507 152.502 204.342C151.746 203.716 150.684 202.778 150.473 202.55C150.352 202.42 150.205 202.313 150.146 202.313C150.087 202.313 149.779 202.066 149.46 201.763C149.142 201.461 148.403 200.809 147.819 200.315C147.234 199.821 146.755 199.387 146.755 199.352C146.755 199.317 146.28 198.883 145.699 198.387C145.118 197.891 144.448 197.303 144.21 197.08C143.971 196.856 143.581 196.503 143.342 196.295C141.801 194.95 139.243 192.431 139.243 192.258C139.243 192.225 138.988 191.946 138.676 191.638C138.364 191.331 137.844 190.78 137.522 190.414C137.199 190.049 136.607 189.399 136.206 188.971C135.238 187.937 134.147 186.644 133.494 185.755C133.202 185.358 132.727 184.722 132.438 184.341C132.148 183.961 131.912 183.605 131.912 183.552C131.912 183.498 131.874 183.455 131.827 183.455C131.78 183.455 131.717 183.374 131.686 183.275C131.654 183.177 131.456 182.882 131.246 182.621C130.792 182.057 130.011 180.962 130.011 180.889C130.011 180.811 129.369 179.937 129.082 179.625C128.943 179.473 128.744 179.175 128.641 178.962C128.537 178.75 128.406 178.526 128.349 178.466C128.262 178.374 127.482 177.189 126.701 175.965C126.59 175.791 126.265 175.284 125.978 174.837C125.692 174.391 125.323 173.769 125.159 173.457C124.995 173.144 124.76 172.769 124.636 172.623C124.512 172.476 124.383 172.265 124.347 172.153C124.312 172.041 124.182 171.818 124.059 171.656C123.936 171.495 123.859 171.363 123.888 171.363C123.917 171.363 123.825 171.165 123.682 170.923C123.539 170.681 123.289 170.246 123.127 169.955C122.965 169.665 122.774 169.369 122.703 169.299C122.633 169.228 122.475 168.945 122.353 168.67C122.231 168.395 121.991 167.959 121.819 167.701C121.436 167.126 119.304 162.888 118.804 161.708C118.604 161.237 118.292 160.506 118.11 160.084C117.928 159.662 117.686 159.053 117.572 158.73C117.46 158.408 117.262 157.921 117.133 157.648C117.005 157.375 116.81 156.867 116.7 156.52C116.59 156.172 116.469 155.847 116.43 155.798C116.305 155.637 115.801 154.309 115.801 154.139C115.801 153.99 115.623 153.552 115.071 152.347C114.975 152.137 114.896 151.9 114.896 151.821C114.896 151.741 114.718 151.142 114.501 150.489C114.283 149.835 113.936 148.79 113.728 148.165C113.521 147.54 113.331 146.919 113.306 146.784C113.282 146.65 113.202 146.389 113.131 146.206C112.962 145.771 112.662 144.623 112.59 144.133C112.558 143.921 112.433 143.433 112.311 143.05C112.024 142.148 111.241 139.009 111.148 138.383C111.132 138.283 111.058 137.958 110.981 137.661C110.851 137.156 110.761 136.765 110.418 135.202C110.344 134.867 110.164 134.085 110.016 133.465C109.732 132.27 109.496 131.004 109.377 130.036C109.338 129.713 109.216 129.064 109.107 128.592C108.998 128.121 108.895 127.552 108.877 127.329C108.86 127.105 108.785 126.557 108.71 126.111C108.636 125.664 108.53 124.629 108.475 123.81C108.421 122.991 108.333 121.915 108.282 121.418C108.178 120.407 108.167 120.231 108.024 117.448C107.915 115.317 107.909 115.214 107.745 112.756C107.686 111.863 107.625 110.868 107.611 110.545C107.595 110.223 107.54 109.147 107.488 108.154C107.435 107.161 107.368 105.537 107.339 104.545C107.31 103.552 107.251 102.314 107.209 101.792C107.166 101.271 107.134 100.743 107.137 100.62C107.137 100.496 107.09 99.4801 107.027 98.3636C106.963 97.2469 106.899 96.0287 106.884 95.6565C106.869 95.2844 106.831 94.4317 106.802 93.7617C106.689 91.2831 106.669 90.6841 106.612 88.1835C106.559 85.8477 106.568 85.6135 106.709 85.4573C106.898 85.2491 107.309 85.1093 107.793 85.0884C107.992 85.0758 108.487 84.9987 108.893 84.9082C109.299 84.8173 109.873 84.7239 110.168 84.6992C110.463 84.6753 110.81 84.6146 110.937 84.5669C111.064 84.5189 111.19 84.5 111.216 84.5265C111.242 84.553 111.493 84.5265 111.773 84.4684C112.054 84.4103 112.434 84.3447 112.618 84.3234C112.802 84.3019 113.319 84.2059 113.767 84.1101C114.215 84.0141 114.744 83.9375 114.943 83.9388C115.143 83.9388 115.659 83.8582 116.09 83.7559C116.522 83.6536 117.051 83.5524 117.267 83.5303C117.482 83.5088 117.944 83.4292 118.292 83.3555C118.641 83.281 119.186 83.1966 119.505 83.1666C119.823 83.1363 120.353 83.0478 120.682 82.9705C121.547 82.7658 123.877 82.3364 124.537 82.2601C124.686 82.2424 125.236 82.1193 125.759 81.9857C126.282 81.8522 126.811 81.7306 126.936 81.7157C127.462 81.6526 128.218 81.4921 128.607 81.3606C128.836 81.2824 129.114 81.2195 129.225 81.2195C129.336 81.2195 129.747 81.1185 130.14 80.9938C130.532 80.8701 130.915 80.7682 130.992 80.7682C131.069 80.7682 131.256 80.7291 131.409 80.6824C132.644 80.299 133.86 79.9565 133.987 79.9565C134.072 79.9565 134.586 79.7916 135.131 79.59C135.676 79.3884 136.265 79.2092 136.439 79.1919C136.613 79.1743 137.041 79.0504 137.389 78.9161C137.738 78.7817 138.155 78.6342 138.317 78.5883C138.479 78.5428 138.611 78.467 138.611 78.4212C138.611 78.3757 138.664 78.358 138.73 78.3833C138.796 78.4085 139.315 78.2609 139.884 78.0547C140.454 77.8489 141.082 77.6392 141.282 77.5888C141.481 77.5383 142.01 77.3408 142.458 77.1501C142.906 76.9593 143.395 76.7784 143.544 76.748C143.694 76.7177 144.06 76.5778 144.359 76.4374C145.065 76.1054 146.038 75.7157 146.162 75.7151C146.215 75.7151 146.372 75.6556 146.51 75.5839C146.749 75.4602 147.88 74.9712 149.065 74.4805C149.364 74.3567 149.879 74.117 150.21 73.9477C150.541 73.7785 150.866 73.6401 150.933 73.6401C151 73.6401 151.544 73.4001 152.142 73.107C154.011 72.1902 155.57 71.4535 155.674 71.4384C155.729 71.4258 156.301 71.1664 156.945 70.8518C157.589 70.5373 158.279 70.2008 158.478 70.1044C159.044 69.8301 159.723 69.4817 159.971 69.3383C160.096 69.2663 160.57 69.0302 161.026 68.8138C161.482 68.5973 162.012 68.3199 162.203 68.1972C162.394 68.0747 162.698 67.9279 162.879 67.8712C163.059 67.8144 163.406 67.6277 163.648 67.4557C163.891 67.2839 164.146 67.1433 164.216 67.1433C164.285 67.1433 164.561 66.9986 164.828 66.8215C165.508 66.372 165.819 66.3381 166.315 66.6599C166.792 66.9697 167.414 67.3054 168.208 67.6814C168.531 67.8346 168.857 67.9978 168.932 68.044C169.437 68.3563 170.223 68.7676 170.315 68.7677C170.376 68.7677 170.649 68.9014 170.923 69.0644C171.423 69.3625 172.79 70.0485 173.548 70.3819C173.772 70.4804 174.138 70.6624 174.362 70.7859C174.829 71.0433 175.464 71.3374 175.556 71.3384C175.59 71.3384 176.16 71.5998 176.823 71.9185C177.485 72.2371 178.52 72.7345 179.121 73.0238C179.722 73.3131 180.264 73.5499 180.325 73.5499C180.386 73.5499 180.75 73.7088 181.133 73.9028C181.516 74.097 182.053 74.3446 182.327 74.453C182.883 74.6733 184.077 75.1881 184.645 75.4523C184.849 75.547 185.075 75.6252 185.147 75.6252C185.219 75.6252 185.316 75.6606 185.363 75.7048C185.41 75.7489 185.612 75.8342 185.811 75.8954C186.011 75.9573 186.448 76.1443 186.784 76.3124C187.121 76.4805 187.452 76.618 187.522 76.618C187.592 76.618 188.05 76.7839 188.54 76.9865C189.031 77.1892 189.699 77.431 190.026 77.5238C190.352 77.6172 190.8 77.7678 191.021 77.8594C191.242 77.9516 191.667 78.1021 191.966 78.1945C192.265 78.2867 192.974 78.5243 193.542 78.7219C194.109 78.9196 194.696 79.0954 194.846 79.1129C194.995 79.1305 195.549 79.3011 196.076 79.4928C196.603 79.6844 197.197 79.87 197.396 79.9052C197.595 79.9405 198.145 80.0848 198.618 80.2262C199.987 80.6356 200.7 80.831 201.379 80.9829C202.359 81.2022 202.696 81.2854 203.234 81.4412C203.508 81.5208 203.943 81.6033 204.201 81.6253C204.459 81.6467 205.042 81.7693 205.497 81.8967C205.951 82.0242 206.473 82.1453 206.657 82.1657C207.24 82.2314 209.956 82.7282 210.52 82.8733C210.819 82.9503 211.246 83.0332 211.47 83.0582C212.219 83.1416 213.322 83.3104 213.388 83.3512C213.425 83.3727 213.665 83.4118 213.922 83.437C214.18 83.4623 214.742 83.5661 215.171 83.6679C215.6 83.7702 216.195 83.8697 216.494 83.89C216.792 83.9102 217.322 83.9861 217.67 84.0583C218.764 84.285 220.548 84.5778 221.019 84.608C221.268 84.6244 221.851 84.7217 222.315 84.825C222.778 84.9285 223.196 84.9893 223.242 84.9606C223.289 84.9316 223.327 84.943 223.327 84.9847C223.327 85.0263 223.521 85.0692 223.757 85.0793C224.011 85.0919 224.279 85.1677 224.413 85.2672L224.639 85.4362L224.627 87.4112C224.614 89.1324 224.584 90.4234 224.448 93.7625C224.404 94.8484 224.348 95.9454 224.219 98.2742C224.157 99.3909 224.107 100.426 224.108 100.575C224.108 100.724 224.077 101.252 224.035 101.748C223.993 102.245 223.936 103.483 223.911 104.5C223.884 105.518 223.819 107.142 223.764 108.11C223.71 109.078 223.653 110.154 223.639 110.501C223.624 110.848 223.563 111.843 223.504 112.712C223.353 114.921 223.336 115.213 223.22 117.449C223.067 120.404 223.07 120.357 222.969 121.329C222.917 121.825 222.83 122.901 222.777 123.72C222.724 124.539 222.618 125.575 222.543 126.021C222.468 126.468 222.392 127.016 222.374 127.239C222.357 127.463 222.236 128.108 222.108 128.673C221.98 129.238 221.875 129.841 221.875 130.013C221.875 130.186 221.818 130.556 221.746 130.836C221.675 131.116 221.591 131.569 221.558 131.841C221.525 132.114 221.383 132.805 221.243 133.375C221.103 133.946 220.926 134.697 220.849 135.045C220.486 136.688 220.399 137.068 220.268 137.571C220.19 137.869 220.12 138.174 220.111 138.248C220.082 138.49 219.875 139.459 219.793 139.737C219.749 139.886 219.607 140.454 219.478 141C219.349 141.546 219.123 142.379 218.977 142.85C218.83 143.321 218.687 143.87 218.658 144.068C218.629 144.267 218.581 144.51 218.552 144.61C218.523 144.709 218.487 144.871 218.475 144.97C218.462 145.07 218.342 145.471 218.208 145.863C218.074 146.254 217.952 146.66 217.937 146.765C217.922 146.87 217.739 147.463 217.53 148.084C217.321 148.704 216.972 149.745 216.753 150.396C216.534 151.048 216.354 151.647 216.354 151.729C216.354 151.809 216.151 152.329 215.902 152.884C215.653 153.438 215.449 153.964 215.449 154.053C215.449 154.222 214.943 155.552 214.819 155.708C214.78 155.758 214.644 156.124 214.518 156.521C214.391 156.918 214.188 157.445 214.067 157.694C213.945 157.942 213.762 158.388 213.66 158.686C213.557 158.984 213.324 159.573 213.141 159.994C212.959 160.416 212.648 161.147 212.451 161.619C212.149 162.34 211.352 164.03 211.089 164.506C211.048 164.581 210.736 165.19 210.397 165.86C210.057 166.53 209.568 167.42 209.311 167.837C209.053 168.255 208.842 168.645 208.842 168.704C208.842 168.763 208.717 168.984 208.563 169.195C208.409 169.407 208.192 169.748 208.08 169.953C207.969 170.158 207.755 170.529 207.606 170.777C207.457 171.026 207.332 171.249 207.328 171.274C207.305 171.416 207.083 171.815 207.028 171.815C206.991 171.815 206.938 171.91 206.909 172.026C206.879 172.142 206.734 172.388 206.586 172.574C206.438 172.76 206.143 173.256 205.929 173.678C205.716 174.099 205.479 174.512 205.403 174.596C205.327 174.679 205.126 174.971 204.957 175.244C204.787 175.517 204.431 176.075 204.166 176.484C203.901 176.893 203.684 177.265 203.684 177.311C203.684 177.357 203.647 177.408 203.603 177.425C203.558 177.441 203.268 177.861 202.957 178.357C202.646 178.853 202.209 179.483 201.985 179.756C201.762 180.029 201.537 180.344 201.485 180.455C201.433 180.566 201.357 180.658 201.315 180.658C201.274 180.658 201.239 180.701 201.239 180.754C201.239 180.865 200.567 181.832 200.004 182.531C199.794 182.792 199.596 183.087 199.565 183.185C199.533 183.284 199.469 183.365 199.423 183.365C199.376 183.365 199.338 183.409 199.338 183.462C199.338 183.516 199.102 183.871 198.812 184.251C198.523 184.632 198.048 185.268 197.756 185.665C197.099 186.56 196.018 187.84 195 188.932C194.573 189.389 194.054 189.958 193.846 190.196C191.933 192.379 189.863 194.473 187.9 196.212C187.558 196.516 187.151 196.884 186.995 197.031C186.84 197.178 186.427 197.542 186.079 197.84C185.73 198.138 185.16 198.662 184.812 199.003C184.463 199.344 183.944 199.808 183.658 200.034C183.372 200.26 183.138 200.481 183.138 200.525C183.138 200.569 183.055 200.635 182.954 200.672C182.854 200.709 182.498 201.003 182.163 201.325C181.828 201.648 181.33 202.091 181.056 202.311C180.782 202.532 180.226 203.008 179.821 203.37C179.415 203.732 179.065 204.028 179.043 204.028C179.021 204.028 178.864 204.146 178.694 204.292C178.525 204.437 178.038 204.854 177.612 205.218C177.186 205.583 176.616 206.018 176.345 206.186C176.074 206.354 175.702 206.591 175.518 206.712C175.335 206.833 175.066 206.999 174.92 207.081C174.775 207.163 174.233 207.487 173.715 207.8C173.198 208.113 172.693 208.418 172.595 208.477C172.207 208.71 170.729 209.735 170.609 209.854C170.282 210.18 165.601 212.389 165.382 212.32C165.366 212.32 165.169 212.238 164.945 212.149L164.947 212.149Z" fill="white"/>
<path d="M165.031 202.947C164.835 202.869 164.444 202.683 164.161 202.533C163.879 202.384 163.541 202.205 163.411 202.136C163.28 202.066 162.769 201.81 162.274 201.565C161.779 201.321 161.298 201.05 161.206 200.964C161.022 200.791 160.116 200.161 159.695 199.912C159.548 199.825 159.047 199.524 158.581 199.242C158.116 198.961 157.631 198.671 157.504 198.599C157.377 198.527 157.142 198.382 156.982 198.276C156.821 198.17 156.496 197.964 156.26 197.817C156.023 197.671 155.525 197.289 155.153 196.97C154.781 196.651 154.334 196.272 154.16 196.128C153.5 195.581 152.572 194.761 152.388 194.562C152.282 194.449 152.154 194.355 152.102 194.355C152.05 194.355 151.781 194.139 151.503 193.875C151.225 193.611 150.58 193.041 150.069 192.61C149.558 192.178 149.14 191.799 149.14 191.769C149.14 191.738 148.725 191.359 148.218 190.926C147.71 190.493 147.125 189.978 146.917 189.784C146.708 189.588 146.367 189.28 146.159 189.098C144.813 187.923 142.578 185.723 142.578 185.572C142.578 185.543 142.355 185.299 142.082 185.03C141.81 184.762 141.356 184.28 141.074 183.961C140.792 183.642 140.275 183.074 139.924 182.7C139.079 181.797 138.127 180.667 137.556 179.891C137.301 179.544 136.886 178.989 136.633 178.656C136.38 178.324 136.174 178.013 136.174 177.967C136.174 177.919 136.141 177.882 136.099 177.882C136.059 177.882 136.003 177.811 135.975 177.725C135.947 177.64 135.775 177.382 135.591 177.154C135.194 176.661 134.512 175.705 134.512 175.641C134.512 175.573 133.951 174.809 133.701 174.536C133.579 174.404 133.406 174.144 133.315 173.958C133.224 173.772 133.11 173.577 133.061 173.524C132.985 173.444 132.303 172.409 131.621 171.34C131.523 171.188 131.24 170.745 130.99 170.354C130.739 169.964 130.417 169.422 130.274 169.149C130.131 168.876 129.925 168.548 129.817 168.42C129.708 168.292 129.596 168.108 129.565 168.01C129.534 167.911 129.42 167.717 129.313 167.576C129.205 167.435 129.138 167.32 129.164 167.32C129.189 167.32 129.108 167.147 128.983 166.935C128.858 166.724 128.64 166.343 128.499 166.09C128.357 165.836 128.191 165.578 128.129 165.516C128.067 165.454 127.929 165.208 127.823 164.968C127.716 164.727 127.506 164.346 127.356 164.121C127.022 163.618 125.159 159.916 124.723 158.885C124.548 158.474 124.275 157.835 124.116 157.467C123.957 157.098 123.746 156.566 123.647 156.284C123.548 156.002 123.375 155.577 123.263 155.339C123.152 155.1 122.981 154.657 122.885 154.353C122.789 154.05 122.683 153.766 122.649 153.723C122.54 153.582 122.099 152.422 122.099 152.273C122.099 152.144 121.943 151.761 121.461 150.708C121.378 150.525 121.309 150.318 121.309 150.248C121.309 150.179 121.153 149.656 120.963 149.085C120.773 148.514 120.47 147.601 120.288 147.055C120.107 146.51 119.941 145.967 119.92 145.849C119.898 145.732 119.829 145.504 119.767 145.343C119.619 144.964 119.357 143.961 119.295 143.533C119.267 143.347 119.157 142.922 119.051 142.587C118.799 141.799 118.116 139.057 118.034 138.51C118.022 138.423 117.956 138.139 117.889 137.879C117.775 137.439 117.697 137.097 117.397 135.731C117.332 135.439 117.175 134.756 117.046 134.214C116.797 133.17 116.592 132.065 116.488 131.219C116.454 130.937 116.347 130.369 116.252 129.957C116.157 129.546 116.067 129.049 116.051 128.854C116.036 128.659 115.97 128.18 115.905 127.79C115.84 127.4 115.748 126.495 115.7 125.78C115.652 125.065 115.576 124.125 115.531 123.691C115.44 122.807 115.431 122.654 115.306 120.223C115.211 118.361 115.206 118.271 115.062 116.124C115.01 115.344 114.957 114.475 114.945 114.193C114.931 113.911 114.883 112.971 114.837 112.104C114.79 111.237 114.732 109.818 114.707 108.951C114.682 108.084 114.631 107.002 114.593 106.547C114.555 106.092 114.527 105.631 114.529 105.522C114.529 105.414 114.489 104.527 114.433 103.552C114.378 102.577 114.322 101.512 114.309 101.187C114.295 100.862 114.262 100.117 114.237 99.532C114.138 97.3669 114.122 96.8436 114.071 94.6592C114.025 92.6187 114.032 92.4142 114.156 92.2778C114.321 92.096 114.68 91.9738 115.103 91.9555C115.277 91.9429 115.709 91.8773 116.064 91.7982C116.418 91.7186 116.919 91.637 117.177 91.6155C117.435 91.5941 117.738 91.5411 117.849 91.4995C117.96 91.4578 118.07 91.4413 118.092 91.464C118.115 91.4868 118.335 91.464 118.579 91.4135C118.824 91.363 119.156 91.305 119.317 91.2868C119.478 91.2679 119.929 91.1846 120.321 91.1006C120.712 91.0173 121.175 90.9498 121.349 90.951C121.522 90.951 121.973 90.8803 122.351 90.7912C122.728 90.7015 123.19 90.6134 123.379 90.5941C123.567 90.5751 123.97 90.5057 124.274 90.4415C124.578 90.3758 125.055 90.3025 125.333 90.2763C125.612 90.2498 126.074 90.1727 126.361 90.105C127.117 89.9261 129.152 89.5512 129.729 89.4844C129.86 89.4693 130.34 89.362 130.797 89.2449C131.253 89.1288 131.716 89.022 131.824 89.009C132.285 88.9534 132.945 88.8135 133.284 88.6987C133.484 88.6306 133.728 88.575 133.824 88.575C133.922 88.575 134.281 88.4867 134.623 88.378C134.966 88.2695 135.301 88.1809 135.368 88.1809C135.435 88.1809 135.599 88.1469 135.732 88.1065C136.811 87.7715 137.873 87.4724 137.984 87.4724C138.058 87.4724 138.508 87.3285 138.984 87.1523C139.46 86.9762 139.974 86.8197 140.126 86.8045C140.278 86.7894 140.651 86.6808 140.956 86.5636C141.26 86.4462 141.625 86.3173 141.766 86.2771C141.908 86.238 142.023 86.1711 142.023 86.1312C142.023 86.092 142.07 86.0756 142.127 86.0984C142.184 86.1198 142.638 85.991 143.135 85.8112C143.633 85.6316 144.182 85.4484 144.356 85.4044C144.53 85.3602 144.992 85.1879 145.384 85.0212C145.775 84.8546 146.202 84.6965 146.332 84.6699C146.463 84.6433 146.783 84.5212 147.044 84.3986C147.661 84.1085 148.511 83.7681 148.619 83.7675C148.666 83.7675 148.803 83.7158 148.923 83.6527C149.132 83.5441 150.12 83.1173 151.155 82.6887C151.416 82.5801 151.866 82.3712 152.155 82.2233C152.444 82.0756 152.728 81.9546 152.787 81.9546C152.845 81.9546 153.32 81.7451 153.842 81.4891C155.476 80.6881 156.838 80.0447 156.928 80.0314C156.976 80.0188 157.476 79.7937 158.038 79.519C158.601 79.2443 159.204 78.9504 159.377 78.866C159.872 78.6265 160.465 78.3221 160.682 78.1969C160.791 78.1337 161.206 77.9278 161.604 77.7388C162.002 77.5497 162.464 77.3074 162.631 77.2002C162.799 77.0929 163.064 76.9649 163.222 76.9154C163.38 76.8661 163.682 76.7027 163.894 76.5524C164.106 76.4025 164.329 76.2795 164.39 76.2795C164.45 76.2795 164.691 76.1529 164.925 75.9984C165.518 75.6056 165.791 75.5761 166.223 75.8572C166.64 76.1278 167.183 76.421 167.877 76.7494C168.159 76.8834 168.444 77.0259 168.509 77.0663C168.951 77.3391 169.637 77.6983 169.718 77.6984C169.771 77.6984 170.009 77.8145 170.249 77.9575C170.686 78.218 171.88 78.8172 172.541 79.1084C172.737 79.1943 173.057 79.3536 173.253 79.4615C173.661 79.6864 174.216 79.9432 174.296 79.9441C174.326 79.9441 174.824 80.1724 175.402 80.4508C175.981 80.7292 176.885 81.1637 177.409 81.4163C177.935 81.6691 178.408 81.8759 178.462 81.8759C178.515 81.8759 178.833 82.0147 179.167 82.1841C179.502 82.3538 179.971 82.57 180.211 82.6647C180.696 82.8572 181.739 83.3068 182.235 83.5376C182.414 83.6196 182.611 83.6888 182.674 83.6888C182.737 83.6888 182.822 83.719 182.863 83.7581C182.903 83.7972 183.08 83.8718 183.254 83.9247C183.428 83.979 183.811 84.1421 184.104 84.289C184.398 84.4357 184.688 84.5561 184.749 84.5561C184.81 84.5561 185.21 84.7008 185.638 84.8779C186.066 85.0549 186.65 85.2661 186.935 85.3472C187.221 85.4293 187.612 85.5604 187.805 85.6405C187.998 85.7213 188.369 85.8523 188.63 85.9331C188.891 86.0139 189.511 86.2212 190.007 86.3938C190.503 86.5665 191.015 86.7202 191.146 86.7353C191.277 86.7505 191.76 86.8999 192.221 87.0673C192.681 87.2347 193.2 87.3966 193.374 87.4274C193.548 87.4577 194.028 87.5843 194.441 87.7078C195.637 88.0654 196.26 88.2362 196.853 88.3688C197.709 88.5604 198.003 88.6331 198.474 88.7692C198.713 88.8386 199.093 88.9107 199.318 88.9299C199.544 88.9489 200.053 89.0562 200.45 89.1671C200.847 89.2782 201.303 89.3842 201.463 89.4021C201.973 89.4589 204.345 89.8934 204.838 90.0201C205.099 90.087 205.472 90.16 205.668 90.1818C206.322 90.255 207.286 90.402 207.344 90.4376C207.375 90.4566 207.585 90.4906 207.81 90.5121C208.035 90.5348 208.526 90.6244 208.901 90.7138C209.275 90.8034 209.795 90.8902 210.056 90.9078C210.317 90.9255 210.78 90.9911 211.084 91.0547C212.039 91.2528 213.598 91.5087 214.009 91.5351C214.227 91.549 214.736 91.6347 215.141 91.7245C215.546 91.8154 215.911 91.868 215.952 91.8432C215.992 91.8179 216.026 91.8281 216.026 91.8647C216.026 91.9013 216.195 91.9379 216.401 91.9467C216.623 91.9593 216.858 92.0237 216.975 92.1109L217.173 92.2585L217.16 93.9837C217.147 95.4872 217.122 96.615 217.004 99.5318C216.965 100.48 216.917 101.439 216.803 103.473C216.749 104.448 216.706 105.353 216.707 105.483C216.707 105.613 216.679 106.074 216.643 106.508C216.606 106.941 216.556 108.023 216.534 108.912C216.511 109.8 216.453 111.219 216.405 112.065C216.357 112.91 216.308 113.85 216.297 114.154C216.284 114.457 216.231 115.326 216.179 116.085C216.047 118.015 216.031 118.27 215.931 120.223C215.797 122.804 215.8 122.763 215.711 123.612C215.665 124.046 215.591 124.986 215.543 125.701C215.497 126.416 215.405 127.321 215.339 127.711C215.274 128.101 215.207 128.58 215.192 128.775C215.176 128.97 215.071 129.534 214.959 130.027C214.848 130.521 214.755 131.047 214.755 131.198C214.755 131.348 214.706 131.672 214.644 131.917C214.582 132.161 214.508 132.557 214.479 132.795C214.45 133.034 214.326 133.636 214.204 134.135C214.081 134.634 213.927 135.29 213.86 135.593C213.543 137.028 213.467 137.36 213.352 137.8C213.285 138.06 213.223 138.326 213.215 138.391C213.19 138.602 213.009 139.449 212.937 139.692C212.898 139.822 212.775 140.319 212.662 140.795C212.55 141.272 212.352 142 212.225 142.411C212.097 142.823 211.971 143.302 211.946 143.476C211.921 143.649 211.879 143.862 211.854 143.949C211.829 144.036 211.798 144.177 211.787 144.264C211.774 144.351 211.67 144.701 211.554 145.043C211.437 145.385 211.331 145.74 211.317 145.831C211.304 145.922 211.144 146.441 210.961 146.983C210.779 147.525 210.474 148.434 210.282 149.003C210.091 149.573 209.935 150.096 209.935 150.167C209.935 150.238 209.757 150.692 209.539 151.176C209.322 151.66 209.144 152.12 209.144 152.198C209.144 152.346 208.701 153.507 208.593 153.644C208.559 153.687 208.441 154.006 208.33 154.353C208.22 154.7 208.042 155.161 207.936 155.378C207.83 155.594 207.67 155.985 207.58 156.245C207.49 156.505 207.287 157.019 207.128 157.388C206.968 157.756 206.697 158.395 206.524 158.806C206.261 159.437 205.564 160.913 205.335 161.329C205.299 161.395 205.027 161.926 204.73 162.511C204.434 163.097 204.007 163.874 203.782 164.239C203.557 164.603 203.372 164.944 203.372 164.995C203.372 165.047 203.264 165.24 203.128 165.425C202.994 165.61 202.804 165.908 202.707 166.087C202.609 166.266 202.423 166.59 202.293 166.807C202.162 167.024 202.053 167.219 202.049 167.24C202.029 167.365 201.836 167.714 201.787 167.714C201.755 167.714 201.709 167.796 201.683 167.898C201.658 167.999 201.531 168.214 201.402 168.376C201.273 168.539 201.015 168.972 200.828 169.34C200.642 169.708 200.435 170.069 200.368 170.143C200.303 170.216 200.126 170.47 199.978 170.709C199.83 170.947 199.519 171.435 199.288 171.792C199.056 172.149 198.866 172.474 198.866 172.514C198.866 172.554 198.835 172.599 198.795 172.614C198.756 172.628 198.503 172.995 198.231 173.429C197.96 173.862 197.578 174.412 197.383 174.65C197.188 174.889 196.991 175.164 196.946 175.261C196.9 175.359 196.834 175.439 196.798 175.439C196.761 175.439 196.732 175.477 196.732 175.522C196.732 175.619 196.145 176.464 195.653 177.074C195.469 177.303 195.296 177.56 195.268 177.646C195.241 177.732 195.185 177.802 195.146 177.802C195.105 177.802 195.071 177.841 195.071 177.887C195.071 177.935 194.864 178.244 194.612 178.577C194.359 178.909 193.944 179.465 193.689 179.811C193.114 180.593 192.171 181.711 191.281 182.666C190.909 183.065 190.455 183.561 190.273 183.769C188.602 185.676 186.794 187.506 185.079 189.025C184.78 189.29 184.424 189.612 184.289 189.74C184.153 189.868 183.793 190.186 183.489 190.447C183.184 190.707 182.686 191.164 182.382 191.462C182.077 191.761 181.624 192.166 181.374 192.363C181.123 192.561 180.919 192.754 180.919 192.792C180.919 192.831 180.847 192.888 180.759 192.921C180.672 192.952 180.36 193.21 180.067 193.491C179.775 193.773 179.34 194.16 179.101 194.353C178.861 194.545 178.376 194.961 178.022 195.277C177.667 195.593 177.362 195.852 177.342 195.852C177.323 195.852 177.186 195.956 177.038 196.083C176.889 196.21 176.464 196.574 176.092 196.892C175.72 197.21 175.222 197.591 174.985 197.738C174.748 197.884 174.424 198.091 174.263 198.197C174.103 198.303 173.868 198.448 173.741 198.519C173.614 198.591 173.14 198.874 172.688 199.147C172.236 199.421 171.796 199.687 171.71 199.739C171.371 199.942 170.08 200.837 169.975 200.941C169.689 201.227 165.6 203.156 165.409 203.096C165.395 203.096 165.223 203.024 165.028 202.946L165.031 202.947Z" fill="#F48128"/>
<path d="M159.748 87.8632C144.325 90.7128 131.679 102.803 128.457 118.508C127.85 121.465 127.74 122.68 127.74 126.432C127.74 130.184 127.85 131.398 128.457 134.355C132.053 151.882 147.451 164.962 165.265 165.624C172.327 165.886 178.597 164.552 184.715 161.486C193.303 157.181 199.925 149.963 203.482 141.275L202.288 141.247L200.837 141.224C200.038 141.211 198.571 141.175 197.575 141.143L195.765 141.087L195.359 141.827C191.885 148.158 186.326 153.187 179.699 155.995C176.945 157.161 174.222 157.895 171.038 158.329C169.997 158.47 165.675 158.59 164.697 158.504C160 158.091 156.169 157.003 152.161 154.945C148.963 153.302 146.498 151.467 143.868 148.771C141.455 146.298 139.731 143.882 138.204 140.833C134.715 133.867 133.875 126.05 135.796 118.43C136.97 113.773 139.309 109.29 142.556 105.476C144.082 103.683 146.708 101.336 148.75 99.9382C151.299 98.1926 154.408 96.6817 157.339 95.7647C157.951 95.5733 158.451 95.386 158.451 95.3489C158.451 95.2278 159.598 89.0687 159.626 89.041L159.748 87.8632Z" fill="white"/>
<path d="M181.698 140.734L181.094 141.273C178.601 143.496 176.445 144.796 173.688 145.741C171.666 146.435 169.911 146.753 167.679 146.829C165.876 146.891 164.612 146.788 162.831 146.431C160.358 145.937 157.708 144.83 155.631 143.449L148.4 149.762C149.041 150.258 149.847 150.851 150.425 151.233C154.513 153.938 159.291 155.626 164.184 156.095V156.094C165.606 156.23 168.576 156.211 170.058 156.056C176.96 155.333 183.267 152.328 188.17 147.427C189.929 145.668 191.186 144.083 192.49 141.98L193.093 141.008H192.311C191.881 141.008 189.317 140.945 186.614 140.871L181.698 140.734Z" fill="white"/>
<path d="M145.142 146.579C144.38 145.662 143.048 144.026 142.181 142.944C140.863 141.298 140.6 140.976 140.6 140.976L154.44 129.771L160.544 137.472L146.572 148.184C146.572 148.184 146.503 148.217 145.142 146.579Z" fill="white"/>
<path d="M157.935 98.0054C157.836 97.8912 154.7 99.1743 153.293 99.9047C144.29 104.58 138.469 113.034 137.237 123.223C137.055 124.721 137.082 128.473 137.284 130.017C137.685 133.065 138.505 135.976 139.709 138.649L147.464 132.697C146.251 128.982 146.139 125.069 147.14 121.241C148.375 116.516 151.202 112.458 155.212 109.654C155.591 109.389 155.923 109.085 155.948 108.979C156.044 108.578 157.955 98.0279 157.935 98.0054Z" fill="white"/>
<path d="M191.678 130.852C189.156 130.78 187.086 130.711 187.077 130.699C187.068 130.688 187.139 130.232 187.235 129.687C187.624 127.484 187.566 124.663 187.081 122.28C186.762 120.71 185.918 118.175 185.714 118.175C183.237 120.092 181.16 121.564 178.571 123.651C178.504 123.704 177.496 122.427 175.337 119.776C173.52 117.545 171.966 115.636 171.952 115.595C171.934 115.539 178.331 110.368 178.935 109.941C179.074 109.843 178.771 109.612 177.522 108.863C174.69 107.162 171.662 106.231 168.22 106.001C167.519 105.954 166.929 105.9 166.909 105.88C166.858 105.828 168.534 96.7679 168.609 96.693C168.706 96.5962 170.93 96.8335 172.364 97.0935C175.175 97.6033 177.583 98.405 180.267 99.7248C187.294 103.181 192.69 109.288 195.254 116.69C196.467 120.191 196.957 123.46 196.842 127.276C196.768 129.69 196.619 130.953 196.404 130.971C196.326 130.978 194.199 130.924 191.678 130.852Z" fill="white"/>
<path d="M166.828 109.688C157.683 109.688 150.182 117.167 150.182 126.284C150.182 135.402 157.683 142.88 166.828 142.88C175.973 142.88 183.475 135.402 183.475 126.284C183.475 117.167 175.973 109.688 166.828 109.688ZM166.828 117.832C171.559 117.832 175.306 121.568 175.306 126.284C175.306 131.001 171.559 134.737 166.828 134.737C162.097 134.737 158.35 131.001 158.35 126.284C158.35 121.568 162.097 117.832 166.828 117.832Z" fill="white"/>
<path d="M115.471 179.814C117.326 185.668 119.756 191.277 122.581 196.57C134.133 193.565 145.918 191.752 157.737 191.167C163.02 190.906 168.31 190.89 173.589 191.123C185.398 191.644 197.153 193.41 208.655 196.458C211.49 191.186 213.946 185.596 215.827 179.76C200.539 175.372 184.859 173.079 169.158 172.811C166.804 172.771 164.45 172.777 162.097 172.828C146.398 173.165 130.733 175.517 115.471 179.814ZM106.934 190.356C109.416 192.334 111.845 194.362 114.218 196.437C113.057 199.608 111.965 202.787 110.942 205.972C114.714 204.674 118.521 203.51 122.356 202.481C119.586 197.836 117.083 192.923 114.981 187.79C112.284 188.583 109.601 189.439 106.934 190.356ZM216.284 187.732C214.156 192.844 211.631 197.738 208.855 202.362C212.665 203.408 216.444 204.6 220.185 205.939C219.198 202.743 218.135 199.555 216.998 196.378C219.379 194.323 221.82 192.319 224.322 190.368C221.658 189.421 218.978 188.543 216.284 187.732Z" fill="white"/>
<path fill-rule="evenodd" clip-rule="evenodd" d="M165.659 189.562C131.633 190.415 114.746 196.72 114.746 196.72L116.195 201.884C116.195 201.884 132.195 195.829 165.76 194.988C199.226 194.15 214.931 201.758 214.931 201.758L216.724 196.742C216.724 196.742 199.783 188.707 165.659 189.562Z" fill="#F48128"/>
<path d="M115.471 179.814C117.326 185.668 119.756 191.277 122.581 196.57C134.133 193.565 145.918 191.752 157.737 191.167C163.02 190.906 168.31 190.89 173.589 191.123C185.398 191.644 197.153 193.41 208.655 196.458C211.49 191.186 213.946 185.596 215.827 179.76C200.539 175.372 184.859 173.079 169.158 172.811C166.804 172.771 164.45 172.777 162.097 172.828C146.398 173.165 130.733 175.517 115.471 179.814ZM106.934 190.356C109.416 192.334 111.845 194.362 114.218 196.437C113.057 199.608 111.965 202.787 110.942 205.972C114.714 204.674 118.521 203.51 122.356 202.481C119.586 197.836 117.083 192.923 114.981 187.79C112.284 188.583 109.601 189.439 106.934 190.356ZM216.284 187.732C214.156 192.844 211.631 197.738 208.855 202.362C212.665 203.408 216.444 204.6 220.185 205.939C219.198 202.743 218.135 199.555 216.998 196.378C219.379 194.323 221.82 192.319 224.322 190.368C221.658 189.421 218.978 188.543 216.284 187.732Z" fill="white"/>
<path fill-rule="evenodd" clip-rule="evenodd" d="M166.207 171.261C132.273 172.112 114.219 178.411 114.219 178.411L115.032 181.528C115.032 181.528 132.61 175.361 166.267 174.518C199.865 173.676 215.817 181.369 215.817 181.369L216.892 178.36C216.892 178.36 200.199 170.41 166.207 171.261Z" fill="#F48128"/>
<path d="M160.675 176.943C159.401 176.983 158.477 177.461 157.916 178.354C157.353 179.245 157.134 180.593 157.24 182.407C157.34 184.143 157.718 185.442 158.348 186.3C158.985 187.16 159.869 187.564 161.016 187.527C162.199 187.489 163.065 187.045 163.627 186.174C164.192 185.306 164.479 183.971 164.468 182.176C164.456 180.438 164.141 179.125 163.497 178.23C162.86 177.338 161.914 176.903 160.675 176.943ZM170.449 176.954C169.177 176.912 168.225 177.327 167.606 178.181C166.985 179.033 166.676 180.364 166.66 182.181C166.645 183.92 166.934 185.241 167.506 186.14C168.085 187.04 168.942 187.503 170.09 187.541C171.276 187.582 172.17 187.194 172.789 186.361C173.41 185.531 173.784 184.217 173.89 182.424C173.991 180.69 173.761 179.358 173.178 178.424C172.601 177.492 171.687 176.996 170.449 176.954ZM151.028 177.593C150.521 177.643 150.066 177.741 149.668 177.884C149.269 178.022 148.909 178.2 148.585 178.418C148.262 178.635 147.865 178.99 147.4 179.484C147.864 179.896 148.324 180.31 148.78 180.726C149.155 180.341 149.526 180.037 149.89 179.813C150.254 179.589 150.641 179.458 151.05 179.417C151.44 179.378 151.761 179.448 152.01 179.626C152.265 179.805 152.41 180.1 152.448 180.511C152.473 180.786 152.447 181.059 152.367 181.326C152.287 181.592 152.142 181.888 151.936 182.214C151.725 182.543 151.284 183.115 150.604 183.983C149.844 184.94 149.101 185.905 148.377 186.875L148.569 188.376C150.868 188.083 153.175 187.852 155.489 187.682L155.354 185.856C153.892 185.963 152.432 186.095 150.974 186.251L150.963 186.153C151.349 185.694 151.74 185.237 152.135 184.782C152.93 183.89 153.483 183.228 153.797 182.76C154.113 182.296 154.34 181.854 154.474 181.429C154.613 181 154.666 180.548 154.63 180.076C154.588 179.533 154.412 179.062 154.098 178.663C153.784 178.264 153.361 177.969 152.829 177.78C152.298 177.591 151.696 177.526 151.028 177.593ZM180.307 177.618C179.801 177.568 179.338 177.575 178.921 177.638C178.504 177.694 178.117 177.798 177.758 177.947C177.399 178.097 176.941 178.366 176.388 178.759C176.759 179.254 177.126 179.751 177.49 180.249C177.933 179.946 178.356 179.72 178.757 179.572C179.157 179.424 179.561 179.372 179.969 179.412C180.359 179.45 180.658 179.581 180.867 179.805C181.082 180.03 181.166 180.347 181.122 180.758C181.093 181.033 181.015 181.296 180.883 181.541C180.751 181.787 180.552 182.049 180.286 182.329C180.015 182.609 179.468 183.086 178.63 183.802C177.694 184.591 176.773 185.39 175.866 186.196L175.755 187.706C178.077 187.877 180.396 188.103 182.708 188.384L182.931 186.566C181.471 186.389 180.009 186.233 178.545 186.099L178.557 186C179.028 185.626 179.502 185.254 179.98 184.885C180.936 184.167 181.609 183.624 182.008 183.226C182.409 182.832 182.718 182.442 182.932 182.052C183.151 181.657 183.291 181.224 183.348 180.754C183.413 180.213 183.333 179.717 183.104 179.264C182.874 178.812 182.517 178.441 182.034 178.152C181.551 177.863 180.976 177.683 180.31 177.618L180.307 177.618ZM160.731 178.704C161.249 178.688 161.631 178.955 161.875 179.503C162.124 180.047 162.26 180.947 162.288 182.21C162.315 183.457 162.222 184.362 162.014 184.919C161.805 185.478 161.455 185.764 160.959 185.78C160.454 185.796 160.083 185.54 159.844 185.005C159.609 184.466 159.462 183.562 159.409 182.302C159.356 181.04 159.428 180.134 159.632 179.575C159.836 179.013 160.204 178.721 160.731 178.704ZM170.389 178.716C170.906 178.733 171.269 179.025 171.477 179.588C171.69 180.147 171.766 181.055 171.711 182.317C171.657 183.563 171.504 184.46 171.26 185.003C171.015 185.547 170.646 185.81 170.15 185.793C169.644 185.776 169.29 185.496 169.087 184.946C168.888 184.392 168.804 183.481 168.834 182.22C168.864 180.957 168.995 180.057 169.236 179.513C169.476 178.965 169.862 178.698 170.389 178.716Z" fill="#F48128" stroke="#F48128" stroke-width="1.21824" stroke-linecap="round" stroke-linejoin="round"/>
<path fill-rule="evenodd" clip-rule="evenodd" d="M161.707 247.88C161.707 247.88 160.44 249.594 159.854 251.025C159.367 252.216 158.925 253.787 158.831 254.745C158.736 255.702 158.721 257.358 158.816 257.75C158.91 258.143 160.421 258.276 160.421 258.276L162.137 251.622L161.707 247.88Z" fill="white"/>
<g opacity="0.96">
<path d="M155.759 240.612C155.435 240.606 155.111 240.607 154.787 240.614C154.492 240.64 154.2 240.663 153.922 240.678C153.38 240.706 152.802 240.721 152.226 240.739C151.986 240.753 151.746 240.764 151.505 240.768L150.914 242.929C151.996 242.914 153.05 242.887 154.033 242.836C156.245 242.721 158.829 242.296 161.428 241.746C161.267 241.683 161.106 241.614 160.943 241.556C159.586 241.073 158.167 240.769 156.73 240.659C156.407 240.634 156.083 240.619 155.759 240.612Z" fill="white" stroke="white" stroke-width="1.29589" stroke-linecap="square" stroke-linejoin="bevel"/>
<path d="M157.148 240.318C166.201 241.254 172.812 249.345 171.916 258.365L168.945 258.058C169.675 250.637 164.289 244.048 156.84 243.278C156.225 243.214 155.618 243.208 155.016 243.225L154.991 243.211C153.999 243.227 153.006 243.236 152.014 243.239C150.071 243.245 148.129 243.227 146.186 243.27C146.08 243.273 145.974 243.281 145.867 243.284C149.033 241.042 152.993 239.889 157.148 240.318Z" fill="white"/>
<path d="M249.09 179.804C248.804 182.191 248.458 184.503 248.133 186.461C247.281 191.61 243.145 199.901 240.053 206.217C237.055 212.345 233.098 216.149 230.161 219.842C227.495 223.196 221.602 227.425 216.549 230.583C211.534 233.718 206.124 236.196 198.691 238.364C192.473 240.178 185.715 240.66 180.165 240.577C179.776 240.596 179.383 240.575 178.993 240.551C178.417 240.534 177.84 240.518 177.297 240.49C177.019 240.476 176.727 240.452 176.432 240.426C175.783 240.413 175.135 240.42 174.489 240.47C173.052 240.58 171.633 240.886 170.276 241.369C170.113 241.427 169.952 241.496 169.791 241.559C172.39 242.109 174.974 242.532 177.186 242.647C183.318 242.965 191.61 242.681 199.301 240.438C206.891 238.224 212.527 235.648 217.703 232.413C222.841 229.201 228.801 225.033 231.863 221.183C234.654 217.672 238.83 213.646 242.002 207.163C245.082 200.87 249.305 192.666 250.275 186.811C250.615 184.754 250.991 182.327 251.294 179.804L249.09 179.804Z" fill="white" stroke="white" stroke-width="1.29589" stroke-linecap="square" stroke-linejoin="bevel"/>
<path d="M194.997 250.985L192.034 250.146L189.568 249.449L189.071 249.308L188.946 249.719L187.388 255.219L190.351 256.057L193.315 256.896L194.156 253.941L194.997 250.985ZM188.945 249.719C189.034 249.405 188.984 249.58 189.064 249.303L189.054 249.296C188.91 249.801 188.93 249.73 188.755 250.346L188.945 249.718L188.945 249.719ZM188.739 250.404L188.439 251.391L186.107 250.731C183.982 250.13 183.758 250.055 183.577 249.884C183.381 249.7 182.199 247.597 180.364 244.171L179.423 242.417L179.409 242.381C177.824 241.932 177.149 241.735 175.474 241.261L175.457 241.322C176.123 241.529 176.56 241.673 176.619 241.71C176.736 241.786 176.891 241.92 176.964 242.011C177.039 242.1 178.106 243.985 179.337 246.196C181.555 250.178 181.864 250.683 182.358 251.142C182.907 251.651 183.086 251.724 185.576 252.474L187.929 253.184L187.659 254.201L188.741 250.403L188.739 250.404Z" fill="white" stroke="white" stroke-width="1.29589" stroke-linecap="square" stroke-linejoin="bevel"/>
<path d="M215.156 244.844L212.091 244.801L209.541 244.766L209.027 244.759L209.013 245.186L208.941 250.873L212.005 250.915L215.07 250.957L215.113 247.901L215.156 244.844ZM209.013 245.186C209.022 244.862 209.013 245.042 209.022 244.756L209.011 244.75C209.001 245.274 209.002 245.2 208.995 245.837L209.015 245.184L209.013 245.186ZM208.991 245.897L208.959 246.923L206.547 246.89C204.349 246.86 204.115 246.845 203.896 246.728C203.66 246.601 201.979 244.885 199.328 242.066L197.969 240.622L197.945 240.592C196.306 240.569 195.606 240.553 193.873 240.529V240.592C194.566 240.62 195.024 240.646 195.09 240.667C195.222 240.709 195.406 240.798 195.5 240.866C195.594 240.934 197.109 242.469 198.865 244.277C202.028 247.532 202.456 247.938 203.049 248.251C203.709 248.599 203.899 248.624 206.487 248.703L208.932 248.778L208.942 249.826L208.996 245.897L208.991 245.897Z" fill="white"/>
<path d="M209.013 245.186L209.027 244.759L209.541 244.766L212.091 244.801L215.156 244.844L215.113 247.901L215.07 250.957L212.005 250.915L208.941 250.873L209.013 245.186ZM209.013 245.186C209.022 244.862 209.013 245.042 209.022 244.756L209.011 244.75C209.001 245.274 209.002 245.2 208.995 245.837L209.015 245.184L209.013 245.186ZM208.991 245.897L208.959 246.923L206.547 246.89C204.349 246.86 204.115 246.845 203.896 246.728C203.66 246.601 201.979 244.885 199.328 242.066L197.969 240.622L197.945 240.592C196.306 240.569 195.606 240.553 193.873 240.529V240.592C194.566 240.62 195.024 240.646 195.09 240.667C195.222 240.709 195.406 240.798 195.5 240.866C195.594 240.934 197.109 242.469 198.865 244.277C202.028 247.532 202.456 247.938 203.049 248.251C203.709 248.599 203.899 248.624 206.487 248.703L208.932 248.778L208.942 249.826L208.996 245.897L208.991 245.897Z" stroke="white" stroke-width="1.29589" stroke-linecap="square" stroke-linejoin="bevel"/>
<path d="M232.175 232.139L229.585 232.795L227.43 233.341L226.996 233.451L227.082 233.814L228.313 238.617L230.903 237.961L233.492 237.305L232.834 234.722L232.175 232.139ZM227.081 233.814C227.011 233.54 227.05 233.693 226.988 233.451L226.978 233.449C227.091 233.891 227.074 233.829 227.212 234.367L227.08 233.813L227.081 233.814ZM227.225 234.417L227.431 235.288L225.393 235.805C223.535 236.275 223.335 236.316 223.124 236.267C222.897 236.213 221.092 235.148 218.22 233.373L216.748 232.464L216.721 232.444C215.336 232.795 214.743 232.94 213.279 233.311L213.294 233.364C213.884 233.23 214.275 233.149 214.335 233.151C214.456 233.157 214.632 233.191 214.726 233.227C214.821 233.262 216.444 234.214 218.333 235.339C221.736 237.365 222.188 237.61 222.758 237.74C223.393 237.884 223.558 237.862 225.755 237.344L227.83 236.856L228.072 237.737L227.226 234.417L227.225 234.417Z" fill="white" stroke="white" stroke-width="1.29589" stroke-linecap="square" stroke-linejoin="bevel"/>
<path d="M247.031 213.018L244.947 214.543L243.213 215.812L242.863 216.068L243.072 216.362L245.923 220.226L248.007 218.701L250.091 217.176L248.562 215.098L247.031 213.018ZM243.071 216.363C242.909 216.142 242.999 216.265 242.856 216.07L242.846 216.072C243.108 216.428 243.071 216.378 243.39 216.811L243.07 216.361L243.071 216.363ZM243.42 216.851L243.921 217.558L242.281 218.758C240.786 219.852 240.621 219.961 240.414 219.993C240.191 220.027 238.185 219.724 234.962 219.17L233.312 218.887L233.28 218.879C232.166 219.694 231.686 220.039 230.508 220.901L230.539 220.944C231.02 220.611 231.341 220.396 231.396 220.377C231.506 220.338 231.676 220.305 231.774 220.303C231.872 220.301 233.674 220.567 235.778 220.894C239.567 221.481 240.061 221.538 240.62 221.448C241.241 221.347 241.382 221.268 243.164 220.01L244.848 218.821L245.386 219.524L243.419 216.852L243.42 216.851Z" fill="white" stroke="white" stroke-width="1.29589" stroke-linecap="square" stroke-linejoin="bevel"/>
<path d="M256.682 192.393L254.984 194.366L253.57 196.007L253.286 196.338L253.558 196.58L257.245 199.726L258.943 197.753L260.641 195.78L258.661 194.087L256.682 192.393ZM253.558 196.58C253.348 196.4 253.464 196.5 253.279 196.342L253.269 196.345C253.608 196.635 253.56 196.595 253.973 196.948L253.556 196.579L253.558 196.58ZM254.012 196.981L254.667 197.562L253.331 199.114C252.112 200.529 251.975 200.674 251.779 200.752C251.568 200.837 249.527 200.996 246.235 201.186L244.549 201.284L244.516 201.283C243.608 202.338 243.216 202.785 242.256 203.9L242.296 203.935C242.692 203.499 242.959 203.215 243.008 203.183C243.108 203.12 243.267 203.049 243.363 203.025C243.458 203 245.289 202.851 247.431 202.692C251.288 202.407 251.787 202.35 252.315 202.134C252.903 201.894 253.023 201.783 254.485 200.142L255.867 198.59L256.556 199.158L254.012 196.981Z" fill="white"/>
<path d="M253.558 196.58L253.286 196.338L253.57 196.007L254.984 194.366L256.682 192.393L258.661 194.087L260.641 195.78L258.943 197.753L257.245 199.726L253.558 196.58ZM253.558 196.58C253.348 196.4 253.464 196.5 253.279 196.342L253.269 196.345C253.608 196.635 253.56 196.595 253.973 196.948L253.556 196.579L253.558 196.58ZM254.012 196.981L254.667 197.562L253.331 199.114C252.112 200.529 251.975 200.674 251.779 200.752C251.568 200.837 249.527 200.996 246.235 201.186L244.549 201.284L244.516 201.283C243.608 202.338 243.216 202.785 242.256 203.9L242.296 203.935C242.692 203.499 242.959 203.215 243.008 203.183C243.108 203.12 243.267 203.049 243.363 203.025C243.458 203 245.289 202.851 247.431 202.692C251.288 202.407 251.787 202.35 252.315 202.134C252.903 201.894 253.023 201.783 254.485 200.142L255.867 198.59L256.556 199.158L254.012 196.981Z" stroke="white" stroke-width="1.29589" stroke-linecap="square" stroke-linejoin="bevel"/>
<path d="M197.46 225.867C197.351 225.842 197.24 225.825 197.128 225.814C196.831 225.784 196.525 225.803 196.223 225.875C194.918 226.188 193.987 227.377 194.043 228.661L194.06 229.073L192.218 230.093C191.059 230.735 190.284 231.194 190.13 231.331C189.726 231.692 189.303 232.301 189.087 232.831C188.975 233.106 188.352 235.011 187.701 237.067C186.93 239.503 186.532 240.695 186.254 241.328L186.869 241.482L188.145 240.802L188.558 240.143L188.478 240.128L188.441 240.122V240.103L188.698 239.865C188.811 239.437 189.254 237.917 189.751 236.255C190.52 233.686 190.74 233.028 190.89 232.872C191.024 232.733 191.602 232.39 192.953 231.651L194.829 230.624L195.182 230.891C195.63 231.23 196.434 231.479 196.987 231.45C197.891 231.402 198.642 230.983 199.187 230.224C199.713 229.491 199.841 228.554 199.537 227.688C199.477 227.519 199.403 227.359 199.315 227.209L199.316 227.21C198.912 226.52 198.23 226.036 197.467 225.866L197.46 225.867ZM188.68 239.905L188.465 240.104L188.481 240.109L188.569 240.125L188.658 239.984C188.667 239.957 188.676 239.919 188.679 239.907L188.68 239.905ZM189.101 240.277C189.121 240.255 188.954 240.334 188.556 240.545L188.52 240.602C188.873 240.418 189.081 240.298 189.101 240.277Z" fill="white" stroke="white" stroke-width="1.29589" stroke-linecap="square" stroke-linejoin="bevel"/>
<path d="M211.825 221.141C211.717 221.135 211.608 221.137 211.5 221.145C211.21 221.167 210.922 221.235 210.645 221.354C209.45 221.87 208.758 223.161 209.026 224.379L209.111 224.77L207.52 226.051C206.52 226.857 205.856 227.424 205.732 227.581C205.406 227.992 205.103 228.645 204.986 229.188C204.925 229.469 204.647 231.394 204.368 233.466C204.038 235.923 203.858 237.128 203.697 237.779L204.311 237.825L205.417 236.962L205.702 236.264L205.623 236.264L205.587 236.264L205.576 236.247L205.782 235.977C205.819 235.55 205.988 234.022 206.185 232.352C206.491 229.768 206.592 229.103 206.709 228.929C206.813 228.774 207.309 228.35 208.476 227.42L210.098 226.126L210.48 226.323C210.965 226.573 211.775 226.677 212.298 226.557C213.154 226.361 213.802 225.837 214.196 225.02C214.576 224.232 214.543 223.315 214.107 222.538C214.021 222.387 213.924 222.246 213.815 222.117L213.816 222.119C213.314 221.526 212.583 221.176 211.825 221.141ZM205.779 236.016L205.607 236.243L205.621 236.244L205.71 236.245L205.771 236.095C205.78 236.068 205.78 236.03 205.78 236.018L205.779 236.016ZM206.243 236.302C206.258 236.278 206.112 236.381 205.767 236.648L205.743 236.709C206.05 236.474 206.227 236.325 206.243 236.302Z" fill="white" stroke="white" stroke-width="1.29589" stroke-linecap="square" stroke-linejoin="bevel"/>
<path d="M225.292 210.47C225.195 210.497 225.1 210.529 225.007 210.567C224.758 210.669 224.524 210.811 224.316 210.995C223.413 211.788 223.176 213.121 223.761 214.114L223.947 214.433L222.918 216.013C222.27 217.006 221.85 217.694 221.785 217.867C221.617 218.322 221.538 218.982 221.59 219.492C221.618 219.756 221.926 221.527 222.276 223.428C222.69 225.681 222.878 226.791 222.924 227.409L223.476 227.274L224.2 226.201L224.25 225.506L224.18 225.528L224.148 225.539L224.137 225.525L224.241 225.229C224.151 224.843 223.861 223.453 223.555 221.929C223.082 219.571 222.98 218.958 223.033 218.772C223.08 218.605 223.394 218.092 224.153 216.941L225.207 215.342L225.599 215.406C226.097 215.487 226.839 215.348 227.264 215.094C227.96 214.677 228.379 214.031 228.491 213.201C228.599 212.401 228.306 211.604 227.7 211.046C227.582 210.937 227.456 210.841 227.323 210.759C226.713 210.381 225.969 210.283 225.293 210.468L225.292 210.47ZM224.247 225.266L224.16 225.514L224.175 225.511L224.252 225.487L224.263 225.338C224.263 225.313 224.248 225.279 224.247 225.268V225.266ZM224.737 225.384C224.746 225.359 224.644 225.491 224.418 225.825V225.885C224.62 225.591 224.734 225.409 224.741 225.384L224.737 225.384Z" fill="white" stroke="white" stroke-width="1.29589" stroke-linecap="square" stroke-linejoin="bevel"/>
<path d="M234.873 194.384C234.787 194.438 234.704 194.498 234.624 194.562C234.413 194.733 234.227 194.941 234.078 195.181C233.435 196.219 233.599 197.586 234.462 198.381L234.738 198.637L234.204 200.477C233.867 201.635 233.662 202.429 233.651 202.616C233.622 203.108 233.741 203.774 233.942 204.255C234.047 204.504 234.872 206.137 235.776 207.884C236.847 209.955 237.357 210.981 237.585 211.569L238.083 211.275L238.47 210.017L238.313 209.325L238.251 209.368L238.221 209.387L238.206 209.379L238.219 209.06C238.017 208.711 237.323 207.443 236.574 206.05C235.415 203.894 235.134 203.327 235.13 203.13C235.13 202.955 235.281 202.362 235.679 201.019L236.231 199.152L236.631 199.099C237.14 199.031 237.821 198.677 238.159 198.304C238.713 197.694 238.93 196.942 238.793 196.101C238.661 195.29 238.141 194.601 237.385 194.236C237.238 194.165 237.087 194.109 236.933 194.068L236.933 194.07C236.227 193.882 235.474 194.005 234.871 194.385L234.873 194.384ZM238.239 209.094L238.228 209.36L238.241 209.353L238.308 209.306L238.274 209.158C238.262 209.137 238.245 209.105 238.239 209.095L238.238 209.092L238.239 209.094ZM238.751 209.064C238.751 209.038 238.692 209.196 238.57 209.587L238.586 209.646C238.696 209.301 238.753 209.091 238.753 209.064L238.751 209.064Z" fill="white" stroke="white" stroke-width="1.29589" stroke-linecap="square" stroke-linejoin="bevel"/>
<path d="M246.054 179.964L250.877 173.189L254.351 180.741L246.054 179.964Z" fill="white" stroke="white" stroke-width="1.29589" stroke-linecap="square" stroke-linejoin="bevel"/>
<path d="M175.623 240.042C175.111 240.048 174.594 240.077 174.075 240.131H174.073C171.803 240.366 169.578 241.076 167.696 242.112C168.022 242.351 168.338 242.603 168.637 242.875C169.115 243.308 169.555 243.781 169.954 244.288L169.958 244.302C171.384 243.805 172.842 243.25 174.382 243.091C174.997 243.027 175.604 243.019 176.206 243.037L176.23 243.024C177.223 243.04 178.215 243.048 179.208 243.051C181.15 243.058 183.094 243.038 185.036 243.082C185.142 243.085 185.248 243.094 185.355 243.096C182.585 241.135 179.208 240.006 175.623 240.042ZM165.494 243.629C164.705 244.256 163.976 244.951 163.316 245.706C163.675 245.965 164.023 246.242 164.357 246.532C164.768 246.89 165.159 247.271 165.527 247.672L165.517 247.703C166.173 246.946 166.921 246.272 167.732 245.673L167.712 245.67C167.304 245.258 166.885 244.858 166.456 244.469C166.141 244.183 165.82 243.903 165.494 243.629ZM161.706 247.88C159.857 250.857 158.934 254.437 159.306 258.178L162.276 257.87C161.983 254.894 162.688 252.06 164.101 249.674L164.088 249.665C163.705 249.3 163.3 248.958 162.875 248.644C162.5 248.368 162.11 248.113 161.706 247.88Z" fill="white"/>
<path d="M167.553 250.388C167.903 251.1 168.197 251.839 168.422 252.6C168.657 253.397 168.822 254.215 168.917 255.041C169.004 255.801 169.031 256.581 168.822 257.317C168.821 257.321 168.819 257.324 168.818 257.327C168.529 258.838 167.221 259.956 165.613 259.956C164.005 259.956 162.695 258.838 162.407 257.327C162.406 257.323 162.404 257.32 162.403 257.317C162.193 256.581 162.222 255.801 162.309 255.041C162.405 254.215 162.568 253.397 162.803 252.6C163.027 251.84 163.32 251.101 163.67 250.39C160.97 251.225 158.988 253.746 158.988 256.7C158.988 260.327 161.975 263.301 165.613 263.301C169.251 263.301 172.235 260.327 172.235 256.7C172.235 253.745 170.255 251.222 167.553 250.388Z" fill="white"/>
<path d="M81.9096 180.055C82.1959 182.442 82.5424 184.754 82.8666 186.712C83.7193 191.861 87.8553 200.151 90.9466 206.468C93.9452 212.596 97.9018 216.4 100.839 220.093C103.505 223.447 109.398 227.676 114.451 230.834C119.466 233.969 124.876 236.447 132.309 238.615C138.527 240.429 145.285 240.911 150.835 240.828C151.224 240.847 151.617 240.826 152.007 240.802C152.583 240.785 153.16 240.769 153.703 240.741C153.981 240.727 154.273 240.703 154.568 240.677C155.217 240.664 155.865 240.671 156.511 240.721C157.948 240.831 159.367 241.137 160.724 241.62C160.887 241.678 161.048 241.747 161.209 241.81C158.61 242.36 156.026 242.783 153.814 242.898C147.682 243.216 139.39 242.932 131.699 240.689C124.109 238.475 118.473 235.899 113.297 232.664C108.159 229.452 102.199 225.284 99.1373 221.434C96.3462 217.923 92.1702 213.897 88.9976 207.414C85.9178 201.121 81.6949 192.917 80.7254 187.062C80.3848 185.005 80.0088 182.578 79.7057 180.055L81.9096 180.055Z" fill="white" stroke="white" stroke-width="1.29589" stroke-linecap="square" stroke-linejoin="bevel"/>
<path d="M136.003 251.236L138.966 250.397L141.432 249.7L141.929 249.559L142.054 249.971L143.612 255.47L140.649 256.309L137.685 257.147L136.844 254.192L136.003 251.236ZM142.055 249.97C141.966 249.656 142.016 249.831 141.936 249.554L141.946 249.547C142.09 250.052 142.07 249.982 142.245 250.598L142.055 249.969L142.055 249.97ZM142.261 250.655L142.561 251.642L144.893 250.982C147.018 250.381 147.242 250.306 147.423 250.135C147.619 249.951 148.801 247.848 150.636 244.422L151.577 242.668L151.591 242.632C153.176 242.184 153.851 241.986 155.526 241.512L155.543 241.573C154.877 241.78 154.44 241.924 154.381 241.961C154.264 242.037 154.109 242.171 154.036 242.262C153.961 242.352 152.894 244.236 151.663 246.447C149.445 250.429 149.136 250.934 148.642 251.393C148.093 251.902 147.914 251.976 145.424 252.726L143.071 253.435L143.341 254.453L142.259 250.654L142.261 250.655Z" fill="white" stroke="white" stroke-width="1.29589" stroke-linecap="square" stroke-linejoin="bevel"/>
<path d="M115.844 245.095L118.909 245.052L121.459 245.017L121.973 245.01L121.987 245.437L122.059 251.124L118.995 251.166L115.93 251.208L115.887 248.152L115.844 245.095ZM121.987 245.437C121.978 245.113 121.987 245.293 121.978 245.007L121.989 245.001C121.999 245.525 121.998 245.451 122.005 246.088L121.985 245.435L121.987 245.437ZM122.009 246.148L122.041 247.174L124.453 247.141C126.651 247.111 126.885 247.096 127.104 246.979C127.34 246.852 129.021 245.136 131.672 242.317L133.031 240.873L133.055 240.843C134.694 240.82 135.394 240.804 137.127 240.78V240.843C136.434 240.871 135.976 240.897 135.91 240.918C135.778 240.96 135.594 241.049 135.5 241.117C135.406 241.185 133.891 242.72 132.135 244.528C128.972 247.783 128.544 248.189 127.951 248.502C127.291 248.85 127.101 248.875 124.513 248.954L122.068 249.029L122.058 250.077L122.004 246.148L122.009 246.148Z" fill="white"/>
<path d="M121.987 245.437L121.973 245.01L121.459 245.017L118.909 245.052L115.844 245.095L115.887 248.152L115.93 251.208L118.995 251.166L122.059 251.124L121.987 245.437ZM121.987 245.437C121.978 245.113 121.987 245.293 121.978 245.007L121.989 245.001C121.999 245.525 121.998 245.451 122.005 246.088L121.985 245.435L121.987 245.437ZM122.009 246.148L122.041 247.174L124.453 247.141C126.651 247.111 126.885 247.096 127.104 246.979C127.34 246.852 129.021 245.136 131.672 242.317L133.031 240.873L133.055 240.843C134.694 240.82 135.394 240.804 137.127 240.78V240.843C136.434 240.871 135.976 240.897 135.91 240.918C135.778 240.96 135.594 241.049 135.5 241.117C135.406 241.185 133.891 242.72 132.135 244.528C128.972 247.783 128.544 248.189 127.951 248.502C127.291 248.85 127.101 248.875 124.513 248.954L122.068 249.029L122.058 250.077L122.004 246.148L122.009 246.148Z" stroke="white" stroke-width="1.29589" stroke-linecap="square" stroke-linejoin="bevel"/>
<path d="M98.8253 232.39L101.415 233.046L103.57 233.592L104.004 233.702L103.918 234.065L102.687 238.868L100.097 238.212L97.5075 237.556L98.166 234.974L98.8253 232.39ZM103.919 234.066C103.989 233.791 103.95 233.944 104.012 233.702L104.022 233.7C103.909 234.142 103.926 234.08 103.788 234.618L103.92 234.064L103.919 234.066ZM103.775 234.668L103.569 235.539L105.607 236.056C107.465 236.526 107.665 236.567 107.876 236.518C108.103 236.464 109.908 235.399 112.78 233.624L114.252 232.716L114.279 232.695C115.664 233.046 116.257 233.191 117.721 233.562L117.706 233.615C117.116 233.481 116.725 233.4 116.665 233.403C116.544 233.408 116.368 233.442 116.274 233.478C116.179 233.513 114.556 234.465 112.667 235.59C109.264 237.616 108.812 237.861 108.242 237.991C107.607 238.135 107.442 238.113 105.245 237.595L103.17 237.107L102.928 237.988L103.774 234.668L103.775 234.668Z" fill="white" stroke="white" stroke-width="1.29589" stroke-linecap="square" stroke-linejoin="bevel"/>
<path d="M83.9688 213.27L86.0527 214.794L87.7872 216.063L88.1371 216.319L87.9279 216.613L85.0769 220.477L82.9929 218.952L80.9085 217.427L82.4382 215.349L83.9688 213.27ZM87.9288 216.614C88.0914 216.393 88.0008 216.516 88.1443 216.321L88.1541 216.323C87.8924 216.679 87.9294 216.629 87.6105 217.062L87.9301 216.612L87.9288 216.614ZM87.5802 217.103L87.0789 217.81L88.719 219.009C90.2141 220.103 90.379 220.212 90.5857 220.244C90.8093 220.278 92.8154 219.975 96.0376 219.421L97.6884 219.138L97.72 219.13C98.8343 219.945 99.3138 220.29 100.492 221.152L100.461 221.195C99.9803 220.862 99.6592 220.648 99.604 220.628C99.4936 220.589 99.324 220.556 99.2261 220.554C99.1282 220.553 97.3261 220.818 95.2224 221.145C91.4334 221.732 90.9392 221.789 90.38 221.699C89.7586 221.599 89.6176 221.519 87.8357 220.261L86.1516 219.072L85.6142 219.775L87.5811 217.103L87.5802 217.103Z" fill="white" stroke="white" stroke-width="1.29589" stroke-linecap="square" stroke-linejoin="bevel"/>
<path d="M74.3185 192.644L76.0165 194.617L77.4295 196.258L77.7144 196.589L77.4415 196.831L73.7553 199.977L72.0573 198.004L70.3594 196.031L72.3387 194.338L74.3185 192.644ZM77.4415 196.831C77.652 196.651 77.5358 196.751 77.7211 196.593L77.7309 196.596C77.3922 196.886 77.4397 196.846 77.0271 197.199L77.4442 196.83L77.4415 196.831ZM76.9879 197.232L76.3334 197.813L77.6695 199.365C78.8877 200.78 79.025 200.925 79.2205 201.003C79.4323 201.088 81.4725 201.247 84.765 201.437L86.4514 201.535L86.4843 201.534C87.3922 202.589 87.7841 203.036 88.7441 204.151L88.7041 204.186C88.308 203.75 88.0415 203.466 87.9918 203.434C87.8922 203.371 87.7331 203.3 87.6374 203.276C87.5417 203.251 85.7106 203.102 83.5692 202.944C79.7122 202.658 79.2132 202.601 78.6845 202.385C78.0971 202.145 77.9773 202.034 76.5151 200.393L75.1328 198.841L74.444 199.409L76.9879 197.232Z" fill="white"/>
<path d="M77.4415 196.831L77.7144 196.589L77.4295 196.258L76.0165 194.617L74.3185 192.644L72.3387 194.338L70.3594 196.031L72.0573 198.004L73.7553 199.977L77.4415 196.831ZM77.4415 196.831C77.652 196.651 77.5358 196.751 77.7211 196.593L77.7309 196.596C77.3922 196.886 77.4397 196.846 77.0271 197.199L77.4442 196.83L77.4415 196.831ZM76.9879 197.232L76.3334 197.813L77.6695 199.365C78.8877 200.78 79.025 200.925 79.2205 201.003C79.4323 201.088 81.4725 201.247 84.765 201.437L86.4514 201.535L86.4843 201.534C87.3922 202.589 87.7841 203.036 88.7441 204.151L88.7041 204.186C88.308 203.75 88.0415 203.466 87.9918 203.434C87.8922 203.371 87.7331 203.3 87.6374 203.276C87.5417 203.251 85.7106 203.102 83.5692 202.944C79.7122 202.658 79.2132 202.601 78.6845 202.385C78.0971 202.145 77.9773 202.034 76.5151 200.393L75.1328 198.841L74.444 199.409L76.9879 197.232Z" stroke="white" stroke-width="1.29589" stroke-linecap="square" stroke-linejoin="bevel"/>
<path d="M133.54 226.118C133.649 226.093 133.76 226.076 133.872 226.065C134.169 226.036 134.475 226.054 134.777 226.127C136.082 226.439 137.013 227.629 136.957 228.912L136.94 229.324L138.782 230.344C139.941 230.986 140.716 231.445 140.87 231.582C141.274 231.943 141.697 232.552 141.913 233.082C142.025 233.357 142.648 235.263 143.299 237.318C144.07 239.754 144.468 240.946 144.746 241.579L144.131 241.733L142.855 241.053L142.442 240.394L142.522 240.379L142.559 240.373V240.354L142.302 240.116C142.189 239.689 141.746 238.168 141.249 236.507C140.48 233.937 140.26 233.279 140.11 233.123C139.976 232.984 139.398 232.641 138.047 231.902L136.171 230.875L135.818 231.142C135.37 231.481 134.566 231.73 134.013 231.701C133.109 231.653 132.358 231.234 131.813 230.475C131.287 229.742 131.159 228.805 131.463 227.939C131.523 227.77 131.597 227.61 131.685 227.46L131.684 227.462C132.088 226.771 132.77 226.287 133.533 226.117L133.54 226.118ZM142.32 240.156L142.535 240.356L142.519 240.36L142.431 240.376L142.342 240.235C142.333 240.208 142.324 240.17 142.321 240.158L142.32 240.156ZM141.899 240.528C141.879 240.506 142.046 240.585 142.444 240.796L142.48 240.853C142.127 240.669 141.919 240.549 141.899 240.528Z" fill="white" stroke="white" stroke-width="1.29589" stroke-linecap="square" stroke-linejoin="bevel"/>
<path d="M119.175 221.392C119.283 221.386 119.392 221.388 119.5 221.396C119.79 221.418 120.078 221.486 120.355 221.605C121.55 222.121 122.242 223.412 121.974 224.63L121.889 225.021L123.48 226.302C124.48 227.108 125.144 227.675 125.268 227.832C125.594 228.244 125.897 228.896 126.014 229.439C126.075 229.72 126.353 231.645 126.632 233.717C126.962 236.174 127.142 237.379 127.303 238.03L126.689 238.076L125.583 237.213L125.298 236.515L125.377 236.515L125.413 236.515L125.424 236.498L125.218 236.228C125.181 235.801 125.012 234.274 124.815 232.603C124.509 230.019 124.408 229.354 124.291 229.18C124.187 229.025 123.691 228.601 122.524 227.671L120.902 226.377L120.52 226.574C120.035 226.824 119.225 226.928 118.702 226.808C117.846 226.612 117.198 226.088 116.804 225.271C116.424 224.483 116.457 223.566 116.893 222.789C116.979 222.638 117.076 222.497 117.185 222.368L117.184 222.37C117.686 221.777 118.417 221.427 119.175 221.392ZM125.221 236.268L125.393 236.494L125.379 236.496L125.29 236.496L125.229 236.346C125.22 236.32 125.22 236.281 125.22 236.269L125.221 236.268ZM124.757 236.553C124.742 236.529 124.888 236.632 125.233 236.899L125.257 236.96C124.95 236.725 124.773 236.576 124.757 236.553Z" fill="white" stroke="white" stroke-width="1.29589" stroke-linecap="square" stroke-linejoin="bevel"/>
<path d="M105.708 210.721C105.805 210.748 105.9 210.78 105.993 210.818C106.242 210.92 106.476 211.062 106.684 211.246C107.587 212.039 107.824 213.372 107.239 214.365L107.053 214.684L108.082 216.264C108.73 217.257 109.15 217.945 109.215 218.118C109.383 218.573 109.462 219.233 109.41 219.743C109.382 220.007 109.074 221.778 108.724 223.679C108.31 225.932 108.122 227.042 108.076 227.66L107.524 227.525L106.8 226.452L106.75 225.757L106.82 225.779L106.852 225.79L106.863 225.776L106.759 225.48C106.849 225.094 107.139 223.704 107.445 222.18C107.918 219.822 108.02 219.209 107.967 219.023C107.92 218.856 107.606 218.343 106.847 217.192L105.793 215.593L105.401 215.657C104.903 215.739 104.161 215.599 103.736 215.345C103.04 214.928 102.621 214.282 102.509 213.452C102.401 212.652 102.694 211.855 103.3 211.297C103.418 211.188 103.544 211.092 103.677 211.01C104.287 210.632 105.031 210.535 105.707 210.72L105.708 210.721ZM106.753 225.517L106.84 225.765L106.825 225.762L106.748 225.738L106.737 225.589C106.737 225.565 106.752 225.53 106.753 225.519V225.517ZM106.263 225.635C106.254 225.61 106.356 225.742 106.582 226.076V226.136C106.38 225.843 106.266 225.661 106.259 225.635L106.263 225.635Z" fill="white" stroke="white" stroke-width="1.29589" stroke-linecap="square" stroke-linejoin="bevel"/>
<path d="M96.1273 194.635C96.213 194.689 96.2961 194.749 96.3757 194.813C96.5874 194.984 96.7731 195.192 96.922 195.433C97.5652 196.471 97.4011 197.837 96.5378 198.632L96.2618 198.888L96.7964 200.728C97.1328 201.886 97.338 202.68 97.3494 202.867C97.3776 203.359 97.2592 204.025 97.0578 204.506C96.953 204.755 96.1282 206.388 95.2245 208.135C94.1534 210.206 93.6426 211.232 93.4147 211.82L92.9175 211.526L92.5301 210.268L92.6873 209.577L92.7492 209.619L92.7786 209.638L92.7941 209.63L92.7812 209.311C92.9834 208.962 93.6766 207.694 94.4258 206.301C95.5846 204.145 95.8657 203.579 95.8695 203.382C95.8695 203.206 95.7188 202.613 95.3211 201.27L94.769 199.403L94.3688 199.35C93.8602 199.283 93.1794 198.928 92.8409 198.555C92.2867 197.945 92.0702 197.193 92.2074 196.352C92.3394 195.541 92.8593 194.852 93.6146 194.487C93.7619 194.416 93.9133 194.36 94.067 194.319L94.0665 194.321C94.7728 194.133 95.5261 194.257 96.1291 194.636L96.1273 194.635ZM92.7612 209.345L92.7719 209.612L92.7594 209.604L92.6917 209.558L92.7256 209.409C92.7383 209.388 92.7548 209.356 92.7612 209.346L92.7616 209.343L92.7612 209.345ZM92.2492 209.315C92.2492 209.289 92.3084 209.447 92.4295 209.838L92.4139 209.898C92.3043 209.552 92.2468 209.342 92.2474 209.315L92.2492 209.315Z" fill="white" stroke="white" stroke-width="1.29589" stroke-linecap="square" stroke-linejoin="bevel"/>
<path d="M84.9482 180.215L80.1245 173.44L76.6511 180.992L84.9482 180.215Z" fill="white" stroke="white" stroke-width="1.29589" stroke-linecap="square" stroke-linejoin="bevel"/>
<path d="M163.447 250.639C163.097 251.351 162.803 252.09 162.578 252.851C162.343 253.648 162.178 254.467 162.083 255.292C161.996 256.052 161.969 256.832 162.178 257.568C162.179 257.572 162.181 257.575 162.182 257.578C162.471 259.089 163.779 260.207 165.387 260.207C166.995 260.207 168.305 259.089 168.593 257.578C168.594 257.574 168.596 257.571 168.597 257.568C168.807 256.832 168.778 256.052 168.691 255.292C168.595 254.467 168.432 253.648 168.197 252.851C167.973 252.091 167.68 251.352 167.33 250.641C170.03 251.476 172.012 253.997 172.012 256.951C172.012 260.578 169.025 263.553 165.387 263.553C161.749 263.553 158.765 260.578 158.765 256.951C158.765 253.996 160.745 251.473 163.447 250.639Z" fill="white"/>
<path fill-rule="evenodd" clip-rule="evenodd" d="M167.33 250.641C167.33 250.641 166.541 249.078 165.717 248.079C164.893 247.08 163.869 246.126 163.246 245.637C162.622 245.149 165.138 245.216 165.138 245.216L168.411 250.476L168.455 251.652L167.33 250.641Z" fill="white"/>
</g>
<path fill-rule="evenodd" clip-rule="evenodd" d="M167.695 242.112C167.929 241.948 168.172 241.796 168.423 241.657C168.753 241.474 169.097 241.315 169.449 241.176C169.705 241.075 169.964 240.985 170.228 240.905L170.301 241.558L168.497 242.039L167.695 242.112Z" fill="white"/>
<path fill-rule="evenodd" clip-rule="evenodd" d="M161.592 241.322C161.592 241.322 162.614 241.733 163.084 241.979C163.554 242.226 165.103 243.195 165.54 243.614C166.137 244.074 167.096 245.323 167.096 245.323L160.572 241.606L161.592 241.322Z" fill="white"/>
<path d="M165.499 277.611C227.881 277.611 278.452 227.193 278.452 165C278.452 102.806 227.881 52.3885 165.499 52.3885C103.117 52.3885 52.5469 102.806 52.5469 165C52.5469 227.193 103.117 277.611 165.499 277.611Z" stroke="white" stroke-width="3.21062" stroke-linecap="square" stroke-linejoin="bevel"/>
</g>
<defs>
<clipPath id="clip0_219_268">
<rect width="331" height="330" fill="white"/>
</clipPath>
</defs>
</svg>
