<svg width="70" height="72" viewBox="0 0 70 72" fill="none" xmlns="http://www.w3.org/2000/svg">
<path d="M30.4393 9.51908C18.2032 12.292 9.49154 23.1425 9.45947 35.6517V35.6554C9.45958 50.4734 21.5499 62.5261 36.4142 62.5263C47.2349 62.5263 56.5854 56.1518 60.8681 46.9568C61.0728 46.5168 61.0938 46.0138 60.9265 45.5583C60.7592 45.1029 60.4172 44.7324 59.9758 44.5283C59.5347 44.3241 59.0303 44.3029 58.5735 44.4693C58.1167 44.6357 57.7449 44.9761 57.5397 45.4157C53.8421 53.3546 45.7907 58.8674 36.4142 58.8673C23.5344 58.8672 13.1305 48.5005 13.1278 35.6614V35.6577V35.6559C13.1579 24.8327 20.6654 15.4866 31.2527 13.0872C31.4877 13.034 31.71 12.935 31.9067 12.7961C32.1034 12.6572 32.2707 12.481 32.399 12.2775C32.5274 12.0741 32.6142 11.8475 32.6547 11.6106C32.6951 11.3737 32.6883 11.1311 32.6346 10.8968C32.5267 10.424 32.2348 10.0132 31.8231 9.75479C31.4115 9.49642 30.9137 9.41163 30.4393 9.51908ZM37.1467 15.8909C36.9058 15.8819 36.6655 15.9203 36.4395 16.0039C36.2135 16.0876 36.0063 16.2148 35.8296 16.3783C35.653 16.5419 35.5104 16.7385 35.41 16.957C35.3097 17.1755 35.2535 17.4116 35.2447 17.6517C35.2357 17.8918 35.2742 18.1314 35.3581 18.3567C35.4421 18.582 35.5697 18.7886 35.7337 18.9647C35.8978 19.1407 36.095 19.2829 36.3142 19.3829C36.5334 19.483 36.7702 19.539 37.0111 19.5477C41.2481 19.7036 45.0438 21.466 47.8298 24.2313L43.4695 27.6038C41.5792 25.9541 39.1104 24.9493 36.4142 24.9493C30.6894 24.9493 25.9775 29.4688 25.6885 35.1071C25.6785 35.2889 25.6735 35.4717 25.6735 35.6556C25.6735 37.5323 26.164 39.3 27.0231 40.8374L18.778 47.2394C18.5878 47.387 18.4287 47.5706 18.3097 47.7795C18.1906 47.9885 18.1141 48.2188 18.0844 48.4573C18.0547 48.6957 18.0725 48.9377 18.1367 49.1693C18.2008 49.4009 18.3102 49.6177 18.4584 49.8072C18.7575 50.1894 19.1966 50.4376 19.6792 50.4973C20.1618 50.5569 20.6484 50.4231 21.0321 50.1253L29.3277 43.6829C31.2221 45.3476 33.7034 46.3615 36.4134 46.3615C42.3228 46.3615 47.1512 41.5462 47.1512 35.6551C47.1512 33.7659 46.6512 31.9897 45.7814 30.4451L50.1194 27.0867C51.6827 29.5704 52.5871 32.5063 52.5879 35.6551C52.5879 36.6305 52.4957 37.587 52.3269 38.5233C52.2842 38.7599 52.2888 39.0025 52.3402 39.2373C52.3917 39.4721 52.4891 39.6945 52.6268 39.8917C52.7646 40.089 52.9399 40.2572 53.143 40.3869C53.346 40.5165 53.5726 40.605 53.81 40.6473C54.2886 40.7326 54.7816 40.625 55.1808 40.3482C55.5799 40.0713 55.8524 39.6478 55.9385 39.1708C56.1429 38.0347 56.2561 36.8591 56.2561 35.6551C56.2555 31.0907 54.6877 26.8754 52.0598 23.5166C52.0262 23.4611 51.9898 23.4074 51.9505 23.3557C51.9243 23.3281 51.8973 23.3013 51.8694 23.2754C48.379 18.9537 43.1059 16.1104 37.1456 15.891L37.1467 15.8909ZM29.4236 17.3088C29.1831 17.3104 28.9452 17.3591 28.7236 17.4522C21.3759 20.5311 16.5839 27.7084 16.5694 35.6539V35.6557C16.5694 38.2884 17.092 40.8059 18.0303 43.1047C18.2133 43.554 18.5679 43.9125 19.016 44.1012C19.4641 44.29 19.9691 44.2936 20.4198 44.1112C20.6431 44.0207 20.8462 43.8872 21.0177 43.7183C21.1892 43.5495 21.3256 43.3486 21.4192 43.1272C21.5127 42.9058 21.5616 42.6682 21.563 42.4279C21.5645 42.1877 21.5184 41.9495 21.4274 41.727C20.6624 39.8527 20.2381 37.8102 20.2377 35.6598V35.658V35.6561C20.2528 29.1717 24.1493 23.3376 30.1459 20.8248C30.5942 20.6367 30.9491 20.2788 31.1328 19.8298C31.3164 19.3809 31.3137 18.8776 31.1252 18.4306C30.9848 18.0968 30.7481 17.812 30.4452 17.6124C30.1423 17.4128 29.7867 17.3069 29.4236 17.3088ZM36.4142 28.6083C40.3407 28.6083 43.4817 31.7415 43.4817 35.6558C43.4817 39.57 40.3407 42.7053 36.4142 42.7053C34.2426 42.7053 32.3114 41.7455 31.018 40.2263C30.993 40.1886 30.9666 40.1518 30.9388 40.116C30.9171 40.0944 30.8949 40.0735 30.8722 40.053C29.9142 38.8508 29.3426 37.3249 29.3426 35.6579C29.3426 35.5356 29.3462 35.4157 29.3526 35.2948C29.541 31.5523 32.6102 28.6104 36.414 28.6104L36.4142 28.6083ZM50.8264 44.1858C50.3468 44.2677 49.9196 44.5362 49.6387 44.9321C46.7092 49.0741 41.8942 51.7819 36.4142 51.7819C32.8328 51.7819 29.5427 50.6251 26.8641 48.6657C26.472 48.3788 25.9818 48.2589 25.5011 48.3322C25.0204 48.4055 24.5886 48.6661 24.3005 49.0567C24.0131 49.4478 23.8932 49.9367 23.9672 50.4159C24.0412 50.8951 24.3031 51.3254 24.6953 51.6122C27.976 54.0122 32.0365 55.4386 36.4144 55.4386C43.1093 55.4386 49.047 52.1183 52.6374 47.0416C52.7764 46.8453 52.8752 46.6236 52.9281 46.3891C52.981 46.1547 52.9871 45.9122 52.946 45.6754C52.9049 45.4386 52.8173 45.2122 52.6884 45.0092C52.5595 44.8062 52.3917 44.6305 52.1946 44.4921C51.7974 44.2134 51.305 44.1034 50.8264 44.1858Z" fill="white"/>
</svg>
