<svg width="642" height="450" viewBox="0 0 642 450" fill="none" xmlns="http://www.w3.org/2000/svg">
<path d="M329.951 0.357722C143.839 29.5757 6.92328 174.689 0.22386 349.855L0.222043 349.906C-7.13885 557.432 169.407 735.734 393.819 747.419C557.185 755.925 701.521 674 770.748 548.589C774.058 542.588 774.625 535.559 772.324 529.049C770.024 522.54 765.046 517.082 758.484 513.877C751.926 510.67 744.321 509.976 737.341 511.948C730.362 513.919 724.579 518.395 721.264 524.391C661.494 632.669 537.199 703.547 395.637 696.176C201.186 686.051 49.2628 532.687 55.6012 352.874L55.603 352.822L55.6039 352.797C61.4357 201.242 179.425 76.2505 340.458 50.969C344.033 50.4078 347.438 49.1971 350.476 47.406C353.515 45.6149 356.128 43.2784 358.167 40.5303C360.206 37.7823 361.63 34.6764 362.358 31.3903C363.086 28.1041 363.104 24.7021 362.41 21.3787C361.016 14.6712 356.813 8.68852 350.726 4.74651C344.639 0.804502 337.166 -0.774251 329.951 0.357722ZM428.049 94.8663C424.417 94.551 420.77 94.9003 417.316 95.8941C413.863 96.8879 410.671 98.5068 407.923 100.658C405.175 102.81 402.925 105.451 401.301 108.433C399.677 111.414 398.712 114.676 398.46 118.032C398.204 121.388 398.667 124.773 399.822 127.995C400.977 131.216 402.801 134.209 405.19 136.804C407.58 139.399 410.487 141.545 413.746 143.118C417.006 144.692 420.553 145.662 424.186 145.974C488.076 151.487 544.507 179.153 585.194 220.071L517.689 263.876C489.97 239.286 453.196 223.274 412.49 221.155C326.061 216.655 252.676 276.247 245.513 354.984C245.271 357.522 245.104 360.078 245.013 362.654C244.081 388.937 250.607 414.078 262.814 436.286L135.153 519.465C132.208 521.383 129.714 523.828 127.814 526.661C125.913 529.494 124.643 532.659 124.076 535.976C123.51 539.292 123.658 542.695 124.511 545.989C125.365 549.284 126.908 552.405 129.052 555.175C133.377 560.764 139.883 564.585 147.139 565.8C154.396 567.015 161.809 565.523 167.749 561.654L296.194 477.948C323.967 502.751 360.925 518.902 401.839 521.032C491.057 525.676 566.346 462.032 569.273 379.527C570.211 353.069 563.545 327.801 551.18 305.486L618.343 261.86C640.711 297.873 652.905 339.701 651.353 383.8C650.868 397.462 649.001 410.784 645.987 423.765C645.226 427.045 645.174 430.446 645.834 433.775C646.494 437.104 647.854 440.295 649.836 443.166C651.817 446.036 654.382 448.531 657.382 450.506C660.383 452.481 663.761 453.898 667.323 454.676C674.507 456.248 682.004 455.129 688.167 451.565C694.33 448.002 698.655 442.285 700.192 435.671C703.843 419.921 706.136 403.546 706.734 386.684C708.993 322.76 687.418 262.491 649.411 213.386C648.932 212.582 648.409 211.802 647.842 211.048C647.46 210.64 647.065 210.243 646.656 209.858C596.108 146.59 517.909 102.625 428.034 94.8682L428.049 94.8663ZM310.746 108.655C307.114 108.488 303.499 108.983 300.106 110.112C187.645 147.458 111.731 244.209 107.565 355.474L107.564 355.5C106.256 392.37 112.896 428.038 125.918 460.971C128.458 467.407 133.633 472.706 140.305 475.702C146.977 478.697 154.598 479.144 161.494 476.945C164.91 475.852 168.043 474.142 170.716 471.913C173.389 469.683 175.548 466.977 177.071 463.95C178.594 460.922 179.45 457.633 179.591 454.269C179.731 450.906 179.154 447.534 177.891 444.346C167.273 417.495 161.882 388.556 162.944 358.44L162.945 358.414L162.946 358.389C166.395 267.586 228.122 188.943 319.904 158.464C326.765 156.181 332.302 151.448 335.297 145.305C338.293 139.161 338.502 132.111 335.879 125.703C333.924 120.917 330.493 116.743 326.019 113.709C321.544 110.675 316.229 108.913 310.746 108.655ZM410.672 272.398C469.952 275.484 515.817 321.834 513.872 376.653C511.927 431.472 462.948 472.913 403.668 469.827C370.882 468.12 342.203 453.16 323.43 430.867C323.071 430.319 322.691 429.783 322.29 429.26C321.973 428.941 321.648 428.63 321.315 428.326C307.45 410.736 299.577 388.916 300.405 365.57C300.466 363.856 300.581 362.18 300.737 360.493C305.441 308.226 353.241 269.438 410.668 272.427L410.672 272.398ZM620.52 501.888C613.24 502.659 606.656 506.083 602.218 511.407C555.933 567.113 481.893 601.252 399.158 596.945C345.087 594.13 295.991 575.343 256.524 545.795C250.747 541.47 243.406 539.405 236.112 540.054C228.818 540.703 222.169 544.013 217.626 549.257C213.092 554.508 211.039 561.261 211.919 568.031C212.798 574.8 216.538 581.032 222.316 585.357C270.655 621.547 331.248 644.715 397.345 648.156C498.42 653.419 589.715 611.585 646.444 543.308C648.639 540.668 650.24 537.64 651.156 534.398C652.072 531.157 652.284 527.765 651.781 524.416C651.278 521.068 650.069 517.829 648.223 514.884C646.377 511.939 643.931 509.347 641.024 507.254C635.166 503.039 627.787 501.112 620.52 501.888Z" fill="#4D4D4D" fill-opacity="0.52"/>
</svg>
