<svg width="319" height="329" viewBox="0 0 319 329" fill="none" xmlns="http://www.w3.org/2000/svg">
<path d="M129.684 0.281782C54.0484 17.4761 0.198198 84.7562 0 162.322V162.344C0.00064252 254.226 74.7358 328.961 166.618 328.962C233.505 328.962 291.304 289.436 317.777 232.421C319.042 229.693 319.172 226.573 318.138 223.749C317.103 220.925 314.99 218.628 312.261 217.363C309.535 216.096 306.417 215.965 303.593 216.997C300.769 218.028 298.471 220.139 297.203 222.865C274.346 272.092 224.578 306.275 166.618 306.274C87.0029 306.274 22.6919 241.993 22.6752 162.382V162.359V162.348C22.8612 95.2366 69.2683 37.2844 134.712 22.4067C136.165 22.0765 137.539 21.4631 138.755 20.6016C139.971 19.7402 141.005 18.6475 141.798 17.3861C142.592 16.1248 143.129 14.7194 143.379 13.2504C143.628 11.7814 143.586 10.2776 143.255 8.82482C142.588 5.89263 140.783 3.34539 138.239 1.74334C135.694 0.141287 132.617 -0.384479 129.684 0.281782ZM171.145 39.7911C169.656 39.7354 168.171 39.9736 166.774 40.4923C165.377 41.0109 164.096 41.7998 163.004 42.8138C161.912 43.8278 161.031 45.0471 160.411 46.4019C159.79 47.7567 159.443 49.2205 159.389 50.7095C159.333 52.1986 159.571 53.684 160.09 55.081C160.609 56.4779 161.397 57.7589 162.411 58.8507C163.426 59.9426 164.645 60.8239 166 61.4443C167.354 62.0647 168.818 62.4119 170.307 62.4662C196.498 63.4324 219.961 74.3608 237.182 91.5074L210.229 112.419C198.545 102.19 183.284 95.9598 166.618 95.9598C131.231 95.9598 102.104 123.984 100.318 158.945C100.256 160.072 100.225 161.205 100.225 162.346C100.225 173.983 103.257 184.943 108.568 194.477L57.6015 234.173C56.4258 235.089 55.4421 236.227 54.7064 237.522C53.9708 238.818 53.4977 240.246 53.3142 241.725C53.1307 243.203 53.2405 244.704 53.6371 246.14C54.0337 247.576 54.7095 248.92 55.6258 250.095C57.4746 252.465 60.1888 254.005 63.1719 254.374C66.155 254.744 69.163 253.915 71.5347 252.068L122.813 212.121C134.523 222.443 149.861 228.73 166.613 228.73C203.141 228.73 232.987 198.871 232.987 162.343C232.987 150.628 229.897 139.615 224.52 130.038L251.335 109.213C260.998 124.613 266.589 142.818 266.594 162.343C266.594 168.391 266.024 174.322 264.98 180.128C264.716 181.594 264.745 183.099 265.063 184.555C265.381 186.011 265.983 187.39 266.834 188.613C267.686 189.836 268.77 190.879 270.025 191.683C271.28 192.487 272.681 193.036 274.148 193.298C277.106 193.827 280.154 193.16 282.621 191.443C285.088 189.726 286.773 187.1 287.305 184.142C288.569 177.098 289.268 169.808 289.268 162.343C289.265 134.041 279.574 107.902 263.329 87.0757C263.122 86.7316 262.896 86.3987 262.654 86.0785C262.492 85.9071 262.325 85.7409 262.152 85.58C240.577 58.7828 207.982 41.1527 171.139 39.7923L171.145 39.7911ZM123.406 48.5836C121.919 48.5933 120.449 48.8953 119.079 49.4724C73.66 68.564 44.0386 113.068 43.9494 162.335V162.347C43.9494 178.671 47.1799 194.281 52.9794 208.535C54.1109 211.321 56.3026 213.544 59.0725 214.714C61.8425 215.885 64.9638 215.907 67.7502 214.776C69.1301 214.215 70.3859 213.387 71.4459 212.34C72.5058 211.293 73.3491 210.048 73.9275 208.675C74.5059 207.302 74.8081 205.829 74.8169 204.339C74.8257 202.849 74.5408 201.372 73.9786 199.993C69.2499 188.37 66.6271 175.706 66.6246 162.372V162.361V162.349C66.7175 122.141 90.8035 85.9662 127.871 70.3851C130.642 69.2184 132.836 66.9993 133.971 64.2154C135.106 61.4316 135.089 58.3109 133.924 55.5394C133.056 53.4694 131.593 51.7037 129.721 50.4658C127.848 49.2279 125.651 48.5716 123.406 48.5836ZM166.618 118.648C190.889 118.648 210.305 138.076 210.305 162.347C210.305 186.618 190.889 206.059 166.618 206.059C153.194 206.059 141.257 200.107 133.262 190.688C133.107 190.453 132.944 190.225 132.772 190.003C132.638 189.87 132.501 189.74 132.36 189.613C126.439 182.159 122.905 172.697 122.905 162.36C122.905 161.602 122.928 160.858 122.967 160.109C124.131 136.902 143.104 118.661 166.616 118.661L166.618 118.648ZM255.705 215.239C252.741 215.747 250.1 217.411 248.363 219.866C230.255 245.549 200.492 262.34 166.618 262.34C144.479 262.34 124.142 255.167 107.585 243.017C105.161 241.238 102.131 240.495 99.1597 240.949C96.1883 241.404 93.519 243.02 91.7384 245.442C89.9616 247.867 89.2204 250.898 89.678 253.87C90.1356 256.841 91.7544 259.509 94.1786 261.288C114.458 276.169 139.557 285.014 166.619 285.014C208.003 285.014 244.706 264.426 266.9 232.947C267.759 231.73 268.369 230.355 268.697 228.901C269.024 227.447 269.061 225.944 268.807 224.475C268.553 223.007 268.012 221.604 267.215 220.345C266.418 219.086 265.381 217.996 264.162 217.138C261.707 215.41 258.664 214.728 255.705 215.239Z" fill="white"/>
</svg>
