<svg width="49" height="49" viewBox="0 0 49 49" fill="none" xmlns="http://www.w3.org/2000/svg">
<mask id="path-1-outside-1_590_420" maskUnits="userSpaceOnUse" x="-0.800781" y="-0.799805" width="50" height="50" fill="black">
<rect fill="white" x="-0.800781" y="-0.799805" width="50" height="50"/>
<path d="M27.2633 0.200195L27.0514 0.375282C26.6343 0.719274 26.6348 1.37993 27.0522 1.72423L27.2632 1.89813H30.2748C33.5789 1.89813 33.5847 1.89763 33.7981 1.49304C33.8559 1.38347 33.9033 1.16641 33.9033 1.01076C33.9033 0.772561 33.8605 0.685934 33.6341 0.464021L33.3654 0.200195H30.3141H27.2633ZM14.5872 0.203274C14.4092 0.204814 14.1914 0.244548 14.1034 0.292412C13.5548 0.590827 13.5367 1.5065 14.0738 1.79217C14.3862 1.95835 14.8756 1.92764 15.1194 1.72649C15.7602 1.19794 15.4105 0.197191 14.5872 0.203274ZM19.9908 0.203274C19.8128 0.204814 19.595 0.244548 19.507 0.292412C18.9584 0.590827 18.9403 1.5065 19.4774 1.79217C19.7898 1.95835 20.2792 1.92764 20.523 1.72649C21.1638 1.19794 20.8141 0.197191 19.9908 0.203274ZM19.9011 4.93892C19.4859 4.93892 19.1602 5.12695 18.9541 5.48646C18.6482 6.02007 18.8064 6.61407 19.3499 6.97309C19.7985 7.26942 20.5843 7.10246 20.855 6.65316L20.9784 6.44863H23.4923H26.0057V10.8966V15.3449H25.2783H24.5509V12.0868V8.82859L24.3788 8.71797C24.0422 8.50178 22.1251 8.74099 20.808 9.16364C17.4236 10.2497 15.0357 12.8634 14.4647 16.1069C14.3912 16.5242 14.3642 17.0278 14.3794 17.6954L14.4017 18.6727H12.8056H11.2092L11.1431 18.4519L11.0765 18.231L10.3045 18.2119C9.30697 18.1872 9.30997 18.1846 9.30997 19.0719C9.30997 19.9848 9.29621 19.972 10.2809 19.9481L11.0765 19.929L11.1431 19.7069L11.2101 19.4853L12.8682 19.5032L14.5264 19.5216L14.6941 20.2685C14.9048 21.2076 15.4221 22.7397 15.8866 23.8C16.3695 24.9021 16.9528 25.9213 17.7522 27.0586C18.88 28.6629 19.2502 29.2856 19.503 30.006C19.661 30.4562 19.6673 30.7157 19.5232 30.8328C19.1661 31.1234 19.0424 31.8811 19.2805 32.3195C19.4068 32.552 19.4064 32.5562 19.2436 32.7974C18.7932 33.4645 19.0604 34.3773 19.8025 34.7078C20.0577 34.8214 20.3084 34.8328 22.6285 34.8343L25.1745 34.8358V34.3946V33.9533H22.6687C20.4342 33.9533 20.1489 33.9409 20.0359 33.8407C19.8688 33.6924 19.875 33.3757 20.0481 33.206C20.1815 33.0755 20.2789 33.0703 22.6805 33.0703H25.1745V32.629V32.1873H22.7377C20.5677 32.1873 20.2876 32.1752 20.1748 32.0751C20.0309 31.9475 20.0047 31.5776 20.1309 31.4539C20.1925 31.3936 20.8577 31.3724 22.6943 31.3724H25.1745V30.935V30.4973L24.8798 30.4766L24.5855 30.4555V26.6526V22.8497H25.2784H25.9713L25.9887 29.9752C26.0048 36.4874 26.0161 37.1118 26.1206 37.2249C26.2262 37.3392 26.3863 37.3487 28.1969 37.3487H30.1587L30.261 37.5425C30.379 37.7662 30.6574 37.9621 30.9576 38.0327V38.0335C31.2522 38.1028 31.2743 38.1013 31.5697 37.9981C32.0718 37.8225 32.3259 37.4632 32.3259 36.9285C32.3259 35.8657 30.9483 35.458 30.2931 36.3268L30.1364 36.5345H28.4868H26.8371V29.6756V22.8162H27.9802H29.1232V22.1712V21.5262H29.9545H30.7859V25.0235V28.5208H30.6267C30.3447 28.5208 30.3008 28.639 30.3008 29.4038C30.3008 29.8731 30.3298 30.1521 30.384 30.2052C30.5089 30.3277 31.9215 30.3164 32.0268 30.192C32.0793 30.1294 32.1003 29.8367 32.0872 29.3266L32.0674 28.5558L31.8595 28.5208L31.6517 28.4853L31.6339 24.7218C31.6178 21.3383 31.6045 20.9456 31.5019 20.8345C31.4005 20.7247 31.2626 20.7108 30.2558 20.7108H29.1233V20.0996V19.4884H32.96H36.7967L36.9814 19.7263C37.4497 20.3282 38.2757 20.3439 38.7764 19.7605C39.3697 19.0693 38.841 17.9942 37.9078 17.9945C37.5251 17.9947 37.1627 18.1739 36.9867 18.4502L36.8475 18.6682L32.9856 18.6705L29.1233 18.6728V18.0616V17.4504H30.3317C31.5019 17.4504 31.5436 17.4458 31.6481 17.2996C31.7377 17.1742 31.7556 16.8984 31.7556 15.6697V14.1907H31.9152C32.1973 14.1907 32.2407 14.0725 32.2407 13.3077C32.2407 12.8383 32.2117 12.5594 32.1575 12.5063C32.0326 12.3838 30.6204 12.3951 30.5152 12.5194C30.4626 12.582 30.4416 12.8748 30.4547 13.3853L30.4741 14.1569L30.6995 14.178L30.9243 14.1991V15.4175V16.6355H30.024H29.1232V15.9901V15.3451H27.9802H26.8371V10.6134C26.8371 6.30601 26.8271 5.87105 26.7227 5.75798C26.6152 5.64159 26.4329 5.63384 23.8211 5.63384H21.0345L20.8494 5.39588C20.6061 5.08311 20.3066 4.93892 19.9011 4.93892ZM34.4472 6.24768C34.3453 6.25153 34.2513 6.26724 34.2017 6.29819C34.0867 6.36981 32.5709 10.384 32.6157 10.4982C32.6397 10.5595 32.7686 10.591 32.9944 10.591H33.337L33.5152 10.1326C34.5025 7.59527 34.9224 6.40666 34.858 6.32963C34.8096 6.27172 34.6171 6.24191 34.4472 6.24768ZM31.5518 6.89231C31.5158 6.87052 30.8453 7.16633 30.0621 7.54967L28.6381 8.24683V8.49394V8.74065L30.041 9.35464C30.8125 9.69212 31.4752 9.96052 31.5133 9.95152C31.5514 9.94251 31.5916 9.78087 31.603 9.5922L31.6237 9.24919L30.6694 8.85287L29.7151 8.45653L30.6661 8.01644L31.6172 7.57634V7.25403C31.6172 7.07684 31.5878 6.91411 31.5518 6.89231ZM35.9126 6.90587C35.9055 6.90609 35.9013 6.9074 35.8988 6.90972C35.8629 6.9446 35.8438 7.1072 35.8557 7.27103L35.8776 7.56906L36.8129 8.01911L37.7481 8.46916L37.4364 8.60206C37.2649 8.67514 36.8361 8.85132 36.4837 8.99362L35.8431 9.25227V9.57657C35.8431 9.77316 35.8766 9.91142 35.9284 9.92834C35.9753 9.94366 36.4663 9.76094 37.0195 9.52205C37.5726 9.28316 38.1811 9.0236 38.3716 8.94508C38.8381 8.7528 38.8912 8.70505 38.8912 8.47791C38.8912 8.29185 38.8234 8.2495 37.4274 7.56469C36.5773 7.14765 36.0128 6.90249 35.9126 6.90587ZM23.7196 9.49473V11.3287V13.1628L23.4943 13.3199C23.1226 13.5799 22.6412 13.5403 21.8946 13.1886C21.5575 13.0299 21.2127 12.9001 21.1286 12.9001C20.9504 12.9001 19.3552 14.4428 19.3552 14.6152C19.3552 14.6738 19.4972 15.0101 19.671 15.3625C20.0264 16.0831 20.0698 16.4077 19.8654 16.8165C19.6997 17.1479 19.4174 17.329 18.711 17.5566C17.8602 17.8307 17.9004 17.756 17.9004 19.0568C17.9004 20.3704 17.8788 20.3298 18.7195 20.6043C20.0581 21.0413 20.2793 21.557 19.6653 22.8119C19.4576 23.2364 19.3554 23.5242 19.3828 23.6086C19.4536 23.8274 20.9787 25.2599 21.1408 25.2599C21.2203 25.2599 21.5761 25.1204 21.9311 24.9496C22.5033 24.6744 22.6182 24.6421 22.9431 24.6666C23.1661 24.6835 23.383 24.7482 23.4972 24.8318L23.6851 24.969L23.7029 27.7294L23.7212 30.4894H22.1348H20.5481L20.4998 30.2347C20.3461 29.427 19.7621 28.3603 18.5079 26.5969C16.5145 23.7942 15.2502 20.2702 15.2508 17.518C15.2512 15.7081 15.8241 14.1146 16.9861 12.6908C18.4388 10.911 20.596 9.83762 23.3213 9.5385L23.7196 9.49473ZM21.2423 13.7294L21.7708 13.9769C22.2335 14.1935 22.3641 14.2244 22.8189 14.2244C23.1046 14.2244 23.4245 14.1983 23.5292 14.1663L23.7196 14.1078V14.7501V15.3927L23.252 15.6231C22.3543 16.066 21.5591 17.0219 21.252 18.0273C21.0574 18.6645 21.0832 19.7245 21.3089 20.3484C21.6663 21.3368 22.3974 22.1629 23.3174 22.6181L23.7196 22.8171V23.4287V24.0403L23.5293 23.9882C23.4245 23.9595 23.1047 23.9357 22.8189 23.9357C22.3641 23.9357 22.2336 23.9665 21.7708 24.1832L21.2423 24.4307L20.7374 23.9325L20.2328 23.4347L20.4963 22.87C20.7143 22.4036 20.7601 22.2294 20.7617 21.8645C20.7656 20.914 20.2755 20.3346 19.1206 19.9246L18.6972 19.7742V19.0731V18.3719L19.1819 18.1957C20.1321 17.8499 20.5776 17.419 20.7365 16.6923C20.8347 16.2439 20.7717 15.8938 20.4776 15.2562L20.2328 14.7258L20.7374 14.2276L21.2423 13.7294ZM28.2225 16.1575V19.079V22.0002H26.4194C25.0401 22.0002 24.608 21.9804 24.5826 21.9154C24.5643 21.8687 24.5576 20.5622 24.5676 19.0122L24.5854 16.1937L26.4039 16.1758L28.2225 16.1575ZM23.6263 16.2956C23.7033 16.2956 23.7196 16.7934 23.7196 19.1141C23.7196 21.3243 23.7011 21.9325 23.6332 21.9309C23.5053 21.9286 22.9557 21.5168 22.7024 21.2338C21.614 20.0175 21.6305 18.1646 22.7406 16.9553C23.0327 16.6371 23.491 16.2956 23.6263 16.2956ZM25.9753 16.5125C25.9506 16.512 25.926 16.5124 25.9018 16.514L25.6246 16.5335V16.8347C25.6246 17.122 25.6361 17.1387 25.8674 17.1972C26.0007 17.2309 26.1251 17.2736 26.1442 17.2919C26.1633 17.3102 26.195 17.6469 26.2148 18.04C26.2494 18.7256 26.2592 18.7614 26.4527 18.9246C26.6367 19.0797 26.6436 19.1005 26.5314 19.1621C26.3216 19.2772 26.2136 19.6514 26.2136 20.2624C26.2136 20.8761 26.1975 20.9065 25.8385 20.9778C25.6503 21.0153 25.6223 21.0513 25.6031 21.2775C25.5911 21.4188 25.6162 21.5758 25.6591 21.6265C25.8402 21.8404 26.632 21.5571 26.889 21.1864C27.0242 20.9913 27.0449 20.8739 27.0449 20.3006C27.0449 19.5688 27.0662 19.5275 27.4813 19.4514L27.7447 19.4033L27.7236 19.0929C27.704 18.801 27.6885 18.7787 27.4605 18.7213C27.0673 18.6223 27.045 18.5782 27.0449 17.9004C27.0448 17.4463 27.0122 17.2169 26.9235 17.0428C26.7764 16.7541 26.3469 16.5186 25.9753 16.5125ZM13.1641 20.8876C12.8094 20.8967 12.4583 21.0638 12.237 21.3858C12.0521 21.6547 12.0262 22.1745 12.1826 22.4709C12.3177 22.727 12.6775 23.0172 12.919 23.0646C13.0928 23.0987 13.1343 23.163 13.3001 23.6551C13.5829 24.4947 14.0937 25.4398 14.9924 26.7879C15.4405 27.4603 15.9175 28.2093 16.0526 28.452C16.6142 29.461 16.8713 30.7259 17.0224 33.2211C17.0991 34.4868 17.1237 34.6572 17.2408 34.7412C17.5671 34.9751 17.9698 34.7295 17.9694 34.2967C17.9693 34.1637 17.9381 33.5657 17.9004 32.968C17.6928 29.6807 17.3992 28.7686 15.7591 26.3216C14.7669 24.8411 14.4479 24.2694 14.1598 23.4538L13.9414 22.8358L14.1261 22.5708C14.2857 22.3419 14.3067 22.2528 14.2824 21.9146C14.2642 21.661 14.2047 21.4576 14.1131 21.3372C13.8773 21.0271 13.5188 20.8784 13.1641 20.8876ZM35.9642 21.5915C35.9166 21.5908 35.231 21.8705 34.4403 22.2131L33.0026 22.8362V24.0109C33.0026 25.3791 33.0595 25.7115 33.4186 26.4493C33.8399 27.3146 34.4972 27.9437 35.3463 28.2941C35.846 28.5002 36.1814 28.473 36.7983 28.1767C37.4105 27.8826 38.084 27.2205 38.4248 26.5774C38.8092 25.8521 38.8896 25.414 38.8904 24.0288L38.8912 22.8314L37.4709 22.2123C36.6897 21.8716 36.0118 21.5922 35.9642 21.5915ZM35.9447 22.4307L36.9733 22.909L38.0023 23.3869L37.9792 24.4422L37.956 25.4979L37.6999 26.0239C37.4021 26.6351 36.9321 27.1335 36.4086 27.3936C35.9762 27.6083 35.8976 27.6082 35.4681 27.389C34.9808 27.1405 34.5048 26.6285 34.2009 26.0261L33.9378 25.5052L33.9146 24.4451L33.8915 23.3851L34.918 22.9076L35.9447 22.4307ZM12.5613 25.5333C12.2201 25.5348 11.8629 25.6747 11.6634 25.9233C11.4647 26.1709 11.3628 26.5647 11.4199 26.8631C11.5181 27.3763 12.1825 27.8142 12.7306 27.727C12.9423 27.6934 12.9826 27.7201 13.2818 28.0883C13.4594 28.307 13.7136 28.6886 13.8469 28.9363C14.3166 29.8097 14.6984 31.6821 14.763 33.4296C14.797 34.3495 14.8218 34.5263 14.9364 34.6692C15.0918 34.8629 15.3079 34.8823 15.5395 34.7233C15.7034 34.6108 15.7031 34.6105 15.6621 33.5176C15.6161 32.2886 15.4371 31.0014 15.1661 29.9538C14.8937 28.9007 14.5728 28.2699 13.8871 27.4394C13.6581 27.162 13.6398 27.1061 13.6398 26.6805C13.6398 26.1676 13.5306 25.9577 13.1211 25.6845C12.9651 25.5805 12.7661 25.5322 12.5613 25.5333ZM45.6831 25.8437C45.6659 25.8442 45.6495 25.8483 45.636 25.8568C45.4944 25.9437 44.4276 27.4501 44.4536 27.5264C44.4675 27.5673 44.6167 27.6274 44.7852 27.6597C44.9537 27.6921 45.1018 27.728 45.114 27.7393C45.1592 27.7814 44.833 29.5069 44.7004 29.9279C44.4196 30.8189 42.7646 34.408 42.5839 34.5175C42.5072 34.5639 41.8703 33.4255 41.8703 33.2422C41.8703 33.1777 41.9184 32.963 41.9771 32.7651C42.0639 32.4724 42.1235 32.389 42.2969 32.3186C42.5358 32.2216 42.7703 31.8941 42.7707 31.6573C42.7711 31.3889 42.5668 31.0952 42.3059 30.9884C42.0037 30.8646 41.7617 30.914 41.5066 31.1519C41.3528 31.2953 41.3158 31.3896 41.3158 31.6413C41.3158 31.8128 41.3604 32.0153 41.4145 32.091C41.5005 32.2114 41.4959 32.2876 41.378 32.7002C41.3038 32.9596 41.2605 33.2483 41.2817 33.3416C41.3029 33.435 41.5109 33.8989 41.7441 34.3723L42.1683 35.233L41.7993 35.6965C40.993 36.7094 39.9738 37.8367 39.5342 38.2022L39.0711 38.5874L38.9855 38.2225C38.9385 38.0218 38.8787 37.6965 38.8527 37.4991C38.8085 37.1637 38.8218 37.116 39.0569 36.7689C39.2705 36.4535 39.3404 36.3977 39.5209 36.3977C39.6633 36.3977 39.7999 36.3322 39.9357 36.1991C40.4973 35.6486 39.8123 34.712 39.1088 35.0686C38.8132 35.2185 38.6614 35.5253 38.7188 35.8581C38.7576 36.0839 38.7287 36.1773 38.5158 36.5154C38.227 36.9741 38.1979 37.3177 38.3717 38.2082C38.5375 39.0575 38.5876 38.9697 37.5578 39.6367C36.6592 40.2189 34.7562 41.2193 34.5475 41.2193C34.4667 41.2193 34.4515 41.1681 34.4818 40.9988C34.5036 40.8774 34.5422 40.5795 34.5679 40.3367C34.6261 39.784 34.6624 39.7166 35.0777 39.3948C35.3911 39.152 35.4408 39.1353 35.7661 39.166C36.0946 39.197 36.132 39.1838 36.3608 38.9595C36.6338 38.6918 36.6841 38.3747 36.5069 38.0387C36.3369 37.7163 35.8965 37.5679 35.5417 37.7132C35.2515 37.832 35.1041 38.0351 35.0416 38.4012C35.0035 38.624 34.9283 38.725 34.6226 38.9643C34.4177 39.1247 34.206 39.3397 34.1522 39.4418C34.0984 39.5438 33.9916 40.0494 33.9147 40.5655C33.8379 41.0816 33.7644 41.5138 33.7519 41.5261C33.6806 41.596 31.9985 42.0508 31.3944 42.1635C30.2109 42.3843 30.1622 42.3894 30.1661 42.2921C30.1684 42.2437 30.285 41.8687 30.4259 41.4588L30.682 40.7135L31.0631 40.4883C31.3547 40.316 31.4927 40.2728 31.6517 40.3033C32.2434 40.4168 32.2753 40.4149 32.518 40.2543C32.855 40.0313 32.9693 39.6804 32.8224 39.3204C32.7627 39.1741 32.6332 39.0025 32.5346 38.9392C32.3258 38.805 31.9186 38.7885 31.696 38.9054C31.5179 38.9988 31.2714 39.3643 31.271 39.5357C31.2708 39.6068 31.0905 39.7546 30.803 39.9192C30.5455 40.0666 30.2826 40.2437 30.2188 40.3128C30.1551 40.3819 29.9489 40.8814 29.761 41.423L29.4192 42.4078L27.6258 42.4457C25.8708 42.4828 25.8219 42.4879 25.3304 42.6745C25.0585 42.7777 24.8351 42.8825 24.8282 42.91C24.8282 42.9102 24.8282 42.9108 24.8282 42.9116C24.8282 42.937 24.9451 43.07 25.0884 43.2072L25.349 43.4567L25.7968 43.3202C26.0984 43.2282 26.3887 43.1899 26.6878 43.2032L27.131 43.2231L27.6948 44.1889C28.0048 44.72 28.3057 45.2012 28.3638 45.2581C28.4218 45.315 28.7336 45.449 29.0563 45.5557L29.6428 45.7495V46.0129V46.2763L30.2663 46.4602C31.2472 46.7494 31.2322 46.7543 31.4451 46.0937C31.5442 45.7863 31.6317 45.4291 31.6388 45.3002L31.6517 45.0663L31.1334 44.9051C30.8481 44.8166 30.486 44.7269 30.3288 44.7058C30.0576 44.6693 30.0394 44.6783 29.968 44.8793C29.9266 44.9957 29.871 45.0905 29.8446 45.0905C29.8181 45.0905 29.5841 45.0286 29.3246 44.9529C28.9836 44.8533 28.8163 44.7642 28.7214 44.6306C28.5632 44.4079 27.9457 43.2957 27.9457 43.2335V43.2327C27.9457 43.2325 27.946 43.2317 27.9461 43.2315C27.9462 43.2313 27.9467 43.2307 27.9469 43.2299C27.9726 43.2072 28.2552 43.189 28.5963 43.189C29.3416 43.189 30.4168 43.0927 31.2669 42.9498L31.8522 42.8515L32.5674 43.5929C33.4963 44.5555 33.612 44.6236 34.3937 44.6673C34.9456 44.6981 35.0119 44.7159 35.0119 44.8328C35.0119 44.9048 35.0439 45.0228 35.0834 45.095C35.1478 45.2131 35.2349 45.2263 35.9407 45.2263H36.7265L36.7696 45.0138C36.8251 44.7413 36.8252 44.2443 36.7691 43.8436L36.7249 43.5284H35.9399C35.2348 43.5284 35.1478 43.5417 35.0834 43.6597C35.044 43.7319 35.0119 43.852 35.0119 43.9263C35.0119 44.0526 34.977 44.0588 34.4749 44.0246L33.9378 43.988L33.3619 43.4357C33.0449 43.1319 32.7565 42.8324 32.7213 42.77C32.6664 42.6726 32.7527 42.6257 33.3322 42.4389C34.2331 42.1486 35.3424 41.7044 36.1119 41.3256C36.4579 41.1552 36.77 41.0156 36.8057 41.0156C36.8413 41.0156 37.2153 41.215 37.6362 41.4585C38.0571 41.7019 38.492 41.9186 38.6027 41.9403C38.7775 41.9746 39.4463 41.8784 39.7027 41.782C39.7521 41.7634 39.8212 41.8292 39.8618 41.934C39.929 42.1071 39.955 42.117 40.2613 42.086C40.4414 42.0677 40.7714 41.9998 40.9947 41.9348L41.4007 41.8166L41.356 41.5349C41.2747 41.0239 41.0879 40.4605 40.9875 40.4227C40.8717 40.3792 39.8076 40.647 39.6784 40.7521C39.6262 40.7946 39.6054 40.8998 39.6276 41.0088C39.6633 41.1837 39.6463 41.1976 39.3078 41.2742C38.7656 41.3969 38.6946 41.382 38.06 41.0088C37.7361 40.8183 37.4606 40.6525 37.4479 40.6407C37.4351 40.629 37.7157 40.4284 38.0714 40.1951C39.128 39.5018 39.9995 38.8208 40.5848 38.2309L41.1352 37.6766L41.9012 37.7845C43.0774 37.9506 43.208 37.9382 43.7209 37.6106L44.1613 37.3292L44.3229 37.4785L44.4845 37.6273L45.0487 37.2107C45.3915 36.9574 45.5942 36.7631 45.5662 36.7149C45.4417 36.4999 44.9177 35.8025 44.8222 35.7248C44.7299 35.6498 44.6483 35.6825 44.2791 35.9413C43.6666 36.3706 43.5705 36.4858 43.6799 36.6576C43.785 36.8224 43.7289 36.9046 43.3235 37.18C43.0491 37.3665 43.0454 37.3669 42.5109 37.2847C41.8286 37.1797 41.6622 37.1406 41.6637 37.0865C41.6644 37.0626 41.8996 36.7525 42.1866 36.3977C42.7843 35.6584 43.2374 34.9492 43.7128 34.0078L44.0448 33.3496L44.4991 33.3083C44.7488 33.2856 45.217 33.2384 45.5394 33.2032L46.1256 33.1392L46.5526 32.7242C46.9705 32.3181 46.9838 32.3114 47.1481 32.417C47.3109 32.5216 47.3246 32.516 47.5962 32.2371C47.9823 31.8407 48.2317 31.4898 48.1958 31.3935C48.1413 31.2478 47.2076 30.5419 47.1152 30.5766C47.0223 30.6115 46.2348 31.5252 46.2348 31.598C46.2348 31.6204 46.3038 31.7016 46.3882 31.7787L46.5412 31.9188L46.182 32.2713L45.8224 32.6239L45.1278 32.6509C44.7638 32.6652 44.4627 32.6603 44.4353 32.6402C44.4351 32.64 44.4347 32.6394 44.4346 32.6387L44.4338 32.6379L44.4333 32.6371C44.4333 32.6144 44.6027 32.2054 44.8096 31.7286C45.3469 30.4906 45.5273 29.9079 45.7189 28.7912C45.8118 28.2496 45.888 27.795 45.8882 27.7809V27.7801L45.8886 27.7793C45.9025 27.7678 46.0538 27.777 46.236 27.8004C46.4976 27.8344 46.5925 27.8227 46.6196 27.7534C46.6557 27.6613 45.9383 26.0458 45.7924 25.8903C45.7631 25.8591 45.7209 25.8426 45.6831 25.8437ZM2.62808 25.891C2.61826 25.8915 2.60961 25.8933 2.60294 25.8972C2.51853 25.9483 1.75904 27.6004 1.75904 27.7328C1.75904 27.8065 1.85641 27.8392 2.1207 27.8542L2.48238 27.8745L2.63582 28.7941C2.8132 29.8572 3.06194 30.6554 3.5873 31.8473L3.96155 32.6965L3.52642 32.7164C2.74129 32.7522 2.46912 32.6706 2.15359 32.3057C1.8858 31.996 1.87988 31.9788 1.9965 31.8525C2.16212 31.6731 2.10543 31.5462 1.63077 31.0324L1.22486 30.5927L0.952492 30.7777C0.802823 30.8794 0.559113 31.0846 0.410591 31.2337C0.0944029 31.5511 0.101414 31.5797 0.648437 32.1871C0.978889 32.554 0.988764 32.5589 1.20659 32.4784C1.42389 32.3981 1.43525 32.404 1.77285 32.7661C2.16266 33.1842 2.31314 33.2404 3.21385 33.3049C4.3948 33.3894 4.26585 33.3118 4.74254 34.2281C5.24034 35.1852 5.69212 35.8776 6.3029 36.6192C6.54931 36.9184 6.74145 37.1725 6.72991 37.1838C6.71836 37.1951 6.40889 37.2543 6.04228 37.3155C5.31206 37.4375 5.23091 37.4212 4.78394 37.0616C4.60487 36.9176 4.59536 36.8879 4.67312 36.7206C4.78084 36.4889 4.74036 36.4387 4.10564 36.0135L3.62302 35.69L3.45414 35.891C3.08006 36.3365 2.78531 36.798 2.82985 36.8687C2.92654 37.022 3.79331 37.6199 3.91893 37.6199C3.99064 37.6199 4.06709 37.5741 4.08901 37.5181C4.14666 37.3708 4.20107 37.3866 4.67679 37.688C5.17545 38.0039 5.29067 38.0143 6.44577 37.8511L7.21864 37.7421L7.79667 38.3151C8.34812 38.8617 9.57564 39.8039 10.4806 40.3755C10.7089 40.5197 10.8966 40.6541 10.9028 40.6772V40.6779C10.9031 40.6977 10.6193 40.8846 10.272 41.093L9.64034 41.4718L9.18086 41.358C8.72611 41.2454 8.72138 41.2419 8.74369 41.0281C8.76953 40.7805 8.70377 40.7437 7.90586 40.5558C7.49674 40.4595 7.42434 40.4577 7.33718 40.5435C7.20592 40.6726 6.9383 41.774 7.01893 41.853C7.11116 41.9434 7.99283 42.1702 8.25213 42.1702C8.3867 42.1702 8.4792 42.1353 8.47983 42.085C8.48297 41.8489 8.58123 41.8242 9.07207 41.9358C9.3355 41.9957 9.63676 42.028 9.74143 42.0074C9.84609 41.9869 10.2861 41.7705 10.7193 41.5267C11.1525 41.2829 11.5429 41.0834 11.5871 41.0834C11.6314 41.0834 11.8305 41.1729 12.03 41.2824C12.6143 41.6031 13.6386 42.0279 14.6669 42.3763C15.1936 42.5547 15.6438 42.7196 15.667 42.7424C15.7077 42.7822 15.5726 42.9371 14.8207 43.7149L14.4761 44.0714H13.9066H13.3367L13.3151 43.851L13.2936 43.6301L12.4448 43.611L11.5961 43.5919V44.4017C11.5961 45.0774 11.6142 45.2184 11.7057 45.2528C11.8481 45.3064 13.076 45.3064 13.2185 45.2528C13.2874 45.227 13.3281 45.1295 13.3281 44.9906V44.7694L13.9386 44.7352C14.2743 44.7164 14.625 44.6631 14.718 44.6166C14.8109 44.5701 15.2609 44.171 15.7182 43.7293L16.5495 42.9258L17.4153 43.0552C17.8916 43.1262 18.7567 43.2053 19.3377 43.2311C19.9111 43.2565 20.3795 43.3048 20.3939 43.3401C20.394 43.3402 20.3943 43.3409 20.3944 43.3416V43.3424C20.3944 43.484 19.6127 44.7603 19.4717 44.8489C19.3187 44.9452 18.5503 45.1817 18.4999 45.1494C18.4998 45.1492 18.4987 45.1483 18.4979 45.1482C18.4895 45.1354 18.4455 45.0404 18.4005 44.9377C18.3448 44.8106 18.2673 44.7511 18.1578 44.7511C17.9143 44.7511 16.8541 45.0675 16.7541 45.1701C16.683 45.2431 16.7029 45.3869 16.8589 45.9273C16.9647 46.2942 17.0868 46.6295 17.1304 46.6722C17.2143 46.7545 17.932 46.6075 18.476 46.3969C18.7201 46.3024 18.7384 46.2767 18.7184 46.0562L18.6968 45.8175L19.2805 45.6245C19.6015 45.5184 19.9289 45.3715 20.008 45.2982C20.087 45.2249 20.3989 44.7365 20.7013 44.2131C21.2472 43.268 21.2529 43.261 21.5326 43.2203C21.9277 43.1627 22.7434 43.3455 23.2326 43.6011C23.8049 43.9001 24.3586 44.4912 24.6712 45.1363C24.8943 45.5968 24.9298 45.7405 24.9533 46.2767C24.9773 46.8246 24.9643 46.9098 24.8315 47.0745C24.524 47.4558 23.8563 47.4389 23.5561 47.0423C23.3249 46.7369 23.319 46.1155 23.5415 45.4967C23.642 45.2173 23.7407 44.9409 23.7611 44.8824C23.7856 44.8117 23.7017 44.7103 23.511 44.5807C23.179 44.3552 23.2086 44.334 22.8494 45.0566C22.4495 45.861 22.3952 46.7939 22.713 47.3964C22.8344 47.6266 23.2548 47.9951 23.5407 48.1218C23.6761 48.1819 23.9355 48.2094 24.2518 48.1974C24.6758 48.1813 24.7938 48.1478 25.0482 47.9734C25.4313 47.7108 25.7769 47.2069 25.8353 46.825C25.9073 46.3548 25.701 45.4867 25.3507 44.7849C24.8375 43.7568 24.0076 43.0347 22.933 42.6811C22.4326 42.5162 22.3482 42.51 20.6818 42.51H18.9505L18.6583 41.6441C18.2535 40.4455 18.1927 40.3441 17.7162 40.0695C17.1857 39.7638 17.0687 39.6628 17.0687 39.5104C17.0687 39.3267 16.6484 38.9197 16.4452 38.9068C16.0578 38.8821 15.936 38.921 15.7109 39.1416C15.3896 39.4566 15.3817 39.82 15.6886 40.1626C15.9452 40.4492 16.2534 40.5245 16.5946 40.3847C16.8273 40.2894 16.8496 40.2941 17.2465 40.5228C17.4726 40.653 17.6812 40.7943 17.7101 40.8367C17.7749 40.9319 18.0886 41.9203 18.1497 42.2215C18.2011 42.4755 18.325 42.4736 17.0342 42.2378C16.31 42.1055 14.7303 41.6661 14.6332 41.5701C14.6081 41.5454 14.5363 41.174 14.4737 40.7444C14.3007 39.5581 14.2827 39.5135 13.7857 39.0676C13.4286 38.7472 13.3383 38.6233 13.305 38.4086C13.2305 37.9269 12.7042 37.5873 12.2915 37.7548C11.4022 38.1159 11.7177 39.3546 12.6665 39.2271C12.9263 39.1923 12.9863 39.2156 13.3383 39.4894C13.7599 39.8172 13.7313 39.74 13.8546 40.8706L13.9017 41.3027L13.7357 41.2522C13.0845 41.0532 10.0798 39.3339 9.90868 39.0624C9.88645 39.0272 9.92925 38.6501 10.0041 38.2244C10.187 37.1831 10.1814 37.1082 9.88555 36.6355C9.66514 36.2833 9.63266 36.1793 9.64727 35.8687C9.66282 35.5371 9.64491 35.4907 9.4159 35.2659C9.19157 35.046 9.13988 35.0259 8.88536 35.0594C8.54085 35.1046 8.2872 35.3246 8.22899 35.6288C8.14447 36.0705 8.47093 36.466 8.92026 36.466C9.05575 36.466 9.14498 36.5514 9.34406 36.8727L9.59612 37.2798L9.48002 37.8372C9.28409 38.7789 9.36642 38.7745 8.46523 37.8905C8.02804 37.4617 7.33963 36.7034 6.93573 36.2053L6.20143 35.2997L6.64713 34.4139C6.90094 33.9094 7.09284 33.4391 7.09284 33.3208C7.09284 33.2066 7.04161 32.9346 6.97916 32.7164C6.87201 32.342 6.87283 32.3042 6.99096 32.0475C7.23413 31.5188 6.90756 31.0021 6.33052 31.0021C5.54093 31.0021 5.37325 32.0611 6.10808 32.4064C6.25521 32.4755 6.31864 32.5829 6.41049 32.9165L6.52699 33.3387L6.21727 33.9344C6.04688 34.262 5.87835 34.5589 5.84301 34.5938C5.73306 34.7023 4.13432 31.3613 3.72615 30.1701C3.56567 29.7018 3.28248 28.2767 3.28248 27.9369C3.28248 27.7997 3.32583 27.768 3.56539 27.7304C3.72106 27.706 3.8644 27.6458 3.88364 27.5967C3.91875 27.507 3.0281 26.1779 2.79334 25.9696C2.73718 25.9198 2.67056 25.8892 2.62808 25.891ZM27.7378 30.4715V30.9219C27.7378 31.3508 27.7457 31.372 27.9022 31.372C28.1057 31.372 28.2399 31.5213 28.2399 31.748C28.2399 31.9549 28.0417 32.1869 27.8653 32.1869C27.7541 32.1869 27.7378 32.2448 27.7378 32.6286C27.7378 33.0542 27.7441 33.0699 27.9107 33.0699C28.2839 33.0699 28.4987 33.5554 28.2464 33.8287C28.1833 33.897 28.0431 33.9529 27.9347 33.9529C27.7383 33.9529 27.7378 33.9544 27.7378 34.3942V34.8355H27.9477C28.2126 34.8355 28.6212 34.6703 28.837 34.4758C29.069 34.2667 29.2588 33.8327 29.2588 33.5112C29.2588 33.2354 29.061 32.7166 28.9243 32.6338C28.8738 32.6032 28.8937 32.5067 28.986 32.3377C29.1583 32.0226 29.1657 31.4884 29.0019 31.1734C28.8203 30.8244 28.4275 30.5477 28.0545 30.5065L27.7378 30.4715Z"/>
</mask>
<path d="M27.2633 0.200195L27.0514 0.375282C26.6343 0.719274 26.6348 1.37993 27.0522 1.72423L27.2632 1.89813H30.2748C33.5789 1.89813 33.5847 1.89763 33.7981 1.49304C33.8559 1.38347 33.9033 1.16641 33.9033 1.01076C33.9033 0.772561 33.8605 0.685934 33.6341 0.464021L33.3654 0.200195H30.3141H27.2633ZM14.5872 0.203274C14.4092 0.204814 14.1914 0.244548 14.1034 0.292412C13.5548 0.590827 13.5367 1.5065 14.0738 1.79217C14.3862 1.95835 14.8756 1.92764 15.1194 1.72649C15.7602 1.19794 15.4105 0.197191 14.5872 0.203274ZM19.9908 0.203274C19.8128 0.204814 19.595 0.244548 19.507 0.292412C18.9584 0.590827 18.9403 1.5065 19.4774 1.79217C19.7898 1.95835 20.2792 1.92764 20.523 1.72649C21.1638 1.19794 20.8141 0.197191 19.9908 0.203274ZM19.9011 4.93892C19.4859 4.93892 19.1602 5.12695 18.9541 5.48646C18.6482 6.02007 18.8064 6.61407 19.3499 6.97309C19.7985 7.26942 20.5843 7.10246 20.855 6.65316L20.9784 6.44863H23.4923H26.0057V10.8966V15.3449H25.2783H24.5509V12.0868V8.82859L24.3788 8.71797C24.0422 8.50178 22.1251 8.74099 20.808 9.16364C17.4236 10.2497 15.0357 12.8634 14.4647 16.1069C14.3912 16.5242 14.3642 17.0278 14.3794 17.6954L14.4017 18.6727H12.8056H11.2092L11.1431 18.4519L11.0765 18.231L10.3045 18.2119C9.30697 18.1872 9.30997 18.1846 9.30997 19.0719C9.30997 19.9848 9.29621 19.972 10.2809 19.9481L11.0765 19.929L11.1431 19.7069L11.2101 19.4853L12.8682 19.5032L14.5264 19.5216L14.6941 20.2685C14.9048 21.2076 15.4221 22.7397 15.8866 23.8C16.3695 24.9021 16.9528 25.9213 17.7522 27.0586C18.88 28.6629 19.2502 29.2856 19.503 30.006C19.661 30.4562 19.6673 30.7157 19.5232 30.8328C19.1661 31.1234 19.0424 31.8811 19.2805 32.3195C19.4068 32.552 19.4064 32.5562 19.2436 32.7974C18.7932 33.4645 19.0604 34.3773 19.8025 34.7078C20.0577 34.8214 20.3084 34.8328 22.6285 34.8343L25.1745 34.8358V34.3946V33.9533H22.6687C20.4342 33.9533 20.1489 33.9409 20.0359 33.8407C19.8688 33.6924 19.875 33.3757 20.0481 33.206C20.1815 33.0755 20.2789 33.0703 22.6805 33.0703H25.1745V32.629V32.1873H22.7377C20.5677 32.1873 20.2876 32.1752 20.1748 32.0751C20.0309 31.9475 20.0047 31.5776 20.1309 31.4539C20.1925 31.3936 20.8577 31.3724 22.6943 31.3724H25.1745V30.935V30.4973L24.8798 30.4766L24.5855 30.4555V26.6526V22.8497H25.2784H25.9713L25.9887 29.9752C26.0048 36.4874 26.0161 37.1118 26.1206 37.2249C26.2262 37.3392 26.3863 37.3487 28.1969 37.3487H30.1587L30.261 37.5425C30.379 37.7662 30.6574 37.9621 30.9576 38.0327V38.0335C31.2522 38.1028 31.2743 38.1013 31.5697 37.9981C32.0718 37.8225 32.3259 37.4632 32.3259 36.9285C32.3259 35.8657 30.9483 35.458 30.2931 36.3268L30.1364 36.5345H28.4868H26.8371V29.6756V22.8162H27.9802H29.1232V22.1712V21.5262H29.9545H30.7859V25.0235V28.5208H30.6267C30.3447 28.5208 30.3008 28.639 30.3008 29.4038C30.3008 29.8731 30.3298 30.1521 30.384 30.2052C30.5089 30.3277 31.9215 30.3164 32.0268 30.192C32.0793 30.1294 32.1003 29.8367 32.0872 29.3266L32.0674 28.5558L31.8595 28.5208L31.6517 28.4853L31.6339 24.7218C31.6178 21.3383 31.6045 20.9456 31.5019 20.8345C31.4005 20.7247 31.2626 20.7108 30.2558 20.7108H29.1233V20.0996V19.4884H32.96H36.7967L36.9814 19.7263C37.4497 20.3282 38.2757 20.3439 38.7764 19.7605C39.3697 19.0693 38.841 17.9942 37.9078 17.9945C37.5251 17.9947 37.1627 18.1739 36.9867 18.4502L36.8475 18.6682L32.9856 18.6705L29.1233 18.6728V18.0616V17.4504H30.3317C31.5019 17.4504 31.5436 17.4458 31.6481 17.2996C31.7377 17.1742 31.7556 16.8984 31.7556 15.6697V14.1907H31.9152C32.1973 14.1907 32.2407 14.0725 32.2407 13.3077C32.2407 12.8383 32.2117 12.5594 32.1575 12.5063C32.0326 12.3838 30.6204 12.3951 30.5152 12.5194C30.4626 12.582 30.4416 12.8748 30.4547 13.3853L30.4741 14.1569L30.6995 14.178L30.9243 14.1991V15.4175V16.6355H30.024H29.1232V15.9901V15.3451H27.9802H26.8371V10.6134C26.8371 6.30601 26.8271 5.87105 26.7227 5.75798C26.6152 5.64159 26.4329 5.63384 23.8211 5.63384H21.0345L20.8494 5.39588C20.6061 5.08311 20.3066 4.93892 19.9011 4.93892ZM34.4472 6.24768C34.3453 6.25153 34.2513 6.26724 34.2017 6.29819C34.0867 6.36981 32.5709 10.384 32.6157 10.4982C32.6397 10.5595 32.7686 10.591 32.9944 10.591H33.337L33.5152 10.1326C34.5025 7.59527 34.9224 6.40666 34.858 6.32963C34.8096 6.27172 34.6171 6.24191 34.4472 6.24768ZM31.5518 6.89231C31.5158 6.87052 30.8453 7.16633 30.0621 7.54967L28.6381 8.24683V8.49394V8.74065L30.041 9.35464C30.8125 9.69212 31.4752 9.96052 31.5133 9.95152C31.5514 9.94251 31.5916 9.78087 31.603 9.5922L31.6237 9.24919L30.6694 8.85287L29.7151 8.45653L30.6661 8.01644L31.6172 7.57634V7.25403C31.6172 7.07684 31.5878 6.91411 31.5518 6.89231ZM35.9126 6.90587C35.9055 6.90609 35.9013 6.9074 35.8988 6.90972C35.8629 6.9446 35.8438 7.1072 35.8557 7.27103L35.8776 7.56906L36.8129 8.01911L37.7481 8.46916L37.4364 8.60206C37.2649 8.67514 36.8361 8.85132 36.4837 8.99362L35.8431 9.25227V9.57657C35.8431 9.77316 35.8766 9.91142 35.9284 9.92834C35.9753 9.94366 36.4663 9.76094 37.0195 9.52205C37.5726 9.28316 38.1811 9.0236 38.3716 8.94508C38.8381 8.7528 38.8912 8.70505 38.8912 8.47791C38.8912 8.29185 38.8234 8.2495 37.4274 7.56469C36.5773 7.14765 36.0128 6.90249 35.9126 6.90587ZM23.7196 9.49473V11.3287V13.1628L23.4943 13.3199C23.1226 13.5799 22.6412 13.5403 21.8946 13.1886C21.5575 13.0299 21.2127 12.9001 21.1286 12.9001C20.9504 12.9001 19.3552 14.4428 19.3552 14.6152C19.3552 14.6738 19.4972 15.0101 19.671 15.3625C20.0264 16.0831 20.0698 16.4077 19.8654 16.8165C19.6997 17.1479 19.4174 17.329 18.711 17.5566C17.8602 17.8307 17.9004 17.756 17.9004 19.0568C17.9004 20.3704 17.8788 20.3298 18.7195 20.6043C20.0581 21.0413 20.2793 21.557 19.6653 22.8119C19.4576 23.2364 19.3554 23.5242 19.3828 23.6086C19.4536 23.8274 20.9787 25.2599 21.1408 25.2599C21.2203 25.2599 21.5761 25.1204 21.9311 24.9496C22.5033 24.6744 22.6182 24.6421 22.9431 24.6666C23.1661 24.6835 23.383 24.7482 23.4972 24.8318L23.6851 24.969L23.7029 27.7294L23.7212 30.4894H22.1348H20.5481L20.4998 30.2347C20.3461 29.427 19.7621 28.3603 18.5079 26.5969C16.5145 23.7942 15.2502 20.2702 15.2508 17.518C15.2512 15.7081 15.8241 14.1146 16.9861 12.6908C18.4388 10.911 20.596 9.83762 23.3213 9.5385L23.7196 9.49473ZM21.2423 13.7294L21.7708 13.9769C22.2335 14.1935 22.3641 14.2244 22.8189 14.2244C23.1046 14.2244 23.4245 14.1983 23.5292 14.1663L23.7196 14.1078V14.7501V15.3927L23.252 15.6231C22.3543 16.066 21.5591 17.0219 21.252 18.0273C21.0574 18.6645 21.0832 19.7245 21.3089 20.3484C21.6663 21.3368 22.3974 22.1629 23.3174 22.6181L23.7196 22.8171V23.4287V24.0403L23.5293 23.9882C23.4245 23.9595 23.1047 23.9357 22.8189 23.9357C22.3641 23.9357 22.2336 23.9665 21.7708 24.1832L21.2423 24.4307L20.7374 23.9325L20.2328 23.4347L20.4963 22.87C20.7143 22.4036 20.7601 22.2294 20.7617 21.8645C20.7656 20.914 20.2755 20.3346 19.1206 19.9246L18.6972 19.7742V19.0731V18.3719L19.1819 18.1957C20.1321 17.8499 20.5776 17.419 20.7365 16.6923C20.8347 16.2439 20.7717 15.8938 20.4776 15.2562L20.2328 14.7258L20.7374 14.2276L21.2423 13.7294ZM28.2225 16.1575V19.079V22.0002H26.4194C25.0401 22.0002 24.608 21.9804 24.5826 21.9154C24.5643 21.8687 24.5576 20.5622 24.5676 19.0122L24.5854 16.1937L26.4039 16.1758L28.2225 16.1575ZM23.6263 16.2956C23.7033 16.2956 23.7196 16.7934 23.7196 19.1141C23.7196 21.3243 23.7011 21.9325 23.6332 21.9309C23.5053 21.9286 22.9557 21.5168 22.7024 21.2338C21.614 20.0175 21.6305 18.1646 22.7406 16.9553C23.0327 16.6371 23.491 16.2956 23.6263 16.2956ZM25.9753 16.5125C25.9506 16.512 25.926 16.5124 25.9018 16.514L25.6246 16.5335V16.8347C25.6246 17.122 25.6361 17.1387 25.8674 17.1972C26.0007 17.2309 26.1251 17.2736 26.1442 17.2919C26.1633 17.3102 26.195 17.6469 26.2148 18.04C26.2494 18.7256 26.2592 18.7614 26.4527 18.9246C26.6367 19.0797 26.6436 19.1005 26.5314 19.1621C26.3216 19.2772 26.2136 19.6514 26.2136 20.2624C26.2136 20.8761 26.1975 20.9065 25.8385 20.9778C25.6503 21.0153 25.6223 21.0513 25.6031 21.2775C25.5911 21.4188 25.6162 21.5758 25.6591 21.6265C25.8402 21.8404 26.632 21.5571 26.889 21.1864C27.0242 20.9913 27.0449 20.8739 27.0449 20.3006C27.0449 19.5688 27.0662 19.5275 27.4813 19.4514L27.7447 19.4033L27.7236 19.0929C27.704 18.801 27.6885 18.7787 27.4605 18.7213C27.0673 18.6223 27.045 18.5782 27.0449 17.9004C27.0448 17.4463 27.0122 17.2169 26.9235 17.0428C26.7764 16.7541 26.3469 16.5186 25.9753 16.5125ZM13.1641 20.8876C12.8094 20.8967 12.4583 21.0638 12.237 21.3858C12.0521 21.6547 12.0262 22.1745 12.1826 22.4709C12.3177 22.727 12.6775 23.0172 12.919 23.0646C13.0928 23.0987 13.1343 23.163 13.3001 23.6551C13.5829 24.4947 14.0937 25.4398 14.9924 26.7879C15.4405 27.4603 15.9175 28.2093 16.0526 28.452C16.6142 29.461 16.8713 30.7259 17.0224 33.2211C17.0991 34.4868 17.1237 34.6572 17.2408 34.7412C17.5671 34.9751 17.9698 34.7295 17.9694 34.2967C17.9693 34.1637 17.9381 33.5657 17.9004 32.968C17.6928 29.6807 17.3992 28.7686 15.7591 26.3216C14.7669 24.8411 14.4479 24.2694 14.1598 23.4538L13.9414 22.8358L14.1261 22.5708C14.2857 22.3419 14.3067 22.2528 14.2824 21.9146C14.2642 21.661 14.2047 21.4576 14.1131 21.3372C13.8773 21.0271 13.5188 20.8784 13.1641 20.8876ZM35.9642 21.5915C35.9166 21.5908 35.231 21.8705 34.4403 22.2131L33.0026 22.8362V24.0109C33.0026 25.3791 33.0595 25.7115 33.4186 26.4493C33.8399 27.3146 34.4972 27.9437 35.3463 28.2941C35.846 28.5002 36.1814 28.473 36.7983 28.1767C37.4105 27.8826 38.084 27.2205 38.4248 26.5774C38.8092 25.8521 38.8896 25.414 38.8904 24.0288L38.8912 22.8314L37.4709 22.2123C36.6897 21.8716 36.0118 21.5922 35.9642 21.5915ZM35.9447 22.4307L36.9733 22.909L38.0023 23.3869L37.9792 24.4422L37.956 25.4979L37.6999 26.0239C37.4021 26.6351 36.9321 27.1335 36.4086 27.3936C35.9762 27.6083 35.8976 27.6082 35.4681 27.389C34.9808 27.1405 34.5048 26.6285 34.2009 26.0261L33.9378 25.5052L33.9146 24.4451L33.8915 23.3851L34.918 22.9076L35.9447 22.4307ZM12.5613 25.5333C12.2201 25.5348 11.8629 25.6747 11.6634 25.9233C11.4647 26.1709 11.3628 26.5647 11.4199 26.8631C11.5181 27.3763 12.1825 27.8142 12.7306 27.727C12.9423 27.6934 12.9826 27.7201 13.2818 28.0883C13.4594 28.307 13.7136 28.6886 13.8469 28.9363C14.3166 29.8097 14.6984 31.6821 14.763 33.4296C14.797 34.3495 14.8218 34.5263 14.9364 34.6692C15.0918 34.8629 15.3079 34.8823 15.5395 34.7233C15.7034 34.6108 15.7031 34.6105 15.6621 33.5176C15.6161 32.2886 15.4371 31.0014 15.1661 29.9538C14.8937 28.9007 14.5728 28.2699 13.8871 27.4394C13.6581 27.162 13.6398 27.1061 13.6398 26.6805C13.6398 26.1676 13.5306 25.9577 13.1211 25.6845C12.9651 25.5805 12.7661 25.5322 12.5613 25.5333ZM45.6831 25.8437C45.6659 25.8442 45.6495 25.8483 45.636 25.8568C45.4944 25.9437 44.4276 27.4501 44.4536 27.5264C44.4675 27.5673 44.6167 27.6274 44.7852 27.6597C44.9537 27.6921 45.1018 27.728 45.114 27.7393C45.1592 27.7814 44.833 29.5069 44.7004 29.9279C44.4196 30.8189 42.7646 34.408 42.5839 34.5175C42.5072 34.5639 41.8703 33.4255 41.8703 33.2422C41.8703 33.1777 41.9184 32.963 41.9771 32.7651C42.0639 32.4724 42.1235 32.389 42.2969 32.3186C42.5358 32.2216 42.7703 31.8941 42.7707 31.6573C42.7711 31.3889 42.5668 31.0952 42.3059 30.9884C42.0037 30.8646 41.7617 30.914 41.5066 31.1519C41.3528 31.2953 41.3158 31.3896 41.3158 31.6413C41.3158 31.8128 41.3604 32.0153 41.4145 32.091C41.5005 32.2114 41.4959 32.2876 41.378 32.7002C41.3038 32.9596 41.2605 33.2483 41.2817 33.3416C41.3029 33.435 41.5109 33.8989 41.7441 34.3723L42.1683 35.233L41.7993 35.6965C40.993 36.7094 39.9738 37.8367 39.5342 38.2022L39.0711 38.5874L38.9855 38.2225C38.9385 38.0218 38.8787 37.6965 38.8527 37.4991C38.8085 37.1637 38.8218 37.116 39.0569 36.7689C39.2705 36.4535 39.3404 36.3977 39.5209 36.3977C39.6633 36.3977 39.7999 36.3322 39.9357 36.1991C40.4973 35.6486 39.8123 34.712 39.1088 35.0686C38.8132 35.2185 38.6614 35.5253 38.7188 35.8581C38.7576 36.0839 38.7287 36.1773 38.5158 36.5154C38.227 36.9741 38.1979 37.3177 38.3717 38.2082C38.5375 39.0575 38.5876 38.9697 37.5578 39.6367C36.6592 40.2189 34.7562 41.2193 34.5475 41.2193C34.4667 41.2193 34.4515 41.1681 34.4818 40.9988C34.5036 40.8774 34.5422 40.5795 34.5679 40.3367C34.6261 39.784 34.6624 39.7166 35.0777 39.3948C35.3911 39.152 35.4408 39.1353 35.7661 39.166C36.0946 39.197 36.132 39.1838 36.3608 38.9595C36.6338 38.6918 36.6841 38.3747 36.5069 38.0387C36.3369 37.7163 35.8965 37.5679 35.5417 37.7132C35.2515 37.832 35.1041 38.0351 35.0416 38.4012C35.0035 38.624 34.9283 38.725 34.6226 38.9643C34.4177 39.1247 34.206 39.3397 34.1522 39.4418C34.0984 39.5438 33.9916 40.0494 33.9147 40.5655C33.8379 41.0816 33.7644 41.5138 33.7519 41.5261C33.6806 41.596 31.9985 42.0508 31.3944 42.1635C30.2109 42.3843 30.1622 42.3894 30.1661 42.2921C30.1684 42.2437 30.285 41.8687 30.4259 41.4588L30.682 40.7135L31.0631 40.4883C31.3547 40.316 31.4927 40.2728 31.6517 40.3033C32.2434 40.4168 32.2753 40.4149 32.518 40.2543C32.855 40.0313 32.9693 39.6804 32.8224 39.3204C32.7627 39.1741 32.6332 39.0025 32.5346 38.9392C32.3258 38.805 31.9186 38.7885 31.696 38.9054C31.5179 38.9988 31.2714 39.3643 31.271 39.5357C31.2708 39.6068 31.0905 39.7546 30.803 39.9192C30.5455 40.0666 30.2826 40.2437 30.2188 40.3128C30.1551 40.3819 29.9489 40.8814 29.761 41.423L29.4192 42.4078L27.6258 42.4457C25.8708 42.4828 25.8219 42.4879 25.3304 42.6745C25.0585 42.7777 24.8351 42.8825 24.8282 42.91C24.8282 42.9102 24.8282 42.9108 24.8282 42.9116C24.8282 42.937 24.9451 43.07 25.0884 43.2072L25.349 43.4567L25.7968 43.3202C26.0984 43.2282 26.3887 43.1899 26.6878 43.2032L27.131 43.2231L27.6948 44.1889C28.0048 44.72 28.3057 45.2012 28.3638 45.2581C28.4218 45.315 28.7336 45.449 29.0563 45.5557L29.6428 45.7495V46.0129V46.2763L30.2663 46.4602C31.2472 46.7494 31.2322 46.7543 31.4451 46.0937C31.5442 45.7863 31.6317 45.4291 31.6388 45.3002L31.6517 45.0663L31.1334 44.9051C30.8481 44.8166 30.486 44.7269 30.3288 44.7058C30.0576 44.6693 30.0394 44.6783 29.968 44.8793C29.9266 44.9957 29.871 45.0905 29.8446 45.0905C29.8181 45.0905 29.5841 45.0286 29.3246 44.9529C28.9836 44.8533 28.8163 44.7642 28.7214 44.6306C28.5632 44.4079 27.9457 43.2957 27.9457 43.2335V43.2327C27.9457 43.2325 27.946 43.2317 27.9461 43.2315C27.9462 43.2313 27.9467 43.2307 27.9469 43.2299C27.9726 43.2072 28.2552 43.189 28.5963 43.189C29.3416 43.189 30.4168 43.0927 31.2669 42.9498L31.8522 42.8515L32.5674 43.5929C33.4963 44.5555 33.612 44.6236 34.3937 44.6673C34.9456 44.6981 35.0119 44.7159 35.0119 44.8328C35.0119 44.9048 35.0439 45.0228 35.0834 45.095C35.1478 45.2131 35.2349 45.2263 35.9407 45.2263H36.7265L36.7696 45.0138C36.8251 44.7413 36.8252 44.2443 36.7691 43.8436L36.7249 43.5284H35.9399C35.2348 43.5284 35.1478 43.5417 35.0834 43.6597C35.044 43.7319 35.0119 43.852 35.0119 43.9263C35.0119 44.0526 34.977 44.0588 34.4749 44.0246L33.9378 43.988L33.3619 43.4357C33.0449 43.1319 32.7565 42.8324 32.7213 42.77C32.6664 42.6726 32.7527 42.6257 33.3322 42.4389C34.2331 42.1486 35.3424 41.7044 36.1119 41.3256C36.4579 41.1552 36.77 41.0156 36.8057 41.0156C36.8413 41.0156 37.2153 41.215 37.6362 41.4585C38.0571 41.7019 38.492 41.9186 38.6027 41.9403C38.7775 41.9746 39.4463 41.8784 39.7027 41.782C39.7521 41.7634 39.8212 41.8292 39.8618 41.934C39.929 42.1071 39.955 42.117 40.2613 42.086C40.4414 42.0677 40.7714 41.9998 40.9947 41.9348L41.4007 41.8166L41.356 41.5349C41.2747 41.0239 41.0879 40.4605 40.9875 40.4227C40.8717 40.3792 39.8076 40.647 39.6784 40.7521C39.6262 40.7946 39.6054 40.8998 39.6276 41.0088C39.6633 41.1837 39.6463 41.1976 39.3078 41.2742C38.7656 41.3969 38.6946 41.382 38.06 41.0088C37.7361 40.8183 37.4606 40.6525 37.4479 40.6407C37.4351 40.629 37.7157 40.4284 38.0714 40.1951C39.128 39.5018 39.9995 38.8208 40.5848 38.2309L41.1352 37.6766L41.9012 37.7845C43.0774 37.9506 43.208 37.9382 43.7209 37.6106L44.1613 37.3292L44.3229 37.4785L44.4845 37.6273L45.0487 37.2107C45.3915 36.9574 45.5942 36.7631 45.5662 36.7149C45.4417 36.4999 44.9177 35.8025 44.8222 35.7248C44.7299 35.6498 44.6483 35.6825 44.2791 35.9413C43.6666 36.3706 43.5705 36.4858 43.6799 36.6576C43.785 36.8224 43.7289 36.9046 43.3235 37.18C43.0491 37.3665 43.0454 37.3669 42.5109 37.2847C41.8286 37.1797 41.6622 37.1406 41.6637 37.0865C41.6644 37.0626 41.8996 36.7525 42.1866 36.3977C42.7843 35.6584 43.2374 34.9492 43.7128 34.0078L44.0448 33.3496L44.4991 33.3083C44.7488 33.2856 45.217 33.2384 45.5394 33.2032L46.1256 33.1392L46.5526 32.7242C46.9705 32.3181 46.9838 32.3114 47.1481 32.417C47.3109 32.5216 47.3246 32.516 47.5962 32.2371C47.9823 31.8407 48.2317 31.4898 48.1958 31.3935C48.1413 31.2478 47.2076 30.5419 47.1152 30.5766C47.0223 30.6115 46.2348 31.5252 46.2348 31.598C46.2348 31.6204 46.3038 31.7016 46.3882 31.7787L46.5412 31.9188L46.182 32.2713L45.8224 32.6239L45.1278 32.6509C44.7638 32.6652 44.4627 32.6603 44.4353 32.6402C44.4351 32.64 44.4347 32.6394 44.4346 32.6387L44.4338 32.6379L44.4333 32.6371C44.4333 32.6144 44.6027 32.2054 44.8096 31.7286C45.3469 30.4906 45.5273 29.9079 45.7189 28.7912C45.8118 28.2496 45.888 27.795 45.8882 27.7809V27.7801L45.8886 27.7793C45.9025 27.7678 46.0538 27.777 46.236 27.8004C46.4976 27.8344 46.5925 27.8227 46.6196 27.7534C46.6557 27.6613 45.9383 26.0458 45.7924 25.8903C45.7631 25.8591 45.7209 25.8426 45.6831 25.8437ZM2.62808 25.891C2.61826 25.8915 2.60961 25.8933 2.60294 25.8972C2.51853 25.9483 1.75904 27.6004 1.75904 27.7328C1.75904 27.8065 1.85641 27.8392 2.1207 27.8542L2.48238 27.8745L2.63582 28.7941C2.8132 29.8572 3.06194 30.6554 3.5873 31.8473L3.96155 32.6965L3.52642 32.7164C2.74129 32.7522 2.46912 32.6706 2.15359 32.3057C1.8858 31.996 1.87988 31.9788 1.9965 31.8525C2.16212 31.6731 2.10543 31.5462 1.63077 31.0324L1.22486 30.5927L0.952492 30.7777C0.802823 30.8794 0.559113 31.0846 0.410591 31.2337C0.0944029 31.5511 0.101414 31.5797 0.648437 32.1871C0.978889 32.554 0.988764 32.5589 1.20659 32.4784C1.42389 32.3981 1.43525 32.404 1.77285 32.7661C2.16266 33.1842 2.31314 33.2404 3.21385 33.3049C4.3948 33.3894 4.26585 33.3118 4.74254 34.2281C5.24034 35.1852 5.69212 35.8776 6.3029 36.6192C6.54931 36.9184 6.74145 37.1725 6.72991 37.1838C6.71836 37.1951 6.40889 37.2543 6.04228 37.3155C5.31206 37.4375 5.23091 37.4212 4.78394 37.0616C4.60487 36.9176 4.59536 36.8879 4.67312 36.7206C4.78084 36.4889 4.74036 36.4387 4.10564 36.0135L3.62302 35.69L3.45414 35.891C3.08006 36.3365 2.78531 36.798 2.82985 36.8687C2.92654 37.022 3.79331 37.6199 3.91893 37.6199C3.99064 37.6199 4.06709 37.5741 4.08901 37.5181C4.14666 37.3708 4.20107 37.3866 4.67679 37.688C5.17545 38.0039 5.29067 38.0143 6.44577 37.8511L7.21864 37.7421L7.79667 38.3151C8.34812 38.8617 9.57564 39.8039 10.4806 40.3755C10.7089 40.5197 10.8966 40.6541 10.9028 40.6772V40.6779C10.9031 40.6977 10.6193 40.8846 10.272 41.093L9.64034 41.4718L9.18086 41.358C8.72611 41.2454 8.72138 41.2419 8.74369 41.0281C8.76953 40.7805 8.70377 40.7437 7.90586 40.5558C7.49674 40.4595 7.42434 40.4577 7.33718 40.5435C7.20592 40.6726 6.9383 41.774 7.01893 41.853C7.11116 41.9434 7.99283 42.1702 8.25213 42.1702C8.3867 42.1702 8.4792 42.1353 8.47983 42.085C8.48297 41.8489 8.58123 41.8242 9.07207 41.9358C9.3355 41.9957 9.63676 42.028 9.74143 42.0074C9.84609 41.9869 10.2861 41.7705 10.7193 41.5267C11.1525 41.2829 11.5429 41.0834 11.5871 41.0834C11.6314 41.0834 11.8305 41.1729 12.03 41.2824C12.6143 41.6031 13.6386 42.0279 14.6669 42.3763C15.1936 42.5547 15.6438 42.7196 15.667 42.7424C15.7077 42.7822 15.5726 42.9371 14.8207 43.7149L14.4761 44.0714H13.9066H13.3367L13.3151 43.851L13.2936 43.6301L12.4448 43.611L11.5961 43.5919V44.4017C11.5961 45.0774 11.6142 45.2184 11.7057 45.2528C11.8481 45.3064 13.076 45.3064 13.2185 45.2528C13.2874 45.227 13.3281 45.1295 13.3281 44.9906V44.7694L13.9386 44.7352C14.2743 44.7164 14.625 44.6631 14.718 44.6166C14.8109 44.5701 15.2609 44.171 15.7182 43.7293L16.5495 42.9258L17.4153 43.0552C17.8916 43.1262 18.7567 43.2053 19.3377 43.2311C19.9111 43.2565 20.3795 43.3048 20.3939 43.3401C20.394 43.3402 20.3943 43.3409 20.3944 43.3416V43.3424C20.3944 43.484 19.6127 44.7603 19.4717 44.8489C19.3187 44.9452 18.5503 45.1817 18.4999 45.1494C18.4998 45.1492 18.4987 45.1483 18.4979 45.1482C18.4895 45.1354 18.4455 45.0404 18.4005 44.9377C18.3448 44.8106 18.2673 44.7511 18.1578 44.7511C17.9143 44.7511 16.8541 45.0675 16.7541 45.1701C16.683 45.2431 16.7029 45.3869 16.8589 45.9273C16.9647 46.2942 17.0868 46.6295 17.1304 46.6722C17.2143 46.7545 17.932 46.6075 18.476 46.3969C18.7201 46.3024 18.7384 46.2767 18.7184 46.0562L18.6968 45.8175L19.2805 45.6245C19.6015 45.5184 19.9289 45.3715 20.008 45.2982C20.087 45.2249 20.3989 44.7365 20.7013 44.2131C21.2472 43.268 21.2529 43.261 21.5326 43.2203C21.9277 43.1627 22.7434 43.3455 23.2326 43.6011C23.8049 43.9001 24.3586 44.4912 24.6712 45.1363C24.8943 45.5968 24.9298 45.7405 24.9533 46.2767C24.9773 46.8246 24.9643 46.9098 24.8315 47.0745C24.524 47.4558 23.8563 47.4389 23.5561 47.0423C23.3249 46.7369 23.319 46.1155 23.5415 45.4967C23.642 45.2173 23.7407 44.9409 23.7611 44.8824C23.7856 44.8117 23.7017 44.7103 23.511 44.5807C23.179 44.3552 23.2086 44.334 22.8494 45.0566C22.4495 45.861 22.3952 46.7939 22.713 47.3964C22.8344 47.6266 23.2548 47.9951 23.5407 48.1218C23.6761 48.1819 23.9355 48.2094 24.2518 48.1974C24.6758 48.1813 24.7938 48.1478 25.0482 47.9734C25.4313 47.7108 25.7769 47.2069 25.8353 46.825C25.9073 46.3548 25.701 45.4867 25.3507 44.7849C24.8375 43.7568 24.0076 43.0347 22.933 42.6811C22.4326 42.5162 22.3482 42.51 20.6818 42.51H18.9505L18.6583 41.6441C18.2535 40.4455 18.1927 40.3441 17.7162 40.0695C17.1857 39.7638 17.0687 39.6628 17.0687 39.5104C17.0687 39.3267 16.6484 38.9197 16.4452 38.9068C16.0578 38.8821 15.936 38.921 15.7109 39.1416C15.3896 39.4566 15.3817 39.82 15.6886 40.1626C15.9452 40.4492 16.2534 40.5245 16.5946 40.3847C16.8273 40.2894 16.8496 40.2941 17.2465 40.5228C17.4726 40.653 17.6812 40.7943 17.7101 40.8367C17.7749 40.9319 18.0886 41.9203 18.1497 42.2215C18.2011 42.4755 18.325 42.4736 17.0342 42.2378C16.31 42.1055 14.7303 41.6661 14.6332 41.5701C14.6081 41.5454 14.5363 41.174 14.4737 40.7444C14.3007 39.5581 14.2827 39.5135 13.7857 39.0676C13.4286 38.7472 13.3383 38.6233 13.305 38.4086C13.2305 37.9269 12.7042 37.5873 12.2915 37.7548C11.4022 38.1159 11.7177 39.3546 12.6665 39.2271C12.9263 39.1923 12.9863 39.2156 13.3383 39.4894C13.7599 39.8172 13.7313 39.74 13.8546 40.8706L13.9017 41.3027L13.7357 41.2522C13.0845 41.0532 10.0798 39.3339 9.90868 39.0624C9.88645 39.0272 9.92925 38.6501 10.0041 38.2244C10.187 37.1831 10.1814 37.1082 9.88555 36.6355C9.66514 36.2833 9.63266 36.1793 9.64727 35.8687C9.66282 35.5371 9.64491 35.4907 9.4159 35.2659C9.19157 35.046 9.13988 35.0259 8.88536 35.0594C8.54085 35.1046 8.2872 35.3246 8.22899 35.6288C8.14447 36.0705 8.47093 36.466 8.92026 36.466C9.05575 36.466 9.14498 36.5514 9.34406 36.8727L9.59612 37.2798L9.48002 37.8372C9.28409 38.7789 9.36642 38.7745 8.46523 37.8905C8.02804 37.4617 7.33963 36.7034 6.93573 36.2053L6.20143 35.2997L6.64713 34.4139C6.90094 33.9094 7.09284 33.4391 7.09284 33.3208C7.09284 33.2066 7.04161 32.9346 6.97916 32.7164C6.87201 32.342 6.87283 32.3042 6.99096 32.0475C7.23413 31.5188 6.90756 31.0021 6.33052 31.0021C5.54093 31.0021 5.37325 32.0611 6.10808 32.4064C6.25521 32.4755 6.31864 32.5829 6.41049 32.9165L6.52699 33.3387L6.21727 33.9344C6.04688 34.262 5.87835 34.5589 5.84301 34.5938C5.73306 34.7023 4.13432 31.3613 3.72615 30.1701C3.56567 29.7018 3.28248 28.2767 3.28248 27.9369C3.28248 27.7997 3.32583 27.768 3.56539 27.7304C3.72106 27.706 3.8644 27.6458 3.88364 27.5967C3.91875 27.507 3.0281 26.1779 2.79334 25.9696C2.73718 25.9198 2.67056 25.8892 2.62808 25.891ZM27.7378 30.4715V30.9219C27.7378 31.3508 27.7457 31.372 27.9022 31.372C28.1057 31.372 28.2399 31.5213 28.2399 31.748C28.2399 31.9549 28.0417 32.1869 27.8653 32.1869C27.7541 32.1869 27.7378 32.2448 27.7378 32.6286C27.7378 33.0542 27.7441 33.0699 27.9107 33.0699C28.2839 33.0699 28.4987 33.5554 28.2464 33.8287C28.1833 33.897 28.0431 33.9529 27.9347 33.9529C27.7383 33.9529 27.7378 33.9544 27.7378 34.3942V34.8355H27.9477C28.2126 34.8355 28.6212 34.6703 28.837 34.4758C29.069 34.2667 29.2588 33.8327 29.2588 33.5112C29.2588 33.2354 29.061 32.7166 28.9243 32.6338C28.8738 32.6032 28.8937 32.5067 28.986 32.3377C29.1583 32.0226 29.1657 31.4884 29.0019 31.1734C28.8203 30.8244 28.4275 30.5477 28.0545 30.5065L27.7378 30.4715Z" fill="#1E1E1E"/>
<path d="M27.2633 0.200195L27.0514 0.375282C26.6343 0.719274 26.6348 1.37993 27.0522 1.72423L27.2632 1.89813H30.2748C33.5789 1.89813 33.5847 1.89763 33.7981 1.49304C33.8559 1.38347 33.9033 1.16641 33.9033 1.01076C33.9033 0.772561 33.8605 0.685934 33.6341 0.464021L33.3654 0.200195H30.3141H27.2633ZM14.5872 0.203274C14.4092 0.204814 14.1914 0.244548 14.1034 0.292412C13.5548 0.590827 13.5367 1.5065 14.0738 1.79217C14.3862 1.95835 14.8756 1.92764 15.1194 1.72649C15.7602 1.19794 15.4105 0.197191 14.5872 0.203274ZM19.9908 0.203274C19.8128 0.204814 19.595 0.244548 19.507 0.292412C18.9584 0.590827 18.9403 1.5065 19.4774 1.79217C19.7898 1.95835 20.2792 1.92764 20.523 1.72649C21.1638 1.19794 20.8141 0.197191 19.9908 0.203274ZM19.9011 4.93892C19.4859 4.93892 19.1602 5.12695 18.9541 5.48646C18.6482 6.02007 18.8064 6.61407 19.3499 6.97309C19.7985 7.26942 20.5843 7.10246 20.855 6.65316L20.9784 6.44863H23.4923H26.0057V10.8966V15.3449H25.2783H24.5509V12.0868V8.82859L24.3788 8.71797C24.0422 8.50178 22.1251 8.74099 20.808 9.16364C17.4236 10.2497 15.0357 12.8634 14.4647 16.1069C14.3912 16.5242 14.3642 17.0278 14.3794 17.6954L14.4017 18.6727H12.8056H11.2092L11.1431 18.4519L11.0765 18.231L10.3045 18.2119C9.30697 18.1872 9.30997 18.1846 9.30997 19.0719C9.30997 19.9848 9.29621 19.972 10.2809 19.9481L11.0765 19.929L11.1431 19.7069L11.2101 19.4853L12.8682 19.5032L14.5264 19.5216L14.6941 20.2685C14.9048 21.2076 15.4221 22.7397 15.8866 23.8C16.3695 24.9021 16.9528 25.9213 17.7522 27.0586C18.88 28.6629 19.2502 29.2856 19.503 30.006C19.661 30.4562 19.6673 30.7157 19.5232 30.8328C19.1661 31.1234 19.0424 31.8811 19.2805 32.3195C19.4068 32.552 19.4064 32.5562 19.2436 32.7974C18.7932 33.4645 19.0604 34.3773 19.8025 34.7078C20.0577 34.8214 20.3084 34.8328 22.6285 34.8343L25.1745 34.8358V34.3946V33.9533H22.6687C20.4342 33.9533 20.1489 33.9409 20.0359 33.8407C19.8688 33.6924 19.875 33.3757 20.0481 33.206C20.1815 33.0755 20.2789 33.0703 22.6805 33.0703H25.1745V32.629V32.1873H22.7377C20.5677 32.1873 20.2876 32.1752 20.1748 32.0751C20.0309 31.9475 20.0047 31.5776 20.1309 31.4539C20.1925 31.3936 20.8577 31.3724 22.6943 31.3724H25.1745V30.935V30.4973L24.8798 30.4766L24.5855 30.4555V26.6526V22.8497H25.2784H25.9713L25.9887 29.9752C26.0048 36.4874 26.0161 37.1118 26.1206 37.2249C26.2262 37.3392 26.3863 37.3487 28.1969 37.3487H30.1587L30.261 37.5425C30.379 37.7662 30.6574 37.9621 30.9576 38.0327V38.0335C31.2522 38.1028 31.2743 38.1013 31.5697 37.9981C32.0718 37.8225 32.3259 37.4632 32.3259 36.9285C32.3259 35.8657 30.9483 35.458 30.2931 36.3268L30.1364 36.5345H28.4868H26.8371V29.6756V22.8162H27.9802H29.1232V22.1712V21.5262H29.9545H30.7859V25.0235V28.5208H30.6267C30.3447 28.5208 30.3008 28.639 30.3008 29.4038C30.3008 29.8731 30.3298 30.1521 30.384 30.2052C30.5089 30.3277 31.9215 30.3164 32.0268 30.192C32.0793 30.1294 32.1003 29.8367 32.0872 29.3266L32.0674 28.5558L31.8595 28.5208L31.6517 28.4853L31.6339 24.7218C31.6178 21.3383 31.6045 20.9456 31.5019 20.8345C31.4005 20.7247 31.2626 20.7108 30.2558 20.7108H29.1233V20.0996V19.4884H32.96H36.7967L36.9814 19.7263C37.4497 20.3282 38.2757 20.3439 38.7764 19.7605C39.3697 19.0693 38.841 17.9942 37.9078 17.9945C37.5251 17.9947 37.1627 18.1739 36.9867 18.4502L36.8475 18.6682L32.9856 18.6705L29.1233 18.6728V18.0616V17.4504H30.3317C31.5019 17.4504 31.5436 17.4458 31.6481 17.2996C31.7377 17.1742 31.7556 16.8984 31.7556 15.6697V14.1907H31.9152C32.1973 14.1907 32.2407 14.0725 32.2407 13.3077C32.2407 12.8383 32.2117 12.5594 32.1575 12.5063C32.0326 12.3838 30.6204 12.3951 30.5152 12.5194C30.4626 12.582 30.4416 12.8748 30.4547 13.3853L30.4741 14.1569L30.6995 14.178L30.9243 14.1991V15.4175V16.6355H30.024H29.1232V15.9901V15.3451H27.9802H26.8371V10.6134C26.8371 6.30601 26.8271 5.87105 26.7227 5.75798C26.6152 5.64159 26.4329 5.63384 23.8211 5.63384H21.0345L20.8494 5.39588C20.6061 5.08311 20.3066 4.93892 19.9011 4.93892ZM34.4472 6.24768C34.3453 6.25153 34.2513 6.26724 34.2017 6.29819C34.0867 6.36981 32.5709 10.384 32.6157 10.4982C32.6397 10.5595 32.7686 10.591 32.9944 10.591H33.337L33.5152 10.1326C34.5025 7.59527 34.9224 6.40666 34.858 6.32963C34.8096 6.27172 34.6171 6.24191 34.4472 6.24768ZM31.5518 6.89231C31.5158 6.87052 30.8453 7.16633 30.0621 7.54967L28.6381 8.24683V8.49394V8.74065L30.041 9.35464C30.8125 9.69212 31.4752 9.96052 31.5133 9.95152C31.5514 9.94251 31.5916 9.78087 31.603 9.5922L31.6237 9.24919L30.6694 8.85287L29.7151 8.45653L30.6661 8.01644L31.6172 7.57634V7.25403C31.6172 7.07684 31.5878 6.91411 31.5518 6.89231ZM35.9126 6.90587C35.9055 6.90609 35.9013 6.9074 35.8988 6.90972C35.8629 6.9446 35.8438 7.1072 35.8557 7.27103L35.8776 7.56906L36.8129 8.01911L37.7481 8.46916L37.4364 8.60206C37.2649 8.67514 36.8361 8.85132 36.4837 8.99362L35.8431 9.25227V9.57657C35.8431 9.77316 35.8766 9.91142 35.9284 9.92834C35.9753 9.94366 36.4663 9.76094 37.0195 9.52205C37.5726 9.28316 38.1811 9.0236 38.3716 8.94508C38.8381 8.7528 38.8912 8.70505 38.8912 8.47791C38.8912 8.29185 38.8234 8.2495 37.4274 7.56469C36.5773 7.14765 36.0128 6.90249 35.9126 6.90587ZM23.7196 9.49473V11.3287V13.1628L23.4943 13.3199C23.1226 13.5799 22.6412 13.5403 21.8946 13.1886C21.5575 13.0299 21.2127 12.9001 21.1286 12.9001C20.9504 12.9001 19.3552 14.4428 19.3552 14.6152C19.3552 14.6738 19.4972 15.0101 19.671 15.3625C20.0264 16.0831 20.0698 16.4077 19.8654 16.8165C19.6997 17.1479 19.4174 17.329 18.711 17.5566C17.8602 17.8307 17.9004 17.756 17.9004 19.0568C17.9004 20.3704 17.8788 20.3298 18.7195 20.6043C20.0581 21.0413 20.2793 21.557 19.6653 22.8119C19.4576 23.2364 19.3554 23.5242 19.3828 23.6086C19.4536 23.8274 20.9787 25.2599 21.1408 25.2599C21.2203 25.2599 21.5761 25.1204 21.9311 24.9496C22.5033 24.6744 22.6182 24.6421 22.9431 24.6666C23.1661 24.6835 23.383 24.7482 23.4972 24.8318L23.6851 24.969L23.7029 27.7294L23.7212 30.4894H22.1348H20.5481L20.4998 30.2347C20.3461 29.427 19.7621 28.3603 18.5079 26.5969C16.5145 23.7942 15.2502 20.2702 15.2508 17.518C15.2512 15.7081 15.8241 14.1146 16.9861 12.6908C18.4388 10.911 20.596 9.83762 23.3213 9.5385L23.7196 9.49473ZM21.2423 13.7294L21.7708 13.9769C22.2335 14.1935 22.3641 14.2244 22.8189 14.2244C23.1046 14.2244 23.4245 14.1983 23.5292 14.1663L23.7196 14.1078V14.7501V15.3927L23.252 15.6231C22.3543 16.066 21.5591 17.0219 21.252 18.0273C21.0574 18.6645 21.0832 19.7245 21.3089 20.3484C21.6663 21.3368 22.3974 22.1629 23.3174 22.6181L23.7196 22.8171V23.4287V24.0403L23.5293 23.9882C23.4245 23.9595 23.1047 23.9357 22.8189 23.9357C22.3641 23.9357 22.2336 23.9665 21.7708 24.1832L21.2423 24.4307L20.7374 23.9325L20.2328 23.4347L20.4963 22.87C20.7143 22.4036 20.7601 22.2294 20.7617 21.8645C20.7656 20.914 20.2755 20.3346 19.1206 19.9246L18.6972 19.7742V19.0731V18.3719L19.1819 18.1957C20.1321 17.8499 20.5776 17.419 20.7365 16.6923C20.8347 16.2439 20.7717 15.8938 20.4776 15.2562L20.2328 14.7258L20.7374 14.2276L21.2423 13.7294ZM28.2225 16.1575V19.079V22.0002H26.4194C25.0401 22.0002 24.608 21.9804 24.5826 21.9154C24.5643 21.8687 24.5576 20.5622 24.5676 19.0122L24.5854 16.1937L26.4039 16.1758L28.2225 16.1575ZM23.6263 16.2956C23.7033 16.2956 23.7196 16.7934 23.7196 19.1141C23.7196 21.3243 23.7011 21.9325 23.6332 21.9309C23.5053 21.9286 22.9557 21.5168 22.7024 21.2338C21.614 20.0175 21.6305 18.1646 22.7406 16.9553C23.0327 16.6371 23.491 16.2956 23.6263 16.2956ZM25.9753 16.5125C25.9506 16.512 25.926 16.5124 25.9018 16.514L25.6246 16.5335V16.8347C25.6246 17.122 25.6361 17.1387 25.8674 17.1972C26.0007 17.2309 26.1251 17.2736 26.1442 17.2919C26.1633 17.3102 26.195 17.6469 26.2148 18.04C26.2494 18.7256 26.2592 18.7614 26.4527 18.9246C26.6367 19.0797 26.6436 19.1005 26.5314 19.1621C26.3216 19.2772 26.2136 19.6514 26.2136 20.2624C26.2136 20.8761 26.1975 20.9065 25.8385 20.9778C25.6503 21.0153 25.6223 21.0513 25.6031 21.2775C25.5911 21.4188 25.6162 21.5758 25.6591 21.6265C25.8402 21.8404 26.632 21.5571 26.889 21.1864C27.0242 20.9913 27.0449 20.8739 27.0449 20.3006C27.0449 19.5688 27.0662 19.5275 27.4813 19.4514L27.7447 19.4033L27.7236 19.0929C27.704 18.801 27.6885 18.7787 27.4605 18.7213C27.0673 18.6223 27.045 18.5782 27.0449 17.9004C27.0448 17.4463 27.0122 17.2169 26.9235 17.0428C26.7764 16.7541 26.3469 16.5186 25.9753 16.5125ZM13.1641 20.8876C12.8094 20.8967 12.4583 21.0638 12.237 21.3858C12.0521 21.6547 12.0262 22.1745 12.1826 22.4709C12.3177 22.727 12.6775 23.0172 12.919 23.0646C13.0928 23.0987 13.1343 23.163 13.3001 23.6551C13.5829 24.4947 14.0937 25.4398 14.9924 26.7879C15.4405 27.4603 15.9175 28.2093 16.0526 28.452C16.6142 29.461 16.8713 30.7259 17.0224 33.2211C17.0991 34.4868 17.1237 34.6572 17.2408 34.7412C17.5671 34.9751 17.9698 34.7295 17.9694 34.2967C17.9693 34.1637 17.9381 33.5657 17.9004 32.968C17.6928 29.6807 17.3992 28.7686 15.7591 26.3216C14.7669 24.8411 14.4479 24.2694 14.1598 23.4538L13.9414 22.8358L14.1261 22.5708C14.2857 22.3419 14.3067 22.2528 14.2824 21.9146C14.2642 21.661 14.2047 21.4576 14.1131 21.3372C13.8773 21.0271 13.5188 20.8784 13.1641 20.8876ZM35.9642 21.5915C35.9166 21.5908 35.231 21.8705 34.4403 22.2131L33.0026 22.8362V24.0109C33.0026 25.3791 33.0595 25.7115 33.4186 26.4493C33.8399 27.3146 34.4972 27.9437 35.3463 28.2941C35.846 28.5002 36.1814 28.473 36.7983 28.1767C37.4105 27.8826 38.084 27.2205 38.4248 26.5774C38.8092 25.8521 38.8896 25.414 38.8904 24.0288L38.8912 22.8314L37.4709 22.2123C36.6897 21.8716 36.0118 21.5922 35.9642 21.5915ZM35.9447 22.4307L36.9733 22.909L38.0023 23.3869L37.9792 24.4422L37.956 25.4979L37.6999 26.0239C37.4021 26.6351 36.9321 27.1335 36.4086 27.3936C35.9762 27.6083 35.8976 27.6082 35.4681 27.389C34.9808 27.1405 34.5048 26.6285 34.2009 26.0261L33.9378 25.5052L33.9146 24.4451L33.8915 23.3851L34.918 22.9076L35.9447 22.4307ZM12.5613 25.5333C12.2201 25.5348 11.8629 25.6747 11.6634 25.9233C11.4647 26.1709 11.3628 26.5647 11.4199 26.8631C11.5181 27.3763 12.1825 27.8142 12.7306 27.727C12.9423 27.6934 12.9826 27.7201 13.2818 28.0883C13.4594 28.307 13.7136 28.6886 13.8469 28.9363C14.3166 29.8097 14.6984 31.6821 14.763 33.4296C14.797 34.3495 14.8218 34.5263 14.9364 34.6692C15.0918 34.8629 15.3079 34.8823 15.5395 34.7233C15.7034 34.6108 15.7031 34.6105 15.6621 33.5176C15.6161 32.2886 15.4371 31.0014 15.1661 29.9538C14.8937 28.9007 14.5728 28.2699 13.8871 27.4394C13.6581 27.162 13.6398 27.1061 13.6398 26.6805C13.6398 26.1676 13.5306 25.9577 13.1211 25.6845C12.9651 25.5805 12.7661 25.5322 12.5613 25.5333ZM45.6831 25.8437C45.6659 25.8442 45.6495 25.8483 45.636 25.8568C45.4944 25.9437 44.4276 27.4501 44.4536 27.5264C44.4675 27.5673 44.6167 27.6274 44.7852 27.6597C44.9537 27.6921 45.1018 27.728 45.114 27.7393C45.1592 27.7814 44.833 29.5069 44.7004 29.9279C44.4196 30.8189 42.7646 34.408 42.5839 34.5175C42.5072 34.5639 41.8703 33.4255 41.8703 33.2422C41.8703 33.1777 41.9184 32.963 41.9771 32.7651C42.0639 32.4724 42.1235 32.389 42.2969 32.3186C42.5358 32.2216 42.7703 31.8941 42.7707 31.6573C42.7711 31.3889 42.5668 31.0952 42.3059 30.9884C42.0037 30.8646 41.7617 30.914 41.5066 31.1519C41.3528 31.2953 41.3158 31.3896 41.3158 31.6413C41.3158 31.8128 41.3604 32.0153 41.4145 32.091C41.5005 32.2114 41.4959 32.2876 41.378 32.7002C41.3038 32.9596 41.2605 33.2483 41.2817 33.3416C41.3029 33.435 41.5109 33.8989 41.7441 34.3723L42.1683 35.233L41.7993 35.6965C40.993 36.7094 39.9738 37.8367 39.5342 38.2022L39.0711 38.5874L38.9855 38.2225C38.9385 38.0218 38.8787 37.6965 38.8527 37.4991C38.8085 37.1637 38.8218 37.116 39.0569 36.7689C39.2705 36.4535 39.3404 36.3977 39.5209 36.3977C39.6633 36.3977 39.7999 36.3322 39.9357 36.1991C40.4973 35.6486 39.8123 34.712 39.1088 35.0686C38.8132 35.2185 38.6614 35.5253 38.7188 35.8581C38.7576 36.0839 38.7287 36.1773 38.5158 36.5154C38.227 36.9741 38.1979 37.3177 38.3717 38.2082C38.5375 39.0575 38.5876 38.9697 37.5578 39.6367C36.6592 40.2189 34.7562 41.2193 34.5475 41.2193C34.4667 41.2193 34.4515 41.1681 34.4818 40.9988C34.5036 40.8774 34.5422 40.5795 34.5679 40.3367C34.6261 39.784 34.6624 39.7166 35.0777 39.3948C35.3911 39.152 35.4408 39.1353 35.7661 39.166C36.0946 39.197 36.132 39.1838 36.3608 38.9595C36.6338 38.6918 36.6841 38.3747 36.5069 38.0387C36.3369 37.7163 35.8965 37.5679 35.5417 37.7132C35.2515 37.832 35.1041 38.0351 35.0416 38.4012C35.0035 38.624 34.9283 38.725 34.6226 38.9643C34.4177 39.1247 34.206 39.3397 34.1522 39.4418C34.0984 39.5438 33.9916 40.0494 33.9147 40.5655C33.8379 41.0816 33.7644 41.5138 33.7519 41.5261C33.6806 41.596 31.9985 42.0508 31.3944 42.1635C30.2109 42.3843 30.1622 42.3894 30.1661 42.2921C30.1684 42.2437 30.285 41.8687 30.4259 41.4588L30.682 40.7135L31.0631 40.4883C31.3547 40.316 31.4927 40.2728 31.6517 40.3033C32.2434 40.4168 32.2753 40.4149 32.518 40.2543C32.855 40.0313 32.9693 39.6804 32.8224 39.3204C32.7627 39.1741 32.6332 39.0025 32.5346 38.9392C32.3258 38.805 31.9186 38.7885 31.696 38.9054C31.5179 38.9988 31.2714 39.3643 31.271 39.5357C31.2708 39.6068 31.0905 39.7546 30.803 39.9192C30.5455 40.0666 30.2826 40.2437 30.2188 40.3128C30.1551 40.3819 29.9489 40.8814 29.761 41.423L29.4192 42.4078L27.6258 42.4457C25.8708 42.4828 25.8219 42.4879 25.3304 42.6745C25.0585 42.7777 24.8351 42.8825 24.8282 42.91C24.8282 42.9102 24.8282 42.9108 24.8282 42.9116C24.8282 42.937 24.9451 43.07 25.0884 43.2072L25.349 43.4567L25.7968 43.3202C26.0984 43.2282 26.3887 43.1899 26.6878 43.2032L27.131 43.2231L27.6948 44.1889C28.0048 44.72 28.3057 45.2012 28.3638 45.2581C28.4218 45.315 28.7336 45.449 29.0563 45.5557L29.6428 45.7495V46.0129V46.2763L30.2663 46.4602C31.2472 46.7494 31.2322 46.7543 31.4451 46.0937C31.5442 45.7863 31.6317 45.4291 31.6388 45.3002L31.6517 45.0663L31.1334 44.9051C30.8481 44.8166 30.486 44.7269 30.3288 44.7058C30.0576 44.6693 30.0394 44.6783 29.968 44.8793C29.9266 44.9957 29.871 45.0905 29.8446 45.0905C29.8181 45.0905 29.5841 45.0286 29.3246 44.9529C28.9836 44.8533 28.8163 44.7642 28.7214 44.6306C28.5632 44.4079 27.9457 43.2957 27.9457 43.2335V43.2327C27.9457 43.2325 27.946 43.2317 27.9461 43.2315C27.9462 43.2313 27.9467 43.2307 27.9469 43.2299C27.9726 43.2072 28.2552 43.189 28.5963 43.189C29.3416 43.189 30.4168 43.0927 31.2669 42.9498L31.8522 42.8515L32.5674 43.5929C33.4963 44.5555 33.612 44.6236 34.3937 44.6673C34.9456 44.6981 35.0119 44.7159 35.0119 44.8328C35.0119 44.9048 35.0439 45.0228 35.0834 45.095C35.1478 45.2131 35.2349 45.2263 35.9407 45.2263H36.7265L36.7696 45.0138C36.8251 44.7413 36.8252 44.2443 36.7691 43.8436L36.7249 43.5284H35.9399C35.2348 43.5284 35.1478 43.5417 35.0834 43.6597C35.044 43.7319 35.0119 43.852 35.0119 43.9263C35.0119 44.0526 34.977 44.0588 34.4749 44.0246L33.9378 43.988L33.3619 43.4357C33.0449 43.1319 32.7565 42.8324 32.7213 42.77C32.6664 42.6726 32.7527 42.6257 33.3322 42.4389C34.2331 42.1486 35.3424 41.7044 36.1119 41.3256C36.4579 41.1552 36.77 41.0156 36.8057 41.0156C36.8413 41.0156 37.2153 41.215 37.6362 41.4585C38.0571 41.7019 38.492 41.9186 38.6027 41.9403C38.7775 41.9746 39.4463 41.8784 39.7027 41.782C39.7521 41.7634 39.8212 41.8292 39.8618 41.934C39.929 42.1071 39.955 42.117 40.2613 42.086C40.4414 42.0677 40.7714 41.9998 40.9947 41.9348L41.4007 41.8166L41.356 41.5349C41.2747 41.0239 41.0879 40.4605 40.9875 40.4227C40.8717 40.3792 39.8076 40.647 39.6784 40.7521C39.6262 40.7946 39.6054 40.8998 39.6276 41.0088C39.6633 41.1837 39.6463 41.1976 39.3078 41.2742C38.7656 41.3969 38.6946 41.382 38.06 41.0088C37.7361 40.8183 37.4606 40.6525 37.4479 40.6407C37.4351 40.629 37.7157 40.4284 38.0714 40.1951C39.128 39.5018 39.9995 38.8208 40.5848 38.2309L41.1352 37.6766L41.9012 37.7845C43.0774 37.9506 43.208 37.9382 43.7209 37.6106L44.1613 37.3292L44.3229 37.4785L44.4845 37.6273L45.0487 37.2107C45.3915 36.9574 45.5942 36.7631 45.5662 36.7149C45.4417 36.4999 44.9177 35.8025 44.8222 35.7248C44.7299 35.6498 44.6483 35.6825 44.2791 35.9413C43.6666 36.3706 43.5705 36.4858 43.6799 36.6576C43.785 36.8224 43.7289 36.9046 43.3235 37.18C43.0491 37.3665 43.0454 37.3669 42.5109 37.2847C41.8286 37.1797 41.6622 37.1406 41.6637 37.0865C41.6644 37.0626 41.8996 36.7525 42.1866 36.3977C42.7843 35.6584 43.2374 34.9492 43.7128 34.0078L44.0448 33.3496L44.4991 33.3083C44.7488 33.2856 45.217 33.2384 45.5394 33.2032L46.1256 33.1392L46.5526 32.7242C46.9705 32.3181 46.9838 32.3114 47.1481 32.417C47.3109 32.5216 47.3246 32.516 47.5962 32.2371C47.9823 31.8407 48.2317 31.4898 48.1958 31.3935C48.1413 31.2478 47.2076 30.5419 47.1152 30.5766C47.0223 30.6115 46.2348 31.5252 46.2348 31.598C46.2348 31.6204 46.3038 31.7016 46.3882 31.7787L46.5412 31.9188L46.182 32.2713L45.8224 32.6239L45.1278 32.6509C44.7638 32.6652 44.4627 32.6603 44.4353 32.6402C44.4351 32.64 44.4347 32.6394 44.4346 32.6387L44.4338 32.6379L44.4333 32.6371C44.4333 32.6144 44.6027 32.2054 44.8096 31.7286C45.3469 30.4906 45.5273 29.9079 45.7189 28.7912C45.8118 28.2496 45.888 27.795 45.8882 27.7809V27.7801L45.8886 27.7793C45.9025 27.7678 46.0538 27.777 46.236 27.8004C46.4976 27.8344 46.5925 27.8227 46.6196 27.7534C46.6557 27.6613 45.9383 26.0458 45.7924 25.8903C45.7631 25.8591 45.7209 25.8426 45.6831 25.8437ZM2.62808 25.891C2.61826 25.8915 2.60961 25.8933 2.60294 25.8972C2.51853 25.9483 1.75904 27.6004 1.75904 27.7328C1.75904 27.8065 1.85641 27.8392 2.1207 27.8542L2.48238 27.8745L2.63582 28.7941C2.8132 29.8572 3.06194 30.6554 3.5873 31.8473L3.96155 32.6965L3.52642 32.7164C2.74129 32.7522 2.46912 32.6706 2.15359 32.3057C1.8858 31.996 1.87988 31.9788 1.9965 31.8525C2.16212 31.6731 2.10543 31.5462 1.63077 31.0324L1.22486 30.5927L0.952492 30.7777C0.802823 30.8794 0.559113 31.0846 0.410591 31.2337C0.0944029 31.5511 0.101414 31.5797 0.648437 32.1871C0.978889 32.554 0.988764 32.5589 1.20659 32.4784C1.42389 32.3981 1.43525 32.404 1.77285 32.7661C2.16266 33.1842 2.31314 33.2404 3.21385 33.3049C4.3948 33.3894 4.26585 33.3118 4.74254 34.2281C5.24034 35.1852 5.69212 35.8776 6.3029 36.6192C6.54931 36.9184 6.74145 37.1725 6.72991 37.1838C6.71836 37.1951 6.40889 37.2543 6.04228 37.3155C5.31206 37.4375 5.23091 37.4212 4.78394 37.0616C4.60487 36.9176 4.59536 36.8879 4.67312 36.7206C4.78084 36.4889 4.74036 36.4387 4.10564 36.0135L3.62302 35.69L3.45414 35.891C3.08006 36.3365 2.78531 36.798 2.82985 36.8687C2.92654 37.022 3.79331 37.6199 3.91893 37.6199C3.99064 37.6199 4.06709 37.5741 4.08901 37.5181C4.14666 37.3708 4.20107 37.3866 4.67679 37.688C5.17545 38.0039 5.29067 38.0143 6.44577 37.8511L7.21864 37.7421L7.79667 38.3151C8.34812 38.8617 9.57564 39.8039 10.4806 40.3755C10.7089 40.5197 10.8966 40.6541 10.9028 40.6772V40.6779C10.9031 40.6977 10.6193 40.8846 10.272 41.093L9.64034 41.4718L9.18086 41.358C8.72611 41.2454 8.72138 41.2419 8.74369 41.0281C8.76953 40.7805 8.70377 40.7437 7.90586 40.5558C7.49674 40.4595 7.42434 40.4577 7.33718 40.5435C7.20592 40.6726 6.9383 41.774 7.01893 41.853C7.11116 41.9434 7.99283 42.1702 8.25213 42.1702C8.3867 42.1702 8.4792 42.1353 8.47983 42.085C8.48297 41.8489 8.58123 41.8242 9.07207 41.9358C9.3355 41.9957 9.63676 42.028 9.74143 42.0074C9.84609 41.9869 10.2861 41.7705 10.7193 41.5267C11.1525 41.2829 11.5429 41.0834 11.5871 41.0834C11.6314 41.0834 11.8305 41.1729 12.03 41.2824C12.6143 41.6031 13.6386 42.0279 14.6669 42.3763C15.1936 42.5547 15.6438 42.7196 15.667 42.7424C15.7077 42.7822 15.5726 42.9371 14.8207 43.7149L14.4761 44.0714H13.9066H13.3367L13.3151 43.851L13.2936 43.6301L12.4448 43.611L11.5961 43.5919V44.4017C11.5961 45.0774 11.6142 45.2184 11.7057 45.2528C11.8481 45.3064 13.076 45.3064 13.2185 45.2528C13.2874 45.227 13.3281 45.1295 13.3281 44.9906V44.7694L13.9386 44.7352C14.2743 44.7164 14.625 44.6631 14.718 44.6166C14.8109 44.5701 15.2609 44.171 15.7182 43.7293L16.5495 42.9258L17.4153 43.0552C17.8916 43.1262 18.7567 43.2053 19.3377 43.2311C19.9111 43.2565 20.3795 43.3048 20.3939 43.3401C20.394 43.3402 20.3943 43.3409 20.3944 43.3416V43.3424C20.3944 43.484 19.6127 44.7603 19.4717 44.8489C19.3187 44.9452 18.5503 45.1817 18.4999 45.1494C18.4998 45.1492 18.4987 45.1483 18.4979 45.1482C18.4895 45.1354 18.4455 45.0404 18.4005 44.9377C18.3448 44.8106 18.2673 44.7511 18.1578 44.7511C17.9143 44.7511 16.8541 45.0675 16.7541 45.1701C16.683 45.2431 16.7029 45.3869 16.8589 45.9273C16.9647 46.2942 17.0868 46.6295 17.1304 46.6722C17.2143 46.7545 17.932 46.6075 18.476 46.3969C18.7201 46.3024 18.7384 46.2767 18.7184 46.0562L18.6968 45.8175L19.2805 45.6245C19.6015 45.5184 19.9289 45.3715 20.008 45.2982C20.087 45.2249 20.3989 44.7365 20.7013 44.2131C21.2472 43.268 21.2529 43.261 21.5326 43.2203C21.9277 43.1627 22.7434 43.3455 23.2326 43.6011C23.8049 43.9001 24.3586 44.4912 24.6712 45.1363C24.8943 45.5968 24.9298 45.7405 24.9533 46.2767C24.9773 46.8246 24.9643 46.9098 24.8315 47.0745C24.524 47.4558 23.8563 47.4389 23.5561 47.0423C23.3249 46.7369 23.319 46.1155 23.5415 45.4967C23.642 45.2173 23.7407 44.9409 23.7611 44.8824C23.7856 44.8117 23.7017 44.7103 23.511 44.5807C23.179 44.3552 23.2086 44.334 22.8494 45.0566C22.4495 45.861 22.3952 46.7939 22.713 47.3964C22.8344 47.6266 23.2548 47.9951 23.5407 48.1218C23.6761 48.1819 23.9355 48.2094 24.2518 48.1974C24.6758 48.1813 24.7938 48.1478 25.0482 47.9734C25.4313 47.7108 25.7769 47.2069 25.8353 46.825C25.9073 46.3548 25.701 45.4867 25.3507 44.7849C24.8375 43.7568 24.0076 43.0347 22.933 42.6811C22.4326 42.5162 22.3482 42.51 20.6818 42.51H18.9505L18.6583 41.6441C18.2535 40.4455 18.1927 40.3441 17.7162 40.0695C17.1857 39.7638 17.0687 39.6628 17.0687 39.5104C17.0687 39.3267 16.6484 38.9197 16.4452 38.9068C16.0578 38.8821 15.936 38.921 15.7109 39.1416C15.3896 39.4566 15.3817 39.82 15.6886 40.1626C15.9452 40.4492 16.2534 40.5245 16.5946 40.3847C16.8273 40.2894 16.8496 40.2941 17.2465 40.5228C17.4726 40.653 17.6812 40.7943 17.7101 40.8367C17.7749 40.9319 18.0886 41.9203 18.1497 42.2215C18.2011 42.4755 18.325 42.4736 17.0342 42.2378C16.31 42.1055 14.7303 41.6661 14.6332 41.5701C14.6081 41.5454 14.5363 41.174 14.4737 40.7444C14.3007 39.5581 14.2827 39.5135 13.7857 39.0676C13.4286 38.7472 13.3383 38.6233 13.305 38.4086C13.2305 37.9269 12.7042 37.5873 12.2915 37.7548C11.4022 38.1159 11.7177 39.3546 12.6665 39.2271C12.9263 39.1923 12.9863 39.2156 13.3383 39.4894C13.7599 39.8172 13.7313 39.74 13.8546 40.8706L13.9017 41.3027L13.7357 41.2522C13.0845 41.0532 10.0798 39.3339 9.90868 39.0624C9.88645 39.0272 9.92925 38.6501 10.0041 38.2244C10.187 37.1831 10.1814 37.1082 9.88555 36.6355C9.66514 36.2833 9.63266 36.1793 9.64727 35.8687C9.66282 35.5371 9.64491 35.4907 9.4159 35.2659C9.19157 35.046 9.13988 35.0259 8.88536 35.0594C8.54085 35.1046 8.2872 35.3246 8.22899 35.6288C8.14447 36.0705 8.47093 36.466 8.92026 36.466C9.05575 36.466 9.14498 36.5514 9.34406 36.8727L9.59612 37.2798L9.48002 37.8372C9.28409 38.7789 9.36642 38.7745 8.46523 37.8905C8.02804 37.4617 7.33963 36.7034 6.93573 36.2053L6.20143 35.2997L6.64713 34.4139C6.90094 33.9094 7.09284 33.4391 7.09284 33.3208C7.09284 33.2066 7.04161 32.9346 6.97916 32.7164C6.87201 32.342 6.87283 32.3042 6.99096 32.0475C7.23413 31.5188 6.90756 31.0021 6.33052 31.0021C5.54093 31.0021 5.37325 32.0611 6.10808 32.4064C6.25521 32.4755 6.31864 32.5829 6.41049 32.9165L6.52699 33.3387L6.21727 33.9344C6.04688 34.262 5.87835 34.5589 5.84301 34.5938C5.73306 34.7023 4.13432 31.3613 3.72615 30.1701C3.56567 29.7018 3.28248 28.2767 3.28248 27.9369C3.28248 27.7997 3.32583 27.768 3.56539 27.7304C3.72106 27.706 3.8644 27.6458 3.88364 27.5967C3.91875 27.507 3.0281 26.1779 2.79334 25.9696C2.73718 25.9198 2.67056 25.8892 2.62808 25.891ZM27.7378 30.4715V30.9219C27.7378 31.3508 27.7457 31.372 27.9022 31.372C28.1057 31.372 28.2399 31.5213 28.2399 31.748C28.2399 31.9549 28.0417 32.1869 27.8653 32.1869C27.7541 32.1869 27.7378 32.2448 27.7378 32.6286C27.7378 33.0542 27.7441 33.0699 27.9107 33.0699C28.2839 33.0699 28.4987 33.5554 28.2464 33.8287C28.1833 33.897 28.0431 33.9529 27.9347 33.9529C27.7383 33.9529 27.7378 33.9544 27.7378 34.3942V34.8355H27.9477C28.2126 34.8355 28.6212 34.6703 28.837 34.4758C29.069 34.2667 29.2588 33.8327 29.2588 33.5112C29.2588 33.2354 29.061 32.7166 28.9243 32.6338C28.8738 32.6032 28.8937 32.5067 28.986 32.3377C29.1583 32.0226 29.1657 31.4884 29.0019 31.1734C28.8203 30.8244 28.4275 30.5477 28.0545 30.5065L27.7378 30.4715Z" stroke="#1E1E1E" stroke-width="0.4" mask="url(#path-1-outside-1_590_420)"/>
</svg>
