<svg width="43" height="37" viewBox="0 0 43 37" fill="none" xmlns="http://www.w3.org/2000/svg">
<path fill-rule="evenodd" clip-rule="evenodd" d="M20.7231 0.104056C21.2101 -0.034533 21.7237 -0.0346601 22.2107 0.103524C23.2457 0.397259 24.2903 0.669706 25.3384 0.94306C30.2601 2.22668 35.2585 3.53032 39.7055 7.15235L41.7534 8.82033C42.5841 9.4969 42.9996 10.4984 43 11.5V25.5C43 26.3284 42.3284 27 41.5 27C40.6716 27 40 26.3284 40 25.5V15.6134L39.6742 15.8793C38.1332 17.1367 36.5255 18.1131 34.8777 18.9057C34.9564 19.0879 35 19.2889 35 19.5V28.0879C35 30.3544 33.6096 32.3889 31.4978 33.2122L23.4978 36.3311C22.213 36.832 20.787 36.832 19.5022 36.3311L11.5022 33.2122C9.39044 32.3889 8 30.3544 8 28.0879V19.5C8 19.2835 8.04585 19.0778 8.12836 18.8919C6.46766 18.0947 4.84745 17.1125 3.29449 15.8476L1.2466 14.1797C-0.414713 12.8265 -0.415585 10.1739 1.24429 8.81935L3.32585 7.12074C7.74073 3.51807 12.7039 2.22221 17.5891 0.9467C18.6394 0.672456 19.6862 0.399145 20.7231 0.104056ZM40 11.5012C39.9999 11.321 39.9271 11.202 39.8588 11.1464L37.811 9.47843C33.5 6.5 29.6587 5.18639 24.7798 3.90432C23.707 3.62241 22.6038 3.33252 21.4679 3.01117C20.327 3.33484 19.2198 3.62612 18.1434 3.9093C13.3036 5.18256 9.08646 6.29202 5.22256 9.44506L3.141 11.1437C3.07263 11.1995 2.99993 11.3186 3 11.4988C3.00007 11.679 3.07286 11.798 3.14117 11.8536L5.18905 13.5216C9.08569 16.6953 13.3413 17.8136 18.2202 19.0957C19.2931 19.3776 20.3961 19.6675 21.5321 19.9888C22.6729 19.6652 23.78 19.3739 24.8563 19.0908C29.6961 17.8175 33.9135 16.708 37.7774 13.5549L39.859 11.8563C39.9273 11.8006 39.9999 11.6811 40 11.5012ZM25.4109 22.0533C27.6106 21.479 29.826 20.9005 32 20.1093V28.0879C32 29.1181 31.368 30.0429 30.4081 30.4171L22.4081 33.536C21.8241 33.7637 21.1759 33.7637 20.5919 33.536L12.5919 30.4171C11.632 30.0429 11 29.1181 11 28.0879V20.0923C13.1975 20.8927 15.4374 21.4769 17.6616 22.0569C18.7096 22.3303 19.7543 22.6027 20.7893 22.8965C21.2763 23.0347 21.7899 23.0345 22.2769 22.8959C23.3138 22.6009 24.3606 22.3275 25.4109 22.0533Z" fill="white"/>
</svg>
