<svg width="49" height="49" viewBox="0 0 49 49" fill="none" xmlns="http://www.w3.org/2000/svg">
<mask id="path-1-outside-1_590_427" maskUnits="userSpaceOnUse" x="-0.800781" y="24.2935" width="50" height="25" fill="black">
<rect fill="white" x="-0.800781" y="24.2935" width="50" height="25"/>
<path d="M45.699 25.2939C45.6753 25.2962 45.6477 25.3146 45.609 25.3468C45.414 25.5092 44.4611 26.8999 44.4611 27.0221C44.4611 27.1069 44.5397 27.1497 44.7438 27.1772C44.8993 27.1981 45.0451 27.2341 45.0679 27.257C45.13 27.3193 44.8779 28.8632 44.7211 29.3804C44.6458 29.6288 44.4654 30.1313 44.3204 30.4969C44.0204 31.2537 42.8006 33.8764 42.6449 34.0996L42.5419 34.2473L42.4376 34.0878C42.3804 34.0001 42.2197 33.7016 42.0807 33.4247L41.828 32.9212L41.9477 32.4706C42.0223 32.1897 42.1038 32.02 42.1638 32.02C42.2168 32.02 42.3658 31.9139 42.4952 31.784C42.6849 31.5936 42.7309 31.4935 42.7309 31.2683C42.7309 30.7137 42.1748 30.346 41.7051 30.5897C41.2859 30.8073 41.1712 31.1853 41.3867 31.6411C41.4871 31.8533 41.4871 31.9065 41.3867 32.2529C41.2102 32.8623 41.2406 33.0211 41.7185 34.0063L42.1598 34.9161L41.8353 35.3349C40.6019 36.9277 39.1568 38.4479 39.0582 38.2566C39.033 38.2078 38.959 37.8909 38.8935 37.552L38.7747 36.9358L39.016 36.5446C39.1819 36.2757 39.3079 36.1468 39.4192 36.1327C40.1691 36.0372 40.425 35.2194 39.8304 34.8184C39.5042 34.5983 39.2554 34.6155 38.9568 34.8786C38.7225 35.0853 38.709 35.1195 38.7231 35.4867C38.7362 35.8269 38.7063 35.9272 38.4847 36.2882C38.1864 36.7738 38.1772 36.9056 38.3666 37.9595C38.441 38.3736 38.484 38.7411 38.4623 38.7764C38.2922 39.0527 35.2875 40.8118 34.6392 41.0146L34.4737 41.0663L34.522 40.555C34.6187 39.5303 34.6165 39.5369 35.0379 39.2049C35.3826 38.9334 35.452 38.905 35.6848 38.9424C36.2124 39.027 36.5698 38.7188 36.5698 38.1796C36.5698 37.6349 36.0592 37.248 35.5952 37.4409C35.2963 37.5651 35.0472 37.8936 35.0472 38.1629C35.0472 38.3555 34.9887 38.4369 34.6647 38.6957C34.4471 38.8696 34.2257 39.1213 34.1512 39.2794C34.0794 39.4323 33.966 39.9583 33.8994 40.4488C33.7592 41.4802 33.9041 41.3389 32.6047 41.7155C31.8969 41.9206 30.2098 42.2653 30.1626 42.2145C30.1536 42.2048 30.2597 41.8265 30.3987 41.374L30.6513 40.5514L31.0914 40.2868C31.5219 40.0278 31.5363 40.0242 31.7773 40.1252C32.1005 40.2608 32.4129 40.1967 32.6522 39.9461C33.0482 39.5312 32.906 38.8693 32.3727 38.6457C31.9456 38.4666 31.4428 38.7477 31.3096 39.2399C31.2538 39.4463 31.1761 39.5223 30.8432 39.6942C30.2152 40.0185 30.1136 40.1676 29.7501 41.2954L29.4256 42.3012H27.8503C26.1427 42.3012 25.7414 42.3481 25.1567 42.6167L24.7746 42.7925L25.048 43.066L25.3214 43.3399L25.7602 43.2028C26.0137 43.1235 26.395 43.0652 26.6627 43.0652H27.1263L27.6718 44.0368C27.9719 44.5711 28.2906 45.0771 28.38 45.1614C28.4694 45.2457 28.7971 45.3969 29.108 45.4972L29.673 45.6796L29.6778 45.9494L29.6825 46.2193L30.271 46.4086C30.5946 46.5126 30.9525 46.5915 31.0668 46.5852C31.2599 46.5739 31.2858 46.5392 31.433 46.087C31.5201 45.8195 31.6095 45.471 31.6318 45.3124C31.6807 44.9642 31.6684 44.9555 30.7731 44.7096L30.1335 44.5338L30.0288 44.6831C29.9715 44.7653 29.9246 44.8751 29.9246 44.927C29.9246 45.0342 29.7135 45.0017 29.1434 44.8073C28.8055 44.692 28.7902 44.6742 28.359 43.8947L27.9189 43.0998L28.4198 43.0839C29.2527 43.0574 30.6358 42.9283 31.2489 42.8201L31.8269 42.7184L32.7017 43.5939C33.6659 44.5594 33.7127 44.584 34.6145 44.5903L35.0473 44.5935V44.8353C35.0473 45.1387 35.1247 45.162 36.0508 45.1348L36.7431 45.1145V44.2809V43.4473H35.9124H35.0818L35.0473 43.6842L35.0124 43.9215L34.4588 43.9097L33.9051 43.8979L33.298 43.2596C32.9641 42.9086 32.7009 42.5912 32.7131 42.5547C32.7253 42.518 33.1855 42.3356 33.7356 42.1489C34.2857 41.9621 35.1829 41.5918 35.7295 41.3258C36.2761 41.0599 36.7543 40.8423 36.7922 40.8423C36.8301 40.8423 37.2497 41.0665 37.7247 41.3409L38.5882 41.8399L39.113 41.7516C39.4016 41.7029 39.678 41.6473 39.7275 41.6283C39.7825 41.6071 39.8362 41.6672 39.865 41.7825C39.9104 41.9641 39.9254 41.9696 40.2657 41.9319C40.4603 41.9103 40.7873 41.8414 40.9921 41.7789L41.3645 41.6649L41.3247 41.3307C41.303 41.1469 41.2338 40.8183 41.1706 40.6001L41.0558 40.2033L40.7419 40.2504C40.5692 40.2764 40.2528 40.351 40.039 40.4161C39.6696 40.5286 39.6495 40.5465 39.6297 40.7812C39.6099 41.0161 39.5919 41.0322 39.2611 41.1089C39.0697 41.1531 38.8608 41.1895 38.797 41.1895C38.6674 41.1894 37.4696 40.5102 37.4703 40.4373C37.4703 40.4371 37.4703 40.4367 37.4703 40.4365C37.4766 40.4076 37.6693 40.2633 37.9031 40.1129C38.7741 39.5525 39.9428 38.627 40.531 38.0321L41.1345 37.422L41.9153 37.5347C43.0811 37.7033 43.1921 37.693 43.6971 37.3654C44.0938 37.1081 44.141 37.0931 44.2495 37.1916C44.4253 37.3513 44.506 37.3292 44.9755 36.993C45.6336 36.5218 45.6324 36.524 45.3353 36.0992C44.8326 35.3806 44.7761 35.3292 44.5914 35.4272C44.5008 35.4752 44.2478 35.6524 44.0289 35.8207C43.6511 36.1112 43.534 36.328 43.6999 36.4309C43.8211 36.506 43.7772 36.5689 43.4128 36.842L43.0566 37.109L42.3602 36.993C41.9771 36.9292 41.6537 36.8668 41.6415 36.8546C41.6293 36.8423 41.8399 36.5543 42.1096 36.2148C42.7 35.4713 43.2223 34.6423 43.6918 33.7034L44.0402 33.0061L44.372 32.9671C44.5544 32.9454 44.9374 32.9086 45.2229 32.8852C46.0643 32.8162 46.2144 32.7548 46.5963 32.3248C46.897 31.9862 46.9569 31.9476 47.0802 32.0138C47.1576 32.0554 47.2662 32.0895 47.3215 32.0895C47.4277 32.0895 48.1992 31.1875 48.1992 31.0634C48.1992 30.9858 47.5835 30.4071 47.3061 30.2241C47.143 30.1164 47.1311 30.123 46.7374 30.5526C46.266 31.0669 46.202 31.2141 46.3696 31.4C46.4861 31.5292 46.4802 31.5468 46.2126 31.8636C45.8973 32.2369 45.6254 32.3199 44.8409 32.2832L44.4065 32.2629L44.78 31.3947C45.3104 30.1629 45.5408 29.3985 45.7214 28.2708L45.8792 27.2866L46.2244 27.3089C46.4969 27.3265 46.574 27.3074 46.5914 27.2198C46.6106 27.1234 46.0265 25.7712 45.8005 25.3886C45.7601 25.3201 45.7337 25.2903 45.699 25.2939ZM2.6947 25.385C2.66966 25.385 2.64619 25.3965 2.62092 25.4176C2.52356 25.4986 1.75172 27.1649 1.75172 27.294C1.75172 27.3348 1.91482 27.366 2.12933 27.366C2.50167 27.366 2.50727 27.3692 2.54345 27.5915C2.86355 29.5623 3.00663 30.0779 3.62315 31.4775C3.81203 31.9062 3.96669 32.2819 3.96669 32.3123C3.96669 32.3784 3.30751 32.3838 2.82453 32.3216C2.51923 32.2823 2.44327 32.2366 2.17963 31.9325L1.8807 31.5874L2.02185 31.4368C2.16122 31.2879 2.16124 31.2834 2.03119 31.0798C1.95874 30.9664 1.76088 30.7183 1.59152 30.5279C1.30104 30.2013 1.27398 30.1866 1.11373 30.2726C1.0203 30.3228 0.760587 30.5287 0.536566 30.7297C0.0681655 31.1501 0.0631736 31.1119 0.675686 31.7945C1.00421 32.1606 1.16732 32.2312 1.32302 32.075C1.38863 32.0091 1.50187 32.0849 1.843 32.4242L2.27861 32.8577L3.30355 32.9562C3.8672 33.0103 4.3368 33.0642 4.34716 33.0759C4.35752 33.0875 4.52551 33.4167 4.72031 33.8077C5.17931 34.7291 5.54619 35.3266 6.06974 36.0049C6.30276 36.3067 6.55145 36.6293 6.62256 36.7216C6.69375 36.814 6.73731 36.9044 6.7191 36.9227C6.70089 36.941 6.39722 37.0026 6.04459 37.0599L5.40374 37.1641L5.11212 36.9927C4.7059 36.7539 4.6113 36.6279 4.71381 36.4632C4.75871 36.3913 4.7792 36.2923 4.75965 36.243C4.71068 36.1197 3.83681 35.4773 3.70429 35.4672C3.57705 35.4574 2.85831 36.3601 2.86145 36.5254C2.86381 36.6533 3.76052 37.3692 3.91803 37.3692C3.97352 37.3692 4.05761 37.3224 4.10502 37.265C4.22654 37.1181 4.25954 37.1273 4.70206 37.4384C5.16383 37.763 5.26654 37.7728 6.46154 37.6033L7.26057 37.4897L7.70754 37.9586C8.27243 38.5512 8.89333 39.0599 9.98903 39.8277C10.4649 40.1612 10.8638 40.4602 10.8753 40.4923C10.9039 40.5727 9.75862 41.2596 9.59884 41.258C9.52796 41.2573 9.31425 41.2158 9.12388 41.166C8.79457 41.0798 8.77751 41.064 8.77751 40.8404C8.77751 40.6062 8.77594 40.6046 8.22386 40.4464C7.4866 40.235 7.34622 40.2535 7.24191 40.5742C7.11228 40.9727 6.98136 41.6681 7.02735 41.7143C7.09375 41.7809 8.06597 42.0204 8.27456 42.022C8.42045 42.0228 8.47365 41.9822 8.50818 41.8441C8.54295 41.7049 8.58597 41.6733 8.70003 41.7004C9.73589 41.9475 9.7576 41.9434 10.8534 41.2963C11.2113 41.0849 11.5376 40.912 11.5786 40.912C11.6195 40.912 11.9361 41.0544 12.2819 41.2287C13.051 41.6163 14.1587 42.0708 15.0594 42.368C15.4219 42.4875 15.7201 42.6023 15.7339 42.6272L15.7343 42.6281V42.6289C15.7343 42.65 15.4484 42.9602 15.0988 43.318L14.4632 43.9684H13.8872H13.3117V43.7254V43.482H12.4891C11.5259 43.482 11.5838 43.4237 11.5822 44.3974C11.5806 45.1996 11.6019 45.2192 12.4689 45.2176C12.8373 45.217 13.1736 45.1935 13.2164 45.1655C13.2591 45.1375 13.3152 45.0175 13.3409 44.8989L13.3875 44.6836L14.0194 44.6384C14.4215 44.6097 14.7162 44.5517 14.8294 44.4788C14.9273 44.4158 15.3504 44.0093 15.7692 43.5752L16.5305 42.7856L17.465 42.926C17.979 43.0031 18.8588 43.0863 19.4204 43.1112C19.9819 43.1362 20.4404 43.1752 20.4396 43.1979C20.4389 43.2206 20.2437 43.5803 20.0069 43.9973C19.5876 44.7358 19.5672 44.7587 19.2301 44.872C18.5306 45.1073 18.5054 45.1073 18.4242 44.8736C18.3299 44.602 18.126 44.5996 17.3267 44.8618L16.7381 45.0551L16.7515 45.2945C16.7586 45.4262 16.846 45.7912 16.945 46.1057C17.0848 46.5498 17.1532 46.6775 17.2524 46.6775C17.4338 46.6775 18.5859 46.3357 18.6862 46.2522C18.7356 46.2107 18.755 46.0914 18.7332 45.9567L18.6967 45.7304L19.2272 45.5757C19.9228 45.3729 20.1073 45.1896 20.7275 44.0835C21.0894 43.4382 21.277 43.1721 21.4057 43.1221C21.8094 42.9656 22.9881 43.2606 23.5663 43.6627C24.4513 44.2781 25.1009 45.6121 24.9912 46.5884C24.9403 47.0419 24.6536 47.3027 24.206 47.3027C23.7836 47.3027 23.4529 46.9933 23.3842 46.5339C23.3307 46.1755 23.4826 45.4277 23.6933 45.0132L23.8316 44.7413L23.574 44.528C23.4323 44.4108 23.2846 44.3247 23.2459 44.3367C23.1279 44.3734 22.736 45.1717 22.6237 45.6042C22.5655 45.8285 22.5187 46.2164 22.5195 46.4663C22.5218 47.2016 22.8855 47.7864 23.5201 48.0757C23.8628 48.2319 24.4429 48.2426 24.7876 48.0985C25.1271 47.9565 25.549 47.5443 25.7091 47.1985C25.9618 46.6529 25.806 45.5584 25.3416 44.6171C25.0506 44.0271 24.327 43.2468 23.7557 42.9068C22.9269 42.4135 22.5834 42.351 20.6639 42.3431L18.9721 42.336L18.6391 41.3701C18.4561 40.8388 18.2462 40.323 18.1727 40.2239C18.0991 40.1248 17.843 39.93 17.6036 39.7908C17.2564 39.589 17.1506 39.4861 17.0808 39.2824C16.8929 38.7338 16.4296 38.505 15.9662 38.7321C15.0387 39.1867 15.5929 40.5267 16.569 40.1893C16.8155 40.104 16.8558 40.1106 17.192 40.2951C17.3897 40.4036 17.5944 40.5285 17.647 40.5723C17.7248 40.6371 18.2262 42.0918 18.2262 42.2525C18.2262 42.3016 18.2176 42.3003 17.0747 42.0922C16.1854 41.9301 14.7652 41.5013 14.6566 41.3619C14.6158 41.3097 14.5442 40.9604 14.4972 40.5857C14.3546 39.4484 14.2706 39.2358 13.8129 38.8502C13.3216 38.4363 13.3144 38.4259 13.3128 38.1603C13.3105 37.6956 12.7811 37.3514 12.309 37.5078C11.7423 37.6955 11.6095 38.4391 12.0688 38.851C12.2675 39.0291 12.3321 39.0485 12.6326 39.0195C12.922 38.9916 13.0099 39.0148 13.2285 39.175C13.6911 39.5149 13.7367 39.6048 13.8356 40.3684C13.8864 40.7602 13.9145 41.0943 13.8981 41.1108C13.7968 41.2124 12.0919 40.3088 10.8715 39.5067C9.80287 38.8043 9.86256 38.9111 10.0234 37.9946C10.1901 37.0451 10.1673 36.7771 9.87944 36.3091C9.66667 35.9632 9.63771 35.8677 9.67664 35.6367C9.78515 34.9922 9.17614 34.537 8.60303 34.8344C8.34515 34.9682 8.25827 35.1347 8.25827 35.4946C8.25827 35.8601 8.55 36.1882 8.87437 36.1882C9.05179 36.1882 9.12432 36.2464 9.32945 36.5521C9.46372 36.7522 9.57359 36.9786 9.57362 37.0556C9.57372 37.3357 9.34674 38.334 9.28159 38.3418C9.06053 38.3418 7.74548 36.9332 6.6014 35.4706L6.23028 34.9964L6.65697 34.116C7.12456 33.1511 7.16984 32.8922 6.98144 32.264C6.89398 31.9724 6.89398 31.905 6.98144 31.7353C7.14482 31.4182 7.11035 31.0262 6.90073 30.8158C6.45862 30.3721 5.75087 30.5924 5.6519 31.2045C5.60056 31.5219 5.77814 31.8559 6.07291 31.997C6.26517 32.089 6.32426 32.1756 6.42659 32.5147C6.54558 32.9091 6.54532 32.9316 6.41764 33.2181C6.17983 33.7518 5.89562 34.2434 5.82506 34.2434C5.67525 34.2434 4.05752 30.7033 3.72609 29.6505C3.54945 29.0893 3.23685 27.3806 3.29941 27.3178C3.31738 27.2998 3.46023 27.2676 3.61658 27.2466C3.77295 27.2255 3.9196 27.1785 3.94228 27.1416C3.9845 27.073 3.17841 25.8402 2.88042 25.5175C2.7962 25.4263 2.74256 25.385 2.6947 25.385Z"/>
</mask>
<path d="M45.699 25.2939C45.6753 25.2962 45.6477 25.3146 45.609 25.3468C45.414 25.5092 44.4611 26.8999 44.4611 27.0221C44.4611 27.1069 44.5397 27.1497 44.7438 27.1772C44.8993 27.1981 45.0451 27.2341 45.0679 27.257C45.13 27.3193 44.8779 28.8632 44.7211 29.3804C44.6458 29.6288 44.4654 30.1313 44.3204 30.4969C44.0204 31.2537 42.8006 33.8764 42.6449 34.0996L42.5419 34.2473L42.4376 34.0878C42.3804 34.0001 42.2197 33.7016 42.0807 33.4247L41.828 32.9212L41.9477 32.4706C42.0223 32.1897 42.1038 32.02 42.1638 32.02C42.2168 32.02 42.3658 31.9139 42.4952 31.784C42.6849 31.5936 42.7309 31.4935 42.7309 31.2683C42.7309 30.7137 42.1748 30.346 41.7051 30.5897C41.2859 30.8073 41.1712 31.1853 41.3867 31.6411C41.4871 31.8533 41.4871 31.9065 41.3867 32.2529C41.2102 32.8623 41.2406 33.0211 41.7185 34.0063L42.1598 34.9161L41.8353 35.3349C40.6019 36.9277 39.1568 38.4479 39.0582 38.2566C39.033 38.2078 38.959 37.8909 38.8935 37.552L38.7747 36.9358L39.016 36.5446C39.1819 36.2757 39.3079 36.1468 39.4192 36.1327C40.1691 36.0372 40.425 35.2194 39.8304 34.8184C39.5042 34.5983 39.2554 34.6155 38.9568 34.8786C38.7225 35.0853 38.709 35.1195 38.7231 35.4867C38.7362 35.8269 38.7063 35.9272 38.4847 36.2882C38.1864 36.7738 38.1772 36.9056 38.3666 37.9595C38.441 38.3736 38.484 38.7411 38.4623 38.7764C38.2922 39.0527 35.2875 40.8118 34.6392 41.0146L34.4737 41.0663L34.522 40.555C34.6187 39.5303 34.6165 39.5369 35.0379 39.2049C35.3826 38.9334 35.452 38.905 35.6848 38.9424C36.2124 39.027 36.5698 38.7188 36.5698 38.1796C36.5698 37.6349 36.0592 37.248 35.5952 37.4409C35.2963 37.5651 35.0472 37.8936 35.0472 38.1629C35.0472 38.3555 34.9887 38.4369 34.6647 38.6957C34.4471 38.8696 34.2257 39.1213 34.1512 39.2794C34.0794 39.4323 33.966 39.9583 33.8994 40.4488C33.7592 41.4802 33.9041 41.3389 32.6047 41.7155C31.8969 41.9206 30.2098 42.2653 30.1626 42.2145C30.1536 42.2048 30.2597 41.8265 30.3987 41.374L30.6513 40.5514L31.0914 40.2868C31.5219 40.0278 31.5363 40.0242 31.7773 40.1252C32.1005 40.2608 32.4129 40.1967 32.6522 39.9461C33.0482 39.5312 32.906 38.8693 32.3727 38.6457C31.9456 38.4666 31.4428 38.7477 31.3096 39.2399C31.2538 39.4463 31.1761 39.5223 30.8432 39.6942C30.2152 40.0185 30.1136 40.1676 29.7501 41.2954L29.4256 42.3012H27.8503C26.1427 42.3012 25.7414 42.3481 25.1567 42.6167L24.7746 42.7925L25.048 43.066L25.3214 43.3399L25.7602 43.2028C26.0137 43.1235 26.395 43.0652 26.6627 43.0652H27.1263L27.6718 44.0368C27.9719 44.5711 28.2906 45.0771 28.38 45.1614C28.4694 45.2457 28.7971 45.3969 29.108 45.4972L29.673 45.6796L29.6778 45.9494L29.6825 46.2193L30.271 46.4086C30.5946 46.5126 30.9525 46.5915 31.0668 46.5852C31.2599 46.5739 31.2858 46.5392 31.433 46.087C31.5201 45.8195 31.6095 45.471 31.6318 45.3124C31.6807 44.9642 31.6684 44.9555 30.7731 44.7096L30.1335 44.5338L30.0288 44.6831C29.9715 44.7653 29.9246 44.8751 29.9246 44.927C29.9246 45.0342 29.7135 45.0017 29.1434 44.8073C28.8055 44.692 28.7902 44.6742 28.359 43.8947L27.9189 43.0998L28.4198 43.0839C29.2527 43.0574 30.6358 42.9283 31.2489 42.8201L31.8269 42.7184L32.7017 43.5939C33.6659 44.5594 33.7127 44.584 34.6145 44.5903L35.0473 44.5935V44.8353C35.0473 45.1387 35.1247 45.162 36.0508 45.1348L36.7431 45.1145V44.2809V43.4473H35.9124H35.0818L35.0473 43.6842L35.0124 43.9215L34.4588 43.9097L33.9051 43.8979L33.298 43.2596C32.9641 42.9086 32.7009 42.5912 32.7131 42.5547C32.7253 42.518 33.1855 42.3356 33.7356 42.1489C34.2857 41.9621 35.1829 41.5918 35.7295 41.3258C36.2761 41.0599 36.7543 40.8423 36.7922 40.8423C36.8301 40.8423 37.2497 41.0665 37.7247 41.3409L38.5882 41.8399L39.113 41.7516C39.4016 41.7029 39.678 41.6473 39.7275 41.6283C39.7825 41.6071 39.8362 41.6672 39.865 41.7825C39.9104 41.9641 39.9254 41.9696 40.2657 41.9319C40.4603 41.9103 40.7873 41.8414 40.9921 41.7789L41.3645 41.6649L41.3247 41.3307C41.303 41.1469 41.2338 40.8183 41.1706 40.6001L41.0558 40.2033L40.7419 40.2504C40.5692 40.2764 40.2528 40.351 40.039 40.4161C39.6696 40.5286 39.6495 40.5465 39.6297 40.7812C39.6099 41.0161 39.5919 41.0322 39.2611 41.1089C39.0697 41.1531 38.8608 41.1895 38.797 41.1895C38.6674 41.1894 37.4696 40.5102 37.4703 40.4373C37.4703 40.4371 37.4703 40.4367 37.4703 40.4365C37.4766 40.4076 37.6693 40.2633 37.9031 40.1129C38.7741 39.5525 39.9428 38.627 40.531 38.0321L41.1345 37.422L41.9153 37.5347C43.0811 37.7033 43.1921 37.693 43.6971 37.3654C44.0938 37.1081 44.141 37.0931 44.2495 37.1916C44.4253 37.3513 44.506 37.3292 44.9755 36.993C45.6336 36.5218 45.6324 36.524 45.3353 36.0992C44.8326 35.3806 44.7761 35.3292 44.5914 35.4272C44.5008 35.4752 44.2478 35.6524 44.0289 35.8207C43.6511 36.1112 43.534 36.328 43.6999 36.4309C43.8211 36.506 43.7772 36.5689 43.4128 36.842L43.0566 37.109L42.3602 36.993C41.9771 36.9292 41.6537 36.8668 41.6415 36.8546C41.6293 36.8423 41.8399 36.5543 42.1096 36.2148C42.7 35.4713 43.2223 34.6423 43.6918 33.7034L44.0402 33.0061L44.372 32.9671C44.5544 32.9454 44.9374 32.9086 45.2229 32.8852C46.0643 32.8162 46.2144 32.7548 46.5963 32.3248C46.897 31.9862 46.9569 31.9476 47.0802 32.0138C47.1576 32.0554 47.2662 32.0895 47.3215 32.0895C47.4277 32.0895 48.1992 31.1875 48.1992 31.0634C48.1992 30.9858 47.5835 30.4071 47.3061 30.2241C47.143 30.1164 47.1311 30.123 46.7374 30.5526C46.266 31.0669 46.202 31.2141 46.3696 31.4C46.4861 31.5292 46.4802 31.5468 46.2126 31.8636C45.8973 32.2369 45.6254 32.3199 44.8409 32.2832L44.4065 32.2629L44.78 31.3947C45.3104 30.1629 45.5408 29.3985 45.7214 28.2708L45.8792 27.2866L46.2244 27.3089C46.4969 27.3265 46.574 27.3074 46.5914 27.2198C46.6106 27.1234 46.0265 25.7712 45.8005 25.3886C45.7601 25.3201 45.7337 25.2903 45.699 25.2939ZM2.6947 25.385C2.66966 25.385 2.64619 25.3965 2.62092 25.4176C2.52356 25.4986 1.75172 27.1649 1.75172 27.294C1.75172 27.3348 1.91482 27.366 2.12933 27.366C2.50167 27.366 2.50727 27.3692 2.54345 27.5915C2.86355 29.5623 3.00663 30.0779 3.62315 31.4775C3.81203 31.9062 3.96669 32.2819 3.96669 32.3123C3.96669 32.3784 3.30751 32.3838 2.82453 32.3216C2.51923 32.2823 2.44327 32.2366 2.17963 31.9325L1.8807 31.5874L2.02185 31.4368C2.16122 31.2879 2.16124 31.2834 2.03119 31.0798C1.95874 30.9664 1.76088 30.7183 1.59152 30.5279C1.30104 30.2013 1.27398 30.1866 1.11373 30.2726C1.0203 30.3228 0.760587 30.5287 0.536566 30.7297C0.0681655 31.1501 0.0631736 31.1119 0.675686 31.7945C1.00421 32.1606 1.16732 32.2312 1.32302 32.075C1.38863 32.0091 1.50187 32.0849 1.843 32.4242L2.27861 32.8577L3.30355 32.9562C3.8672 33.0103 4.3368 33.0642 4.34716 33.0759C4.35752 33.0875 4.52551 33.4167 4.72031 33.8077C5.17931 34.7291 5.54619 35.3266 6.06974 36.0049C6.30276 36.3067 6.55145 36.6293 6.62256 36.7216C6.69375 36.814 6.73731 36.9044 6.7191 36.9227C6.70089 36.941 6.39722 37.0026 6.04459 37.0599L5.40374 37.1641L5.11212 36.9927C4.7059 36.7539 4.6113 36.6279 4.71381 36.4632C4.75871 36.3913 4.7792 36.2923 4.75965 36.243C4.71068 36.1197 3.83681 35.4773 3.70429 35.4672C3.57705 35.4574 2.85831 36.3601 2.86145 36.5254C2.86381 36.6533 3.76052 37.3692 3.91803 37.3692C3.97352 37.3692 4.05761 37.3224 4.10502 37.265C4.22654 37.1181 4.25954 37.1273 4.70206 37.4384C5.16383 37.763 5.26654 37.7728 6.46154 37.6033L7.26057 37.4897L7.70754 37.9586C8.27243 38.5512 8.89333 39.0599 9.98903 39.8277C10.4649 40.1612 10.8638 40.4602 10.8753 40.4923C10.9039 40.5727 9.75862 41.2596 9.59884 41.258C9.52796 41.2573 9.31425 41.2158 9.12388 41.166C8.79457 41.0798 8.77751 41.064 8.77751 40.8404C8.77751 40.6062 8.77594 40.6046 8.22386 40.4464C7.4866 40.235 7.34622 40.2535 7.24191 40.5742C7.11228 40.9727 6.98136 41.6681 7.02735 41.7143C7.09375 41.7809 8.06597 42.0204 8.27456 42.022C8.42045 42.0228 8.47365 41.9822 8.50818 41.8441C8.54295 41.7049 8.58597 41.6733 8.70003 41.7004C9.73589 41.9475 9.7576 41.9434 10.8534 41.2963C11.2113 41.0849 11.5376 40.912 11.5786 40.912C11.6195 40.912 11.9361 41.0544 12.2819 41.2287C13.051 41.6163 14.1587 42.0708 15.0594 42.368C15.4219 42.4875 15.7201 42.6023 15.7339 42.6272L15.7343 42.6281V42.6289C15.7343 42.65 15.4484 42.9602 15.0988 43.318L14.4632 43.9684H13.8872H13.3117V43.7254V43.482H12.4891C11.5259 43.482 11.5838 43.4237 11.5822 44.3974C11.5806 45.1996 11.6019 45.2192 12.4689 45.2176C12.8373 45.217 13.1736 45.1935 13.2164 45.1655C13.2591 45.1375 13.3152 45.0175 13.3409 44.8989L13.3875 44.6836L14.0194 44.6384C14.4215 44.6097 14.7162 44.5517 14.8294 44.4788C14.9273 44.4158 15.3504 44.0093 15.7692 43.5752L16.5305 42.7856L17.465 42.926C17.979 43.0031 18.8588 43.0863 19.4204 43.1112C19.9819 43.1362 20.4404 43.1752 20.4396 43.1979C20.4389 43.2206 20.2437 43.5803 20.0069 43.9973C19.5876 44.7358 19.5672 44.7587 19.2301 44.872C18.5306 45.1073 18.5054 45.1073 18.4242 44.8736C18.3299 44.602 18.126 44.5996 17.3267 44.8618L16.7381 45.0551L16.7515 45.2945C16.7586 45.4262 16.846 45.7912 16.945 46.1057C17.0848 46.5498 17.1532 46.6775 17.2524 46.6775C17.4338 46.6775 18.5859 46.3357 18.6862 46.2522C18.7356 46.2107 18.755 46.0914 18.7332 45.9567L18.6967 45.7304L19.2272 45.5757C19.9228 45.3729 20.1073 45.1896 20.7275 44.0835C21.0894 43.4382 21.277 43.1721 21.4057 43.1221C21.8094 42.9656 22.9881 43.2606 23.5663 43.6627C24.4513 44.2781 25.1009 45.6121 24.9912 46.5884C24.9403 47.0419 24.6536 47.3027 24.206 47.3027C23.7836 47.3027 23.4529 46.9933 23.3842 46.5339C23.3307 46.1755 23.4826 45.4277 23.6933 45.0132L23.8316 44.7413L23.574 44.528C23.4323 44.4108 23.2846 44.3247 23.2459 44.3367C23.1279 44.3734 22.736 45.1717 22.6237 45.6042C22.5655 45.8285 22.5187 46.2164 22.5195 46.4663C22.5218 47.2016 22.8855 47.7864 23.5201 48.0757C23.8628 48.2319 24.4429 48.2426 24.7876 48.0985C25.1271 47.9565 25.549 47.5443 25.7091 47.1985C25.9618 46.6529 25.806 45.5584 25.3416 44.6171C25.0506 44.0271 24.327 43.2468 23.7557 42.9068C22.9269 42.4135 22.5834 42.351 20.6639 42.3431L18.9721 42.336L18.6391 41.3701C18.4561 40.8388 18.2462 40.323 18.1727 40.2239C18.0991 40.1248 17.843 39.93 17.6036 39.7908C17.2564 39.589 17.1506 39.4861 17.0808 39.2824C16.8929 38.7338 16.4296 38.505 15.9662 38.7321C15.0387 39.1867 15.5929 40.5267 16.569 40.1893C16.8155 40.104 16.8558 40.1106 17.192 40.2951C17.3897 40.4036 17.5944 40.5285 17.647 40.5723C17.7248 40.6371 18.2262 42.0918 18.2262 42.2525C18.2262 42.3016 18.2176 42.3003 17.0747 42.0922C16.1854 41.9301 14.7652 41.5013 14.6566 41.3619C14.6158 41.3097 14.5442 40.9604 14.4972 40.5857C14.3546 39.4484 14.2706 39.2358 13.8129 38.8502C13.3216 38.4363 13.3144 38.4259 13.3128 38.1603C13.3105 37.6956 12.7811 37.3514 12.309 37.5078C11.7423 37.6955 11.6095 38.4391 12.0688 38.851C12.2675 39.0291 12.3321 39.0485 12.6326 39.0195C12.922 38.9916 13.0099 39.0148 13.2285 39.175C13.6911 39.5149 13.7367 39.6048 13.8356 40.3684C13.8864 40.7602 13.9145 41.0943 13.8981 41.1108C13.7968 41.2124 12.0919 40.3088 10.8715 39.5067C9.80287 38.8043 9.86256 38.9111 10.0234 37.9946C10.1901 37.0451 10.1673 36.7771 9.87944 36.3091C9.66667 35.9632 9.63771 35.8677 9.67664 35.6367C9.78515 34.9922 9.17614 34.537 8.60303 34.8344C8.34515 34.9682 8.25827 35.1347 8.25827 35.4946C8.25827 35.8601 8.55 36.1882 8.87437 36.1882C9.05179 36.1882 9.12432 36.2464 9.32945 36.5521C9.46372 36.7522 9.57359 36.9786 9.57362 37.0556C9.57372 37.3357 9.34674 38.334 9.28159 38.3418C9.06053 38.3418 7.74548 36.9332 6.6014 35.4706L6.23028 34.9964L6.65697 34.116C7.12456 33.1511 7.16984 32.8922 6.98144 32.264C6.89398 31.9724 6.89398 31.905 6.98144 31.7353C7.14482 31.4182 7.11035 31.0262 6.90073 30.8158C6.45862 30.3721 5.75087 30.5924 5.6519 31.2045C5.60056 31.5219 5.77814 31.8559 6.07291 31.997C6.26517 32.089 6.32426 32.1756 6.42659 32.5147C6.54558 32.9091 6.54532 32.9316 6.41764 33.2181C6.17983 33.7518 5.89562 34.2434 5.82506 34.2434C5.67525 34.2434 4.05752 30.7033 3.72609 29.6505C3.54945 29.0893 3.23685 27.3806 3.29941 27.3178C3.31738 27.2998 3.46023 27.2676 3.61658 27.2466C3.77295 27.2255 3.9196 27.1785 3.94228 27.1416C3.9845 27.073 3.17841 25.8402 2.88042 25.5175C2.7962 25.4263 2.74256 25.385 2.6947 25.385Z" fill="#1E1E1E"/>
<path d="M45.699 25.2939C45.6753 25.2962 45.6477 25.3146 45.609 25.3468C45.414 25.5092 44.4611 26.8999 44.4611 27.0221C44.4611 27.1069 44.5397 27.1497 44.7438 27.1772C44.8993 27.1981 45.0451 27.2341 45.0679 27.257C45.13 27.3193 44.8779 28.8632 44.7211 29.3804C44.6458 29.6288 44.4654 30.1313 44.3204 30.4969C44.0204 31.2537 42.8006 33.8764 42.6449 34.0996L42.5419 34.2473L42.4376 34.0878C42.3804 34.0001 42.2197 33.7016 42.0807 33.4247L41.828 32.9212L41.9477 32.4706C42.0223 32.1897 42.1038 32.02 42.1638 32.02C42.2168 32.02 42.3658 31.9139 42.4952 31.784C42.6849 31.5936 42.7309 31.4935 42.7309 31.2683C42.7309 30.7137 42.1748 30.346 41.7051 30.5897C41.2859 30.8073 41.1712 31.1853 41.3867 31.6411C41.4871 31.8533 41.4871 31.9065 41.3867 32.2529C41.2102 32.8623 41.2406 33.0211 41.7185 34.0063L42.1598 34.9161L41.8353 35.3349C40.6019 36.9277 39.1568 38.4479 39.0582 38.2566C39.033 38.2078 38.959 37.8909 38.8935 37.552L38.7747 36.9358L39.016 36.5446C39.1819 36.2757 39.3079 36.1468 39.4192 36.1327C40.1691 36.0372 40.425 35.2194 39.8304 34.8184C39.5042 34.5983 39.2554 34.6155 38.9568 34.8786C38.7225 35.0853 38.709 35.1195 38.7231 35.4867C38.7362 35.8269 38.7063 35.9272 38.4847 36.2882C38.1864 36.7738 38.1772 36.9056 38.3666 37.9595C38.441 38.3736 38.484 38.7411 38.4623 38.7764C38.2922 39.0527 35.2875 40.8118 34.6392 41.0146L34.4737 41.0663L34.522 40.555C34.6187 39.5303 34.6165 39.5369 35.0379 39.2049C35.3826 38.9334 35.452 38.905 35.6848 38.9424C36.2124 39.027 36.5698 38.7188 36.5698 38.1796C36.5698 37.6349 36.0592 37.248 35.5952 37.4409C35.2963 37.5651 35.0472 37.8936 35.0472 38.1629C35.0472 38.3555 34.9887 38.4369 34.6647 38.6957C34.4471 38.8696 34.2257 39.1213 34.1512 39.2794C34.0794 39.4323 33.966 39.9583 33.8994 40.4488C33.7592 41.4802 33.9041 41.3389 32.6047 41.7155C31.8969 41.9206 30.2098 42.2653 30.1626 42.2145C30.1536 42.2048 30.2597 41.8265 30.3987 41.374L30.6513 40.5514L31.0914 40.2868C31.5219 40.0278 31.5363 40.0242 31.7773 40.1252C32.1005 40.2608 32.4129 40.1967 32.6522 39.9461C33.0482 39.5312 32.906 38.8693 32.3727 38.6457C31.9456 38.4666 31.4428 38.7477 31.3096 39.2399C31.2538 39.4463 31.1761 39.5223 30.8432 39.6942C30.2152 40.0185 30.1136 40.1676 29.7501 41.2954L29.4256 42.3012H27.8503C26.1427 42.3012 25.7414 42.3481 25.1567 42.6167L24.7746 42.7925L25.048 43.066L25.3214 43.3399L25.7602 43.2028C26.0137 43.1235 26.395 43.0652 26.6627 43.0652H27.1263L27.6718 44.0368C27.9719 44.5711 28.2906 45.0771 28.38 45.1614C28.4694 45.2457 28.7971 45.3969 29.108 45.4972L29.673 45.6796L29.6778 45.9494L29.6825 46.2193L30.271 46.4086C30.5946 46.5126 30.9525 46.5915 31.0668 46.5852C31.2599 46.5739 31.2858 46.5392 31.433 46.087C31.5201 45.8195 31.6095 45.471 31.6318 45.3124C31.6807 44.9642 31.6684 44.9555 30.7731 44.7096L30.1335 44.5338L30.0288 44.6831C29.9715 44.7653 29.9246 44.8751 29.9246 44.927C29.9246 45.0342 29.7135 45.0017 29.1434 44.8073C28.8055 44.692 28.7902 44.6742 28.359 43.8947L27.9189 43.0998L28.4198 43.0839C29.2527 43.0574 30.6358 42.9283 31.2489 42.8201L31.8269 42.7184L32.7017 43.5939C33.6659 44.5594 33.7127 44.584 34.6145 44.5903L35.0473 44.5935V44.8353C35.0473 45.1387 35.1247 45.162 36.0508 45.1348L36.7431 45.1145V44.2809V43.4473H35.9124H35.0818L35.0473 43.6842L35.0124 43.9215L34.4588 43.9097L33.9051 43.8979L33.298 43.2596C32.9641 42.9086 32.7009 42.5912 32.7131 42.5547C32.7253 42.518 33.1855 42.3356 33.7356 42.1489C34.2857 41.9621 35.1829 41.5918 35.7295 41.3258C36.2761 41.0599 36.7543 40.8423 36.7922 40.8423C36.8301 40.8423 37.2497 41.0665 37.7247 41.3409L38.5882 41.8399L39.113 41.7516C39.4016 41.7029 39.678 41.6473 39.7275 41.6283C39.7825 41.6071 39.8362 41.6672 39.865 41.7825C39.9104 41.9641 39.9254 41.9696 40.2657 41.9319C40.4603 41.9103 40.7873 41.8414 40.9921 41.7789L41.3645 41.6649L41.3247 41.3307C41.303 41.1469 41.2338 40.8183 41.1706 40.6001L41.0558 40.2033L40.7419 40.2504C40.5692 40.2764 40.2528 40.351 40.039 40.4161C39.6696 40.5286 39.6495 40.5465 39.6297 40.7812C39.6099 41.0161 39.5919 41.0322 39.2611 41.1089C39.0697 41.1531 38.8608 41.1895 38.797 41.1895C38.6674 41.1894 37.4696 40.5102 37.4703 40.4373C37.4703 40.4371 37.4703 40.4367 37.4703 40.4365C37.4766 40.4076 37.6693 40.2633 37.9031 40.1129C38.7741 39.5525 39.9428 38.627 40.531 38.0321L41.1345 37.422L41.9153 37.5347C43.0811 37.7033 43.1921 37.693 43.6971 37.3654C44.0938 37.1081 44.141 37.0931 44.2495 37.1916C44.4253 37.3513 44.506 37.3292 44.9755 36.993C45.6336 36.5218 45.6324 36.524 45.3353 36.0992C44.8326 35.3806 44.7761 35.3292 44.5914 35.4272C44.5008 35.4752 44.2478 35.6524 44.0289 35.8207C43.6511 36.1112 43.534 36.328 43.6999 36.4309C43.8211 36.506 43.7772 36.5689 43.4128 36.842L43.0566 37.109L42.3602 36.993C41.9771 36.9292 41.6537 36.8668 41.6415 36.8546C41.6293 36.8423 41.8399 36.5543 42.1096 36.2148C42.7 35.4713 43.2223 34.6423 43.6918 33.7034L44.0402 33.0061L44.372 32.9671C44.5544 32.9454 44.9374 32.9086 45.2229 32.8852C46.0643 32.8162 46.2144 32.7548 46.5963 32.3248C46.897 31.9862 46.9569 31.9476 47.0802 32.0138C47.1576 32.0554 47.2662 32.0895 47.3215 32.0895C47.4277 32.0895 48.1992 31.1875 48.1992 31.0634C48.1992 30.9858 47.5835 30.4071 47.3061 30.2241C47.143 30.1164 47.1311 30.123 46.7374 30.5526C46.266 31.0669 46.202 31.2141 46.3696 31.4C46.4861 31.5292 46.4802 31.5468 46.2126 31.8636C45.8973 32.2369 45.6254 32.3199 44.8409 32.2832L44.4065 32.2629L44.78 31.3947C45.3104 30.1629 45.5408 29.3985 45.7214 28.2708L45.8792 27.2866L46.2244 27.3089C46.4969 27.3265 46.574 27.3074 46.5914 27.2198C46.6106 27.1234 46.0265 25.7712 45.8005 25.3886C45.7601 25.3201 45.7337 25.2903 45.699 25.2939ZM2.6947 25.385C2.66966 25.385 2.64619 25.3965 2.62092 25.4176C2.52356 25.4986 1.75172 27.1649 1.75172 27.294C1.75172 27.3348 1.91482 27.366 2.12933 27.366C2.50167 27.366 2.50727 27.3692 2.54345 27.5915C2.86355 29.5623 3.00663 30.0779 3.62315 31.4775C3.81203 31.9062 3.96669 32.2819 3.96669 32.3123C3.96669 32.3784 3.30751 32.3838 2.82453 32.3216C2.51923 32.2823 2.44327 32.2366 2.17963 31.9325L1.8807 31.5874L2.02185 31.4368C2.16122 31.2879 2.16124 31.2834 2.03119 31.0798C1.95874 30.9664 1.76088 30.7183 1.59152 30.5279C1.30104 30.2013 1.27398 30.1866 1.11373 30.2726C1.0203 30.3228 0.760587 30.5287 0.536566 30.7297C0.0681655 31.1501 0.0631736 31.1119 0.675686 31.7945C1.00421 32.1606 1.16732 32.2312 1.32302 32.075C1.38863 32.0091 1.50187 32.0849 1.843 32.4242L2.27861 32.8577L3.30355 32.9562C3.8672 33.0103 4.3368 33.0642 4.34716 33.0759C4.35752 33.0875 4.52551 33.4167 4.72031 33.8077C5.17931 34.7291 5.54619 35.3266 6.06974 36.0049C6.30276 36.3067 6.55145 36.6293 6.62256 36.7216C6.69375 36.814 6.73731 36.9044 6.7191 36.9227C6.70089 36.941 6.39722 37.0026 6.04459 37.0599L5.40374 37.1641L5.11212 36.9927C4.7059 36.7539 4.6113 36.6279 4.71381 36.4632C4.75871 36.3913 4.7792 36.2923 4.75965 36.243C4.71068 36.1197 3.83681 35.4773 3.70429 35.4672C3.57705 35.4574 2.85831 36.3601 2.86145 36.5254C2.86381 36.6533 3.76052 37.3692 3.91803 37.3692C3.97352 37.3692 4.05761 37.3224 4.10502 37.265C4.22654 37.1181 4.25954 37.1273 4.70206 37.4384C5.16383 37.763 5.26654 37.7728 6.46154 37.6033L7.26057 37.4897L7.70754 37.9586C8.27243 38.5512 8.89333 39.0599 9.98903 39.8277C10.4649 40.1612 10.8638 40.4602 10.8753 40.4923C10.9039 40.5727 9.75862 41.2596 9.59884 41.258C9.52796 41.2573 9.31425 41.2158 9.12388 41.166C8.79457 41.0798 8.77751 41.064 8.77751 40.8404C8.77751 40.6062 8.77594 40.6046 8.22386 40.4464C7.4866 40.235 7.34622 40.2535 7.24191 40.5742C7.11228 40.9727 6.98136 41.6681 7.02735 41.7143C7.09375 41.7809 8.06597 42.0204 8.27456 42.022C8.42045 42.0228 8.47365 41.9822 8.50818 41.8441C8.54295 41.7049 8.58597 41.6733 8.70003 41.7004C9.73589 41.9475 9.7576 41.9434 10.8534 41.2963C11.2113 41.0849 11.5376 40.912 11.5786 40.912C11.6195 40.912 11.9361 41.0544 12.2819 41.2287C13.051 41.6163 14.1587 42.0708 15.0594 42.368C15.4219 42.4875 15.7201 42.6023 15.7339 42.6272L15.7343 42.6281V42.6289C15.7343 42.65 15.4484 42.9602 15.0988 43.318L14.4632 43.9684H13.8872H13.3117V43.7254V43.482H12.4891C11.5259 43.482 11.5838 43.4237 11.5822 44.3974C11.5806 45.1996 11.6019 45.2192 12.4689 45.2176C12.8373 45.217 13.1736 45.1935 13.2164 45.1655C13.2591 45.1375 13.3152 45.0175 13.3409 44.8989L13.3875 44.6836L14.0194 44.6384C14.4215 44.6097 14.7162 44.5517 14.8294 44.4788C14.9273 44.4158 15.3504 44.0093 15.7692 43.5752L16.5305 42.7856L17.465 42.926C17.979 43.0031 18.8588 43.0863 19.4204 43.1112C19.9819 43.1362 20.4404 43.1752 20.4396 43.1979C20.4389 43.2206 20.2437 43.5803 20.0069 43.9973C19.5876 44.7358 19.5672 44.7587 19.2301 44.872C18.5306 45.1073 18.5054 45.1073 18.4242 44.8736C18.3299 44.602 18.126 44.5996 17.3267 44.8618L16.7381 45.0551L16.7515 45.2945C16.7586 45.4262 16.846 45.7912 16.945 46.1057C17.0848 46.5498 17.1532 46.6775 17.2524 46.6775C17.4338 46.6775 18.5859 46.3357 18.6862 46.2522C18.7356 46.2107 18.755 46.0914 18.7332 45.9567L18.6967 45.7304L19.2272 45.5757C19.9228 45.3729 20.1073 45.1896 20.7275 44.0835C21.0894 43.4382 21.277 43.1721 21.4057 43.1221C21.8094 42.9656 22.9881 43.2606 23.5663 43.6627C24.4513 44.2781 25.1009 45.6121 24.9912 46.5884C24.9403 47.0419 24.6536 47.3027 24.206 47.3027C23.7836 47.3027 23.4529 46.9933 23.3842 46.5339C23.3307 46.1755 23.4826 45.4277 23.6933 45.0132L23.8316 44.7413L23.574 44.528C23.4323 44.4108 23.2846 44.3247 23.2459 44.3367C23.1279 44.3734 22.736 45.1717 22.6237 45.6042C22.5655 45.8285 22.5187 46.2164 22.5195 46.4663C22.5218 47.2016 22.8855 47.7864 23.5201 48.0757C23.8628 48.2319 24.4429 48.2426 24.7876 48.0985C25.1271 47.9565 25.549 47.5443 25.7091 47.1985C25.9618 46.6529 25.806 45.5584 25.3416 44.6171C25.0506 44.0271 24.327 43.2468 23.7557 42.9068C22.9269 42.4135 22.5834 42.351 20.6639 42.3431L18.9721 42.336L18.6391 41.3701C18.4561 40.8388 18.2462 40.323 18.1727 40.2239C18.0991 40.1248 17.843 39.93 17.6036 39.7908C17.2564 39.589 17.1506 39.4861 17.0808 39.2824C16.8929 38.7338 16.4296 38.505 15.9662 38.7321C15.0387 39.1867 15.5929 40.5267 16.569 40.1893C16.8155 40.104 16.8558 40.1106 17.192 40.2951C17.3897 40.4036 17.5944 40.5285 17.647 40.5723C17.7248 40.6371 18.2262 42.0918 18.2262 42.2525C18.2262 42.3016 18.2176 42.3003 17.0747 42.0922C16.1854 41.9301 14.7652 41.5013 14.6566 41.3619C14.6158 41.3097 14.5442 40.9604 14.4972 40.5857C14.3546 39.4484 14.2706 39.2358 13.8129 38.8502C13.3216 38.4363 13.3144 38.4259 13.3128 38.1603C13.3105 37.6956 12.7811 37.3514 12.309 37.5078C11.7423 37.6955 11.6095 38.4391 12.0688 38.851C12.2675 39.0291 12.3321 39.0485 12.6326 39.0195C12.922 38.9916 13.0099 39.0148 13.2285 39.175C13.6911 39.5149 13.7367 39.6048 13.8356 40.3684C13.8864 40.7602 13.9145 41.0943 13.8981 41.1108C13.7968 41.2124 12.0919 40.3088 10.8715 39.5067C9.80287 38.8043 9.86256 38.9111 10.0234 37.9946C10.1901 37.0451 10.1673 36.7771 9.87944 36.3091C9.66667 35.9632 9.63771 35.8677 9.67664 35.6367C9.78515 34.9922 9.17614 34.537 8.60303 34.8344C8.34515 34.9682 8.25827 35.1347 8.25827 35.4946C8.25827 35.8601 8.55 36.1882 8.87437 36.1882C9.05179 36.1882 9.12432 36.2464 9.32945 36.5521C9.46372 36.7522 9.57359 36.9786 9.57362 37.0556C9.57372 37.3357 9.34674 38.334 9.28159 38.3418C9.06053 38.3418 7.74548 36.9332 6.6014 35.4706L6.23028 34.9964L6.65697 34.116C7.12456 33.1511 7.16984 32.8922 6.98144 32.264C6.89398 31.9724 6.89398 31.905 6.98144 31.7353C7.14482 31.4182 7.11035 31.0262 6.90073 30.8158C6.45862 30.3721 5.75087 30.5924 5.6519 31.2045C5.60056 31.5219 5.77814 31.8559 6.07291 31.997C6.26517 32.089 6.32426 32.1756 6.42659 32.5147C6.54558 32.9091 6.54532 32.9316 6.41764 33.2181C6.17983 33.7518 5.89562 34.2434 5.82506 34.2434C5.67525 34.2434 4.05752 30.7033 3.72609 29.6505C3.54945 29.0893 3.23685 27.3806 3.29941 27.3178C3.31738 27.2998 3.46023 27.2676 3.61658 27.2466C3.77295 27.2255 3.9196 27.1785 3.94228 27.1416C3.9845 27.073 3.17841 25.8402 2.88042 25.5175C2.7962 25.4263 2.74256 25.385 2.6947 25.385Z" stroke="#1E1E1E" stroke-width="0.4" mask="url(#path-1-outside-1_590_427)"/>
<path d="M14.5635 0.147461C15.935 0.147583 16.6636 0.149133 17.0752 0.166992C17.2806 0.175907 17.4129 0.188421 17.5088 0.208984C17.6092 0.230531 17.6693 0.260052 17.7295 0.296875C18.0253 0.477946 18.2136 0.816728 18.2119 1.16406C18.2111 1.3345 18.1752 1.48704 18.0986 1.62402C18.0222 1.76066 17.9088 1.87675 17.7598 1.97754L17.5254 2.13574L17.5 2.15234H17.4697L14.5547 2.15137C13.2989 2.15058 12.5604 2.14572 12.1123 2.12988C11.6715 2.11429 11.4932 2.08772 11.375 2.0293C11.3046 1.99446 11.2283 1.94156 11.1621 1.88477C11.0963 1.82826 11.0333 1.76262 10.9932 1.70117C10.8973 1.55451 10.8572 1.34361 10.8594 1.14355C10.8616 0.943138 10.9063 0.73147 11.0039 0.582031C11.0667 0.486002 11.1295 0.396328 11.2422 0.329102C11.3521 0.263574 11.5008 0.224515 11.7266 0.199219C12.1774 0.14876 12.9919 0.14732 14.5635 0.147461Z" fill="#1E1E1E" stroke="#1E1E1E" stroke-width="0.2"/>
<path d="M31.8486 0.100586C32.4124 0.100813 32.8691 0.559104 32.8691 1.12402C32.8691 1.6889 32.4123 2.14723 31.8486 2.14746C31.2847 2.14746 30.8282 1.68904 30.8281 1.12402C30.8281 0.558964 31.2847 0.100586 31.8486 0.100586Z" fill="#1E1E1E" stroke="#1E1E1E" stroke-width="0.2"/>
<path d="M24.5479 0.147461C25.9194 0.147583 26.648 0.149133 27.0596 0.166992C27.2649 0.175907 27.3973 0.188421 27.4932 0.208984C27.5935 0.230531 27.6537 0.260052 27.7139 0.296875C28.0097 0.477946 28.198 0.816728 28.1963 1.16406C28.1954 1.3345 28.1596 1.48704 28.083 1.62402C28.0066 1.76066 27.8932 1.87675 27.7441 1.97754L27.5098 2.13574L27.4844 2.15234H27.4541L24.5391 2.15137C23.2832 2.15058 22.5447 2.14572 22.0967 2.12988C21.6559 2.11429 21.4776 2.08772 21.3594 2.0293C21.289 1.99446 21.2127 1.94156 21.1465 1.88477C21.0806 1.82826 21.0177 1.76262 20.9775 1.70117C20.8816 1.55451 20.8416 1.34361 20.8438 1.14355C20.8459 0.943138 20.8907 0.73147 20.9883 0.582031C21.0511 0.486002 21.1138 0.396328 21.2266 0.329102C21.3365 0.263574 21.4852 0.224515 21.7109 0.199219C22.1618 0.14876 22.9763 0.14732 24.5479 0.147461Z" fill="#1E1E1E" stroke="#1E1E1E" stroke-width="0.2"/>
<path d="M36.5186 0.100586C37.0823 0.100813 37.5391 0.559104 37.5391 1.12402C37.539 1.6889 37.0823 2.14723 36.5186 2.14746C35.9547 2.14746 35.4981 1.68904 35.498 1.12402C35.498 0.558964 35.9546 0.100586 36.5186 0.100586Z" fill="#1E1E1E" stroke="#1E1E1E" stroke-width="0.2"/>
<path d="M24.2275 4.19287C25.5991 4.19299 26.3277 4.19454 26.7393 4.2124C26.9446 4.22132 27.077 4.23383 27.1729 4.25439C27.2732 4.27594 27.3334 4.30546 27.3936 4.34229C27.6894 4.52336 27.8777 4.86214 27.876 5.20947C27.8751 5.37991 27.8392 5.53245 27.7627 5.66943C27.6863 5.80607 27.5729 5.92216 27.4238 6.02295L27.1895 6.18115L27.1641 6.19775H27.1338L24.2188 6.19678C22.9629 6.19599 22.2244 6.19113 21.7764 6.17529C21.3356 6.1597 21.1573 6.13312 21.0391 6.07471C20.9687 6.03988 20.8924 5.98697 20.8262 5.93018C20.7603 5.87368 20.6974 5.80803 20.6572 5.74658C20.5613 5.59992 20.5213 5.38902 20.5234 5.18896C20.5256 4.98855 20.5703 4.77688 20.668 4.62744C20.7308 4.53141 20.7935 4.44174 20.9062 4.37451C21.0162 4.30898 21.1649 4.26992 21.3906 4.24463C21.8415 4.19417 22.656 4.19273 24.2275 4.19287Z" fill="#1E1E1E" stroke="#1E1E1E" stroke-width="0.2"/>
<path d="M34.1992 9.00244C34.9438 9.00252 35.5488 9.61042 35.5488 10.3569V14.021H36.2822C36.568 14.021 36.7986 14.2526 36.7988 14.5386C36.7988 15.7465 35.8196 16.73 34.6152 16.73H28.7822C27.578 16.7298 26.5996 15.7464 26.5996 14.5386C26.5998 14.2526 26.8302 14.021 27.1162 14.021H27.8496V10.3569C27.8496 9.61038 28.4544 9.00244 29.1992 9.00244H34.1992ZM27.7568 15.0571C27.9467 15.4341 28.3343 15.6937 28.7822 15.6938H34.6152C35.0632 15.6938 35.4519 15.4342 35.6416 15.0571H27.7568ZM29.1992 10.0386C29.0247 10.0386 28.8828 10.1811 28.8828 10.3569V14.021H34.5156V10.3569C34.5156 10.1812 34.3735 10.0386 34.1992 10.0386H29.1992Z" fill="#1E1E1E" stroke="#1E1E1E" stroke-width="0.2"/>
<path d="M33.3652 10.6748C33.6513 10.6748 33.8817 10.9064 33.8818 11.1924V12.8652C33.8818 13.1512 33.6513 13.3838 33.3652 13.3838H30.0322C29.7462 13.3838 29.5156 13.1513 29.5156 12.8652V11.1924C29.5158 10.9063 29.7463 10.6748 30.0322 10.6748H33.3652ZM30.5488 12.3477H32.8486V11.7109H30.5488V12.3477Z" fill="#1E1E1E" stroke="#1E1E1E" stroke-width="0.2"/>
<path d="M17.9492 27.4038C19.1532 27.4039 20.1326 28.3865 20.1328 29.5942V31.855L22.0225 33.3726C22.1923 33.5098 22.2585 33.7409 22.1865 33.9478C22.1143 34.1549 21.9191 34.2953 21.6992 34.2954H13.7822C12.578 34.2952 11.5996 33.3116 11.5996 32.104V29.5942C11.5999 28.3866 12.5781 27.404 13.7822 27.4038H17.9492ZM13.7822 28.4399C13.1488 28.4401 12.6331 28.9576 12.6328 29.5942V32.104C12.6328 32.7407 13.1487 33.2581 13.7822 33.2583H20.2256L19.293 32.5083C19.1707 32.4099 19.0986 32.2611 19.0986 32.104V29.5942C19.0984 28.9575 18.5825 28.44 17.9492 28.4399H13.7822Z" fill="#1E1E1E" stroke="#1E1E1E" stroke-width="0.2"/>
<path d="M14.7168 30.332V31.3682H13.6836V30.332H14.7168Z" fill="#1E1E1E" stroke="#1E1E1E" stroke-width="0.2"/>
<path d="M16.3828 30.332V31.3682H15.3496V30.332H16.3828Z" fill="#1E1E1E" stroke="#1E1E1E" stroke-width="0.2"/>
<path d="M18.0488 30.332V31.3682H17.0156V30.332H18.0488Z" fill="#1E1E1E" stroke="#1E1E1E" stroke-width="0.2"/>
<path d="M15.0322 13.999C15.7768 13.9991 16.3818 14.6068 16.3818 15.3535C16.3818 15.8002 16.1627 16.1919 15.8301 16.4385L16.7666 18.958C16.8253 19.1164 16.8022 19.2933 16.7061 19.4326L16.707 19.4336C16.6108 19.5742 16.451 19.6572 16.2822 19.6572H13.7822C13.6133 19.6572 13.4542 19.5744 13.3574 19.4346C13.2615 19.2955 13.2389 19.117 13.2979 18.958L14.2324 16.4385C13.9007 16.1918 13.6826 15.7995 13.6826 15.3535C13.6826 14.6068 14.2874 13.999 15.0322 13.999ZM14.5254 18.6211H15.5391L15.0322 17.2559L14.5254 18.6211ZM15.0322 15.0352C14.8577 15.0352 14.7148 15.1775 14.7148 15.3535C14.7149 15.516 14.8401 15.648 15.002 15.6641H15.0625C15.224 15.648 15.3486 15.5161 15.3486 15.3535C15.3486 15.1775 15.2065 15.0352 15.0322 15.0352Z" fill="#1E1E1E" stroke="#1E1E1E" stroke-width="0.2"/>
<path d="M13.4277 13.001C14.3125 12.1634 15.751 12.1634 16.6357 13.001L16.708 13.0693L16.6406 13.1416L16.0693 13.751L16 13.8242L15.9277 13.7549C15.434 13.2882 14.6292 13.2883 14.1357 13.7549L14.0635 13.8242L13.9941 13.751L13.4229 13.1416L13.3555 13.0693L13.4277 13.001Z" fill="#1E1E1E" stroke="#1E1E1E" stroke-width="0.2"/>
<path d="M12.583 11.6851C13.9216 10.3413 16.0998 10.3413 17.4385 11.6851L17.5088 11.7554L17.4385 11.8257L16.8496 12.4175L16.7793 12.4878L16.708 12.4175C15.7725 11.4781 14.2497 11.4781 13.3145 12.4175L13.2441 12.4878L13.1729 12.4175L12.583 11.8257L12.5127 11.7554L12.583 11.6851Z" fill="#1E1E1E" stroke="#1E1E1E" stroke-width="0.2"/>
<path d="M15.0029 9.00195C16.2533 9.002 17.4296 9.49173 18.3145 10.3799L18.3848 10.4502L18.3145 10.5205L17.7256 11.1123L17.6543 11.1836L17.584 11.1123C16.894 10.4192 15.9776 10.0381 15.0029 10.0381C14.0285 10.0381 13.1128 10.4192 12.4219 11.1123L12.3506 11.1836L12.2803 11.1123L11.6904 10.5205L11.6201 10.4502L11.6904 10.3799C12.5753 9.49123 13.7527 9.00195 15.0029 9.00195Z" fill="#1E1E1E" stroke="#1E1E1E" stroke-width="0.2"/>
<path d="M36.2832 28.2402C36.569 28.2403 36.7996 28.4718 36.7998 28.7578V33.7764C36.7998 34.0625 36.5691 34.2949 36.2832 34.2949H30.4502C30.1643 34.2949 29.9336 34.0626 29.9336 33.7764V28.7578C29.9338 28.4718 30.1644 28.2402 30.4502 28.2402H36.2832ZM30.9668 33.2588H35.7666V32.6221H30.9668V33.2588ZM30.9668 31.5859H35.7666V30.9492H30.9668V31.5859ZM30.9668 29.9131H35.7666V29.2764H30.9668V29.9131Z" fill="#1E1E1E" stroke="#1E1E1E" stroke-width="0.2"/>
<path d="M22.9502 19.4575C23.9246 19.4578 24.7167 20.2528 24.7168 21.23C24.7168 22.2073 23.9247 23.0032 22.9502 23.0034C21.9755 23.0034 21.1836 22.2074 21.1836 21.23C21.1837 20.2526 21.9755 19.4575 22.9502 19.4575ZM22.9502 20.4937C22.5463 20.4937 22.2169 20.8235 22.2168 21.23C22.2168 21.6363 22.5462 21.9663 22.9502 21.9663C23.354 21.9661 23.6826 21.6362 23.6826 21.23C23.6825 20.8237 23.3539 20.4939 22.9502 20.4937Z" fill="#1E1E1E" stroke="#1E1E1E" stroke-width="0.2"/>
<mask id="path-19-outside-2_590_427" maskUnits="userSpaceOnUse" x="18.1992" y="16.4658" width="9" height="9" fill="black">
<rect fill="white" x="18.1992" y="16.4658" width="9" height="9"/>
<path d="M19.6158 22.4845H19.8592C19.8654 22.5018 19.8733 22.5189 19.8804 22.5355L19.7084 22.7083C19.6301 22.7871 19.5863 22.8927 19.5863 23.004C19.5863 23.1147 19.6301 23.2214 19.7084 23.2997L20.8871 24.4828C21.0433 24.6395 21.3199 24.6395 21.4763 24.4828L21.6482 24.3101C21.665 24.318 21.6821 24.3242 21.6991 24.3315V24.5758C21.6991 24.8069 21.8854 24.9938 22.1159 24.9938H23.7824C24.0129 24.9938 24.1992 24.8069 24.1992 24.5758V24.3315C24.2162 24.3251 24.2332 24.3172 24.2501 24.3101L24.422 24.4828C24.5003 24.5614 24.6058 24.6054 24.7167 24.6054C24.8276 24.6054 24.9333 24.5614 25.0112 24.4828L26.1899 23.2997C26.2682 23.2212 26.312 23.1149 26.312 23.004C26.312 22.8927 26.2682 22.7865 26.1899 22.7083L26.0179 22.5355C26.0258 22.5189 26.0321 22.5018 26.0391 22.4845H26.2825C26.5128 22.4845 26.6991 22.2976 26.6991 22.0662V20.3934C26.6991 20.1621 26.5128 19.9751 26.2825 19.9751H26.0391C26.0312 19.9579 26.025 19.9408 26.0179 19.9241L26.1899 19.7513C26.2682 19.6728 26.312 19.5669 26.312 19.4556C26.312 19.345 26.2682 19.2382 26.1899 19.1601L25.0112 17.9768C24.855 17.8195 24.5784 17.8203 24.422 17.9768L24.2501 18.1496C24.2332 18.1416 24.2162 18.1354 24.1992 18.1283V17.8841C24.1992 17.6527 24.0129 17.4658 23.7824 17.4658H22.1159C21.8854 17.4658 21.6991 17.6527 21.6991 17.8841V18.1283C21.6821 18.136 21.665 18.1425 21.6482 18.1496L21.4763 17.9768C21.398 17.8982 21.2925 17.8543 21.1816 17.8543C21.0707 17.8543 20.965 17.8982 20.8871 17.9768L19.7084 19.1601C19.6301 19.2385 19.5863 19.345 19.5863 19.4556C19.5863 19.5669 19.6301 19.6732 19.7084 19.7513L19.8804 19.9241C19.8725 19.9408 19.8662 19.9579 19.8592 19.9751H19.6158C19.3855 19.9751 19.1992 20.1621 19.1992 20.3934V22.0662C19.1992 22.2976 19.3855 22.4845 19.6158 22.4845ZM20.0326 20.8117H20.1551C20.3391 20.8117 20.5017 20.6904 20.5542 20.513C20.6051 20.3428 20.6703 20.1825 20.7497 20.0366C20.8375 19.8735 20.8088 19.6719 20.678 19.5411L20.5927 19.4554L21.1818 18.864L21.2672 18.9496C21.3976 19.0809 21.5992 19.1099 21.7608 19.0215C21.9061 18.9425 22.0654 18.8765 22.2355 18.8254C22.4116 18.7731 22.5325 18.6101 22.5325 18.4253V18.3021H23.3658V18.4253C23.3658 18.6101 23.4867 18.7731 23.6632 18.8258C23.8329 18.8769 23.9926 18.9425 24.1379 19.0219C24.2999 19.1099 24.5007 19.0813 24.6316 18.95L24.7169 18.8644L25.3061 19.4558L25.2207 19.5415C25.0903 19.6719 25.0612 19.8739 25.1491 20.037C25.2278 20.1829 25.2936 20.3428 25.3445 20.5134C25.3966 20.6904 25.5592 20.8117 25.7434 20.8117H25.8657V21.648H25.7434C25.5592 21.648 25.3966 21.7693 25.3441 21.9466C25.2932 22.1169 25.228 22.2771 25.1486 22.423C25.0608 22.5862 25.0895 22.7877 25.2203 22.9186L25.3056 23.0042L24.7165 23.5957L24.6311 23.51C24.5007 23.3792 24.2999 23.3506 24.1375 23.4381C23.9921 23.5171 23.8329 23.5832 23.6628 23.6342C23.4867 23.6865 23.3658 23.8495 23.3658 24.0346V24.1575H22.5325V24.0346C22.5325 23.8495 22.4118 23.6865 22.2351 23.6338C22.0654 23.5828 21.9059 23.5171 21.7604 23.4377C21.5984 23.3498 21.3976 23.3783 21.2667 23.5096L21.1814 23.5953L20.5922 23.0038L20.6776 22.9182C20.8078 22.7877 20.8371 22.5858 20.7492 22.4226C20.6703 22.2767 20.6047 22.1169 20.5538 21.9462C20.5017 21.7693 20.3391 21.648 20.1551 21.648H20.0326V20.8117Z"/>
</mask>
<path d="M19.6158 22.4845H19.8592C19.8654 22.5018 19.8733 22.5189 19.8804 22.5355L19.7084 22.7083C19.6301 22.7871 19.5863 22.8927 19.5863 23.004C19.5863 23.1147 19.6301 23.2214 19.7084 23.2997L20.8871 24.4828C21.0433 24.6395 21.3199 24.6395 21.4763 24.4828L21.6482 24.3101C21.665 24.318 21.6821 24.3242 21.6991 24.3315V24.5758C21.6991 24.8069 21.8854 24.9938 22.1159 24.9938H23.7824C24.0129 24.9938 24.1992 24.8069 24.1992 24.5758V24.3315C24.2162 24.3251 24.2332 24.3172 24.2501 24.3101L24.422 24.4828C24.5003 24.5614 24.6058 24.6054 24.7167 24.6054C24.8276 24.6054 24.9333 24.5614 25.0112 24.4828L26.1899 23.2997C26.2682 23.2212 26.312 23.1149 26.312 23.004C26.312 22.8927 26.2682 22.7865 26.1899 22.7083L26.0179 22.5355C26.0258 22.5189 26.0321 22.5018 26.0391 22.4845H26.2825C26.5128 22.4845 26.6991 22.2976 26.6991 22.0662V20.3934C26.6991 20.1621 26.5128 19.9751 26.2825 19.9751H26.0391C26.0312 19.9579 26.025 19.9408 26.0179 19.9241L26.1899 19.7513C26.2682 19.6728 26.312 19.5669 26.312 19.4556C26.312 19.345 26.2682 19.2382 26.1899 19.1601L25.0112 17.9768C24.855 17.8195 24.5784 17.8203 24.422 17.9768L24.2501 18.1496C24.2332 18.1416 24.2162 18.1354 24.1992 18.1283V17.8841C24.1992 17.6527 24.0129 17.4658 23.7824 17.4658H22.1159C21.8854 17.4658 21.6991 17.6527 21.6991 17.8841V18.1283C21.6821 18.136 21.665 18.1425 21.6482 18.1496L21.4763 17.9768C21.398 17.8982 21.2925 17.8543 21.1816 17.8543C21.0707 17.8543 20.965 17.8982 20.8871 17.9768L19.7084 19.1601C19.6301 19.2385 19.5863 19.345 19.5863 19.4556C19.5863 19.5669 19.6301 19.6732 19.7084 19.7513L19.8804 19.9241C19.8725 19.9408 19.8662 19.9579 19.8592 19.9751H19.6158C19.3855 19.9751 19.1992 20.1621 19.1992 20.3934V22.0662C19.1992 22.2976 19.3855 22.4845 19.6158 22.4845ZM20.0326 20.8117H20.1551C20.3391 20.8117 20.5017 20.6904 20.5542 20.513C20.6051 20.3428 20.6703 20.1825 20.7497 20.0366C20.8375 19.8735 20.8088 19.6719 20.678 19.5411L20.5927 19.4554L21.1818 18.864L21.2672 18.9496C21.3976 19.0809 21.5992 19.1099 21.7608 19.0215C21.9061 18.9425 22.0654 18.8765 22.2355 18.8254C22.4116 18.7731 22.5325 18.6101 22.5325 18.4253V18.3021H23.3658V18.4253C23.3658 18.6101 23.4867 18.7731 23.6632 18.8258C23.8329 18.8769 23.9926 18.9425 24.1379 19.0219C24.2999 19.1099 24.5007 19.0813 24.6316 18.95L24.7169 18.8644L25.3061 19.4558L25.2207 19.5415C25.0903 19.6719 25.0612 19.8739 25.1491 20.037C25.2278 20.1829 25.2936 20.3428 25.3445 20.5134C25.3966 20.6904 25.5592 20.8117 25.7434 20.8117H25.8657V21.648H25.7434C25.5592 21.648 25.3966 21.7693 25.3441 21.9466C25.2932 22.1169 25.228 22.2771 25.1486 22.423C25.0608 22.5862 25.0895 22.7877 25.2203 22.9186L25.3056 23.0042L24.7165 23.5957L24.6311 23.51C24.5007 23.3792 24.2999 23.3506 24.1375 23.4381C23.9921 23.5171 23.8329 23.5832 23.6628 23.6342C23.4867 23.6865 23.3658 23.8495 23.3658 24.0346V24.1575H22.5325V24.0346C22.5325 23.8495 22.4118 23.6865 22.2351 23.6338C22.0654 23.5828 21.9059 23.5171 21.7604 23.4377C21.5984 23.3498 21.3976 23.3783 21.2667 23.5096L21.1814 23.5953L20.5922 23.0038L20.6776 22.9182C20.8078 22.7877 20.8371 22.5858 20.7492 22.4226C20.6703 22.2767 20.6047 22.1169 20.5538 21.9462C20.5017 21.7693 20.3391 21.648 20.1551 21.648H20.0326V20.8117Z" fill="#1E1E1E"/>
<path d="M19.6158 22.4845H19.8592C19.8654 22.5018 19.8733 22.5189 19.8804 22.5355L19.7084 22.7083C19.6301 22.7871 19.5863 22.8927 19.5863 23.004C19.5863 23.1147 19.6301 23.2214 19.7084 23.2997L20.8871 24.4828C21.0433 24.6395 21.3199 24.6395 21.4763 24.4828L21.6482 24.3101C21.665 24.318 21.6821 24.3242 21.6991 24.3315V24.5758C21.6991 24.8069 21.8854 24.9938 22.1159 24.9938H23.7824C24.0129 24.9938 24.1992 24.8069 24.1992 24.5758V24.3315C24.2162 24.3251 24.2332 24.3172 24.2501 24.3101L24.422 24.4828C24.5003 24.5614 24.6058 24.6054 24.7167 24.6054C24.8276 24.6054 24.9333 24.5614 25.0112 24.4828L26.1899 23.2997C26.2682 23.2212 26.312 23.1149 26.312 23.004C26.312 22.8927 26.2682 22.7865 26.1899 22.7083L26.0179 22.5355C26.0258 22.5189 26.0321 22.5018 26.0391 22.4845H26.2825C26.5128 22.4845 26.6991 22.2976 26.6991 22.0662V20.3934C26.6991 20.1621 26.5128 19.9751 26.2825 19.9751H26.0391C26.0312 19.9579 26.025 19.9408 26.0179 19.9241L26.1899 19.7513C26.2682 19.6728 26.312 19.5669 26.312 19.4556C26.312 19.345 26.2682 19.2382 26.1899 19.1601L25.0112 17.9768C24.855 17.8195 24.5784 17.8203 24.422 17.9768L24.2501 18.1496C24.2332 18.1416 24.2162 18.1354 24.1992 18.1283V17.8841C24.1992 17.6527 24.0129 17.4658 23.7824 17.4658H22.1159C21.8854 17.4658 21.6991 17.6527 21.6991 17.8841V18.1283C21.6821 18.136 21.665 18.1425 21.6482 18.1496L21.4763 17.9768C21.398 17.8982 21.2925 17.8543 21.1816 17.8543C21.0707 17.8543 20.965 17.8982 20.8871 17.9768L19.7084 19.1601C19.6301 19.2385 19.5863 19.345 19.5863 19.4556C19.5863 19.5669 19.6301 19.6732 19.7084 19.7513L19.8804 19.9241C19.8725 19.9408 19.8662 19.9579 19.8592 19.9751H19.6158C19.3855 19.9751 19.1992 20.1621 19.1992 20.3934V22.0662C19.1992 22.2976 19.3855 22.4845 19.6158 22.4845ZM20.0326 20.8117H20.1551C20.3391 20.8117 20.5017 20.6904 20.5542 20.513C20.6051 20.3428 20.6703 20.1825 20.7497 20.0366C20.8375 19.8735 20.8088 19.6719 20.678 19.5411L20.5927 19.4554L21.1818 18.864L21.2672 18.9496C21.3976 19.0809 21.5992 19.1099 21.7608 19.0215C21.9061 18.9425 22.0654 18.8765 22.2355 18.8254C22.4116 18.7731 22.5325 18.6101 22.5325 18.4253V18.3021H23.3658V18.4253C23.3658 18.6101 23.4867 18.7731 23.6632 18.8258C23.8329 18.8769 23.9926 18.9425 24.1379 19.0219C24.2999 19.1099 24.5007 19.0813 24.6316 18.95L24.7169 18.8644L25.3061 19.4558L25.2207 19.5415C25.0903 19.6719 25.0612 19.8739 25.1491 20.037C25.2278 20.1829 25.2936 20.3428 25.3445 20.5134C25.3966 20.6904 25.5592 20.8117 25.7434 20.8117H25.8657V21.648H25.7434C25.5592 21.648 25.3966 21.7693 25.3441 21.9466C25.2932 22.1169 25.228 22.2771 25.1486 22.423C25.0608 22.5862 25.0895 22.7877 25.2203 22.9186L25.3056 23.0042L24.7165 23.5957L24.6311 23.51C24.5007 23.3792 24.2999 23.3506 24.1375 23.4381C23.9921 23.5171 23.8329 23.5832 23.6628 23.6342C23.4867 23.6865 23.3658 23.8495 23.3658 24.0346V24.1575H22.5325V24.0346C22.5325 23.8495 22.4118 23.6865 22.2351 23.6338C22.0654 23.5828 21.9059 23.5171 21.7604 23.4377C21.5984 23.3498 21.3976 23.3783 21.2667 23.5096L21.1814 23.5953L20.5922 23.0038L20.6776 22.9182C20.8078 22.7877 20.8371 22.5858 20.7492 22.4226C20.6703 22.2767 20.6047 22.1169 20.5538 21.9462C20.5017 21.7693 20.3391 21.648 20.1551 21.648H20.0326V20.8117Z" stroke="#1E1E1E" stroke-width="0.4" mask="url(#path-19-outside-2_590_427)"/>
<path d="M20.1328 11.0933V12.1294H19.0996V11.0933H20.1328Z" fill="#1E1E1E" stroke="#1E1E1E" stroke-width="0.2"/>
<path d="M21.7988 11.0933V12.1294H20.7656V11.0933H21.7988Z" fill="#1E1E1E" stroke="#1E1E1E" stroke-width="0.2"/>
<path d="M23.4668 11.0933V12.1294H22.4336V11.0933H23.4668Z" fill="#1E1E1E" stroke="#1E1E1E" stroke-width="0.2"/>
<path d="M25.1328 11.0933V12.1294H24.0996V11.0933H25.1328Z" fill="#1E1E1E" stroke="#1E1E1E" stroke-width="0.2"/>
<path d="M26.7988 11.0933V12.1294H25.7656V11.0933H26.7988Z" fill="#1E1E1E" stroke="#1E1E1E" stroke-width="0.2"/>
<path d="M35.9648 17.7852V18.8213H34.9316V17.7852H35.9648Z" fill="#1E1E1E" stroke="#1E1E1E" stroke-width="0.2"/>
<path d="M35.9648 19.4575V20.4937H34.9316V19.4575H35.9648Z" fill="#1E1E1E" stroke="#1E1E1E" stroke-width="0.2"/>
<path d="M35.9648 26.1494V27.1855H34.9316V26.1494H35.9648Z" fill="#1E1E1E" stroke="#1E1E1E" stroke-width="0.2"/>
<path d="M28.8828 30.75V31.7861H27.8496V30.75H28.8828Z" fill="#1E1E1E" stroke="#1E1E1E" stroke-width="0.2"/>
<path d="M27.2168 30.75V31.7861H26.1836V30.75H27.2168Z" fill="#1E1E1E" stroke="#1E1E1E" stroke-width="0.2"/>
<path d="M25.5488 30.75V31.7861H24.5156V30.75H25.5488Z" fill="#1E1E1E" stroke="#1E1E1E" stroke-width="0.2"/>
<path d="M23.8828 30.75V31.7861H22.8496V30.75H23.8828Z" fill="#1E1E1E" stroke="#1E1E1E" stroke-width="0.2"/>
<path d="M22.2168 30.75V31.7861H21.1836V30.75H22.2168Z" fill="#1E1E1E" stroke="#1E1E1E" stroke-width="0.2"/>
<path d="M13.4648 25.731V26.7671H12.4316V25.731H13.4648Z" fill="#1E1E1E" stroke="#1E1E1E" stroke-width="0.2"/>
<path d="M13.4648 24.0586V25.0947H12.4316V24.0586H13.4648Z" fill="#1E1E1E" stroke="#1E1E1E" stroke-width="0.2"/>
<path d="M13.4648 22.3853V23.4214H12.4316V22.3853H13.4648Z" fill="#1E1E1E" stroke="#1E1E1E" stroke-width="0.2"/>
<path d="M13.4648 20.7124V21.7485H12.4316V20.7124H13.4648Z" fill="#1E1E1E" stroke="#1E1E1E" stroke-width="0.2"/>
<path d="M35.9648 24.4766V25.5127H34.9316V24.4766H35.9648Z" fill="#1E1E1E" stroke="#1E1E1E" stroke-width="0.2"/>
<path d="M35.9648 22.8037V23.8398H34.9316V22.8037H35.9648Z" fill="#1E1E1E" stroke="#1E1E1E" stroke-width="0.2"/>
<path d="M35.9648 21.1309V22.167H34.9316V21.1309H35.9648Z" fill="#1E1E1E" stroke="#1E1E1E" stroke-width="0.2"/>
<path d="M22.5322 14.0205C24.777 14.0205 26.711 15.4744 27.3779 17.5674C27.8212 17.3794 28.3168 17.3136 28.7998 17.4092C30.016 17.608 30.9153 18.6398 30.9609 19.877C32.8105 19.9278 34.2988 21.4536 34.2988 23.3213C34.2988 24.9705 33.1122 26.3942 31.5117 26.7012C31.4436 26.7403 31.3664 26.7666 31.2822 26.7666H17.5322C15.639 26.7665 14.0997 25.2208 14.0996 23.3213C14.0996 21.4365 15.6225 19.9032 17.4873 19.876C17.4516 19.6316 17.4326 19.3852 17.4326 19.1387C17.4328 16.3165 19.7199 14.0206 22.5322 14.0205ZM22.5322 15.0566C20.2906 15.0568 18.466 16.8876 18.4658 19.1387C18.4658 19.5323 18.5238 19.9269 18.6377 20.3105C18.6895 20.4851 18.6456 20.6744 18.5225 20.8086L18.5234 20.8096C18.4 20.9451 18.2145 21.0043 18.0352 20.9658C17.8675 20.9298 17.6979 20.9121 17.5322 20.9121C16.2092 20.9122 15.1328 21.9923 15.1328 23.3213C15.1329 24.6503 16.2093 25.7303 17.5322 25.7305H31.1064C31.1375 25.7183 31.1695 25.7091 31.2031 25.7041L31.2041 25.7031C32.3782 25.5363 33.2656 24.5129 33.2656 23.3213C33.2656 21.9922 32.1884 20.9121 30.8652 20.9121C30.7547 20.9121 30.6331 20.9242 30.4814 20.9502C30.3092 20.9796 30.1369 20.9208 30.0186 20.7959V20.7949C29.9019 20.6699 29.8522 20.4942 29.8896 20.3252V20.3242C29.9191 20.1962 29.9326 20.0824 29.9326 19.9756C29.9326 19.2047 29.3802 18.5547 28.6191 18.4297H28.6162C28.5208 18.4115 28.442 18.4023 28.3652 18.4023C28.0512 18.4024 27.7494 18.4995 27.4844 18.6855L27.373 18.7705C27.2309 18.8894 27.036 18.9233 26.8623 18.8584C26.6896 18.7936 26.5642 18.6415 26.5332 18.459V18.458C26.2019 16.4868 24.5194 15.0566 22.5322 15.0566Z" fill="#1E1E1E" stroke="#1E1E1E" stroke-width="0.2"/>
</svg>
