<svg width="31" height="39" viewBox="0 0 31 39" fill="none" xmlns="http://www.w3.org/2000/svg">
<path fill-rule="evenodd" clip-rule="evenodd" d="M0 5.5C0 2.46244 2.46243 0 5.5 0H21.4737C22.6012 0 23.6596 0.543146 24.317 1.4591L30.3434 9.8549C30.7703 10.4498 31 11.1636 31 11.8958V33.5C31 36.5376 28.5376 39 25.5 39H5.5C2.46243 39 0 36.5376 0 33.5V5.5ZM5.5 3C4.11929 3 3 4.11929 3 5.5V33.5C3 34.8807 4.11929 36 5.5 36H25.5C26.8807 36 28 34.8807 28 33.5V13.2941H21.5C20.6716 13.2941 20 12.6225 20 11.7941V3H5.5Z" fill="white"/>
</svg>
